<?xml version="1.0" encoding="utf-8"?>
<COLLADA xmlns="http://www.collada.org/2005/11/COLLADASchema" version="1.4.1" xmlns:xsi="http://www.w3.org/2001/XMLSchema-instance">
  <asset>
    <contributor>
      <author>Blender User</author>
      <authoring_tool>Blender 3.6.20 commit date:2025-01-20, commit time:15:08, hash:46254438b9dd</authoring_tool>
    </contributor>
    <created>2025-11-06T18:21:58</created>
    <modified>2025-11-06T18:21:58</modified>
    <unit name="meter" meter="1"/>
    <up_axis>Z_UP</up_axis>
  </asset>
  <library_effects>
    <effect id="black_001-effect">
      <profile_COMMON>
        <technique sid="common">
          <lambert>
            <emission>
              <color sid="emission">0 0 0 1</color>
            </emission>
            <diffuse>
              <color sid="diffuse">0 0 0 1</color>
            </diffuse>
            <reflectivity>
              <float sid="specular">0.5</float>
            </reflectivity>
            <index_of_refraction>
              <float sid="ior">1.45</float>
            </index_of_refraction>
          </lambert>
        </technique>
      </profile_COMMON>
    </effect>
    <effect id="base_003-effect">
      <profile_COMMON>
        <technique sid="common">
          <lambert>
            <emission>
              <color sid="emission">0 0 0 1</color>
            </emission>
            <diffuse>
              <color sid="diffuse">1 1 1 1</color>
            </diffuse>
            <reflectivity>
              <float sid="specular">0.5</float>
            </reflectivity>
            <index_of_refraction>
              <float sid="ior">1.45</float>
            </index_of_refraction>
          </lambert>
        </technique>
      </profile_COMMON>
    </effect>
    <effect id="lidar_cover_003-effect">
      <profile_COMMON>
        <technique sid="common">
          <lambert>
            <emission>
              <color sid="emission">0 0 0 1</color>
            </emission>
            <diffuse>
              <color sid="diffuse">0.2956922 0.2956922 0.2956922 1</color>
            </diffuse>
            <reflectivity>
              <float sid="specular">0.5</float>
            </reflectivity>
            <index_of_refraction>
              <float sid="ior">1.45</float>
            </index_of_refraction>
          </lambert>
        </technique>
      </profile_COMMON>
    </effect>
    <effect id="button_003-effect">
      <profile_COMMON>
        <technique sid="common">
          <lambert>
            <emission>
              <color sid="emission">0 0 0 1</color>
            </emission>
            <diffuse>
              <color sid="diffuse">0.6266626 0.6266626 0.6266626 1</color>
            </diffuse>
            <reflectivity>
              <float sid="specular">0.5</float>
            </reflectivity>
            <index_of_refraction>
              <float sid="ior">1.45</float>
            </index_of_refraction>
          </lambert>
        </technique>
      </profile_COMMON>
    </effect>
    <effect id="bag_003-effect">
      <profile_COMMON>
        <technique sid="common">
          <lambert>
            <emission>
              <color sid="emission">0 0 0 1</color>
            </emission>
            <diffuse>
              <color sid="diffuse">0.4292258 0.4292258 0.4292258 1</color>
            </diffuse>
            <reflectivity>
              <float sid="specular">0.5</float>
            </reflectivity>
            <index_of_refraction>
              <float sid="ior">1.45</float>
            </index_of_refraction>
          </lambert>
        </technique>
      </profile_COMMON>
    </effect>
    <effect id="mop_003-effect">
      <profile_COMMON>
        <technique sid="common">
          <lambert>
            <emission>
              <color sid="emission">0 0 0 1</color>
            </emission>
            <diffuse>
              <color sid="diffuse">0.4006553 0.5122455 0.5596004 1</color>
            </diffuse>
            <reflectivity>
              <float sid="specular">0.5</float>
            </reflectivity>
            <index_of_refraction>
              <float sid="ior">1.45</float>
            </index_of_refraction>
          </lambert>
        </technique>
      </profile_COMMON>
    </effect>
    <effect id="Material_001-effect">
      <profile_COMMON>
        <technique sid="common">
          <lambert>
            <emission>
              <color sid="emission">0 0 0 1</color>
            </emission>
            <diffuse>
              <color sid="diffuse">0.8 0.8 0.8 1</color>
            </diffuse>
            <reflectivity>
              <float sid="specular">0.5</float>
            </reflectivity>
            <index_of_refraction>
              <float sid="ior">1.45</float>
            </index_of_refraction>
          </lambert>
        </technique>
      </profile_COMMON>
    </effect>
  </library_effects>
  <library_images/>
  <library_materials>
    <material id="black_001-material" name="black.001">
      <instance_effect url="#black_001-effect"/>
    </material>
    <material id="base_003-material" name="base.003">
      <instance_effect url="#base_003-effect"/>
    </material>
    <material id="lidar_cover_003-material" name="lidar_cover.003">
      <instance_effect url="#lidar_cover_003-effect"/>
    </material>
    <material id="button_003-material" name="button.003">
      <instance_effect url="#button_003-effect"/>
    </material>
    <material id="bag_003-material" name="bag.003">
      <instance_effect url="#bag_003-effect"/>
    </material>
    <material id="mop_003-material" name="mop.003">
      <instance_effect url="#mop_003-effect"/>
    </material>
    <material id="Material_001-material" name="Material.001">
      <instance_effect url="#Material_001-effect"/>
    </material>
  </library_materials>
  <library_geometries>
    <geometry id="Cylinder_018-mesh" name="Cylinder.018">
      <mesh>
        <source id="Cylinder_018-mesh-positions">
          <float_array id="Cylinder_018-mesh-positions-array" count="408">-0.03334748 0.06349033 0.03163611 -0.03499567 0.06549823 0.0315265 0.05546832 -0.04473197 0.03163611 0.05711627 -0.04673975 0.0315265 0.05874836 -0.04872834 0.03119862 0.06034839 -0.05067849 0.03065556 0.0619024 -0.05257105 0.02990245 0.06339335 -0.05438846 0.02894699 0.06480836 -0.05611264 0.02779781 0.06613337 -0.05772739 0.02646642 0.06735634 -0.05921685 0.02496552 0.06846439 -0.06056708 0.02330935 0.06944632 -0.06176435 0.02151417 0.07029533 -0.06279796 0.01959723 0.07100033 -0.06365758 0.01757675 0.07155632 -0.06433486 0.01547241 0.07195734 -0.06482326 0.01330429 0.07219934 -0.06511819 0.01109331 0.0722804 -0.06521677 0.008861064 0.0722804 -0.06521677 -0.009474039 0.07219934 -0.06511819 -0.01170635 0.07195734 -0.06482326 -0.01391708 0.07155632 -0.06433486 -0.0160852 0.07100033 -0.06365758 -0.0181896 0.07029533 -0.06279796 -0.02021002 0.06944632 -0.06176435 -0.02212721 0.06846439 -0.06056708 -0.02392244 0.06735634 -0.05921685 -0.02557837 0.06613337 -0.05772739 -0.02707946 0.06480836 -0.05611264 -0.02841085 0.06339335 -0.05438846 -0.02955991 0.0619024 -0.05257105 -0.03051555 0.06034839 -0.05067849 -0.03126835 0.05874836 -0.04872834 -0.03181153 0.05711627 -0.04673975 -0.03213948 0.05546832 -0.04473197 -0.03224915 -0.03334748 0.06349033 -0.03224915 -0.03499567 0.06549823 -0.03213948 -0.03662765 0.0674867 -0.03181153 -0.03822755 0.06943672 -0.03126835 -0.03978049 0.07132953 -0.03051555 -0.04127264 0.07314682 -0.02955991 -0.04268765 0.07487112 -0.02841085 -0.04401254 0.07648569 -0.02707946 -0.04523456 0.07797521 -0.02557837 -0.04634261 0.07932543 -0.02392244 -0.04732561 0.08052283 -0.02212721 -0.04817354 0.08155632 -0.02021002 -0.04887962 0.08241593 -0.0181896 -0.04943549 0.08309322 -0.0160852 -0.04983556 0.0835815 -0.01391708 -0.05007755 0.0838766 -0.01170635 -0.05015856 0.08397519 -0.009474039 -0.05007755 0.0838766 0.01109331 -0.04983556 0.0835815 0.01330429 -0.04943549 0.08309322 0.01547241 -0.04887962 0.08241593 0.01757675 -0.04817354 0.08155632 0.01959723 -0.04732561 0.08052283 0.02151417 -0.04634261 0.07932543 0.02330935 -0.04523456 0.07797521 0.02496552 -0.04401254 0.07648569 0.02646642 -0.04268765 0.07487112 0.02779781 -0.04127264 0.07314682 0.02894699 -0.04009246 0.07170981 0.0297026 -0.03978049 0.07132953 0.02990245 -0.03822755 0.06943672 0.03065556 -0.03662765 0.0674867 0.03119862 -0.05576467 0.04509294 0.03163611 -0.05741262 0.04710078 0.0315265 0.03305137 -0.06312936 0.03163611 0.03469932 -0.06513738 0.0315265 0.03633141 -0.06712591 0.03119862 0.03793132 -0.06907588 0.03065556 0.03948438 -0.07096868 0.02990245 0.0409764 -0.07278591 0.02894699 0.0423913 -0.07451021 0.02779781 0.04371631 -0.07612496 0.02646642 0.0449382 -0.07761448 0.02496552 0.04604625 -0.07896447 0.02330935 0.04702925 -0.08016198 0.02151417 0.04787743 -0.08119547 0.01959723 0.04858326 -0.08205497 0.01757675 0.0491383 -0.08273231 0.01547241 0.0495392 -0.08322072 0.01330429 0.04978132 -0.0835157 0.01109331 0.04986238 -0.08361428 0.008861064 0.04986238 -0.08361428 -0.009474039 0.04978132 -0.0835157 -0.01170635 0.0495392 -0.08322072 -0.01391708 0.0491383 -0.08273231 -0.0160852 0.04858326 -0.08205497 -0.0181896 0.04787743 -0.08119547 -0.02021002 0.04702925 -0.08016198 -0.02212721 0.04604625 -0.07896447 -0.02392244 0.0449382 -0.07761448 -0.02557837 0.04371631 -0.07612496 -0.02707946 0.0423913 -0.07451021 -0.02841091 0.0409764 -0.07278591 -0.02955991 0.03948438 -0.07096868 -0.03051555 0.03793132 -0.06907588 -0.03126835 0.03633141 -0.06712591 -0.03181153 0.03469932 -0.06513738 -0.03213948 0.03305137 -0.06312936 -0.03224915 -0.05576467 0.04509294 -0.03224915 -0.05741262 0.04710078 -0.03213948 -0.05904448 0.04908931 -0.03181153 -0.0606445 0.05103909 -0.03126835 -0.06219851 0.05293208 -0.03051555 -0.06368958 0.05474931 -0.02955991 -0.0651046 0.05647373 -0.02841091 -0.06642961 0.0580883 -0.02707946 -0.06765258 0.05957782 -0.02557837 -0.06876063 0.0609278 -0.02392244 -0.06974267 0.06212538 -0.02212721 -0.07059156 0.06315892 -0.02021002 -0.07129657 0.06401842 -0.0181896 -0.07185256 0.06469571 -0.0160852 -0.07225358 0.06518411 -0.01391708 -0.07249557 0.06547909 -0.01170635 -0.07257664 0.0655778 -0.009474039 -0.07249557 0.06547909 0.01109331 -0.07225358 0.06518411 0.01330429 -0.07185256 0.06469571 0.01547241 -0.07129657 0.06401842 0.01757675 -0.07059156 0.06315892 0.01959723 -0.06974267 0.06212538 0.02151417 -0.06876063 0.0609278 0.02330935 -0.06765258 0.05957782 0.02496552 -0.06642961 0.0580883 0.02646642 -0.0651046 0.05647373 0.02779781 -0.06368958 0.05474931 0.02894699 -0.0625106 0.0533123 0.0297026 -0.06219851 0.05293208 0.02990245 -0.0606445 0.05103909 0.03065556 -0.05904448 0.04908931 0.03119862</float_array>
          <technique_common>
            <accessor source="#Cylinder_018-mesh-positions-array" count="136" stride="3">
              <param name="X" type="float"/>
              <param name="Y" type="float"/>
              <param name="Z" type="float"/>
            </accessor>
          </technique_common>
        </source>
        <source id="Cylinder_018-mesh-normals">
          <float_array id="Cylinder_018-mesh-normals-array" count="1053">0.773019 0.6343829 0 -0.7728274 -0.6346164 3.85887e-5 -0.02676135 0.03260761 0.99911 0 0 1 0.02675992 -0.03260707 0.9991101 0.08020752 -0.097732 0.9919754 0.1335272 -0.1627012 0.9775985 0.1864941 -0.2272492 0.9558126 0.2388923 -0.291087 0.9263902 0.2905383 -0.354016 0.8889659 0.3409907 -0.4154907 0.8432633 0.3898761 -0.4750775 0.7888588 0.4364874 -0.5318803 0.7256598 0.480382 -0.585333 0.6531604 0.5202639 -0.633955 0.5722121 0.5557594 -0.6771875 0.4822328 0.5856392 -0.7136225 0.3844081 0.6090429 -0.7421441 0.2798017 0.6251447 -0.7617612 0.1700418 0.6333489 -0.7717581 0.05708378 0.6343835 -0.7730186 0 0.6333495 -0.7717583 -0.05707639 0.625138 -0.761757 -0.1700846 0.6090397 -0.742138 -0.2798247 0.5857083 -0.7136795 -0.3841971 0.5855681 -0.7135084 -0.3847281 0.5557964 -0.6772549 -0.4820957 0.5203659 -0.6340542 -0.5720093 0.4802631 -0.5852222 -0.653347 0.4364891 -0.5318776 -0.7256608 0.389822 -0.474992 -0.788937 0.3409889 -0.4154857 -0.8432664 0.290516 -0.3539872 -0.8889846 0.2388617 -0.2910609 -0.9264063 0.1864221 -0.2271545 -0.9558492 0.1335349 -0.1627079 -0.9775964 0.08022338 -0.09775167 -0.9919723 0.02675831 -0.03260576 -0.9991101 0 0 -1 -0.02676177 0.03260552 -0.99911 -0.08022999 0.0977559 -0.9919713 -0.1335378 0.1627134 -0.9775951 -0.1864041 0.2271386 -0.9558565 -0.2388601 0.2910454 -0.9264116 -0.2905033 0.3539757 -0.8889934 -0.3410083 0.4155144 -0.8432445 -0.3898021 0.4749922 -0.7889467 -0.436466 0.5318489 -0.7256956 -0.4803558 0.5853084 -0.6532016 -0.5202812 0.6339839 -0.5721644 -0.5557402 0.6771558 -0.4822996 -0.5856571 0.7136121 -0.3844004 -0.6090386 0.7421388 -0.2798251 -0.6251361 0.7617496 -0.1701249 -0.6333464 0.7717626 -0.05705147 -0.6343719 0.7730032 0.006209909 -0.6251404 0.7617607 0.1700592 -0.6091116 0.7421916 0.2795262 -0.5856583 0.7136106 0.3844013 -0.5558099 0.6772763 0.4820501 -0.5203611 0.6340544 0.5720136 -0.4802709 0.5852249 0.6533389 -0.4365019 0.5318968 0.725639 -0.3898835 0.4750692 0.78886 -0.3410017 0.4155072 0.8432506 -0.2905352 0.3540109 0.8889689 -0.2388955 0.2911041 0.9263841 -0.2388498 0.2910516 0.9264124 -0.1865041 0.2272508 0.9558104 -0.1335291 0.1627031 0.9775979 -0.08021253 0.09773695 0.9919745 0.773094 0.6342915 1.04838e-4 0.7727647 0.6346928 -1.80147e-4 0.7730196 0.6343823 1.52433e-5 0.7730208 0.6343809 -8.02079e-5 0.7730746 0.6343152 -3.55538e-5 0.7730207 0.6343808 -8.02663e-5 0.773369 0.6339562 7.50144e-5 0.773369 0.6339562 7.52582e-5 0.773369 0.6339562 7.51391e-5 0.773105 0.6342781 4.53113e-5 0.7730467 0.6343491 1.77913e-5 0.773105 0.6342781 4.52958e-5 0.7719334 0.6357035 -1.05848e-4 0.7719334 0.6357035 -1.057e-4 0.7719334 0.6357035 -1.05734e-4 0.7733958 0.6339236 8.14574e-5 0.7729987 0.6344077 0 0.773103 0.6342805 -5.97991e-5 0.7728083 0.6346396 2.49386e-4 0.773052 0.6343427 -3.73795e-5 0.7730815 0.6343067 -8.92041e-6 0.7730815 0.6343067 -8.93266e-6 0.7730815 0.6343067 -8.98637e-6 0.7729478 0.6344697 -1.71608e-5 0.772775 0.6346802 3.77657e-5 0.7727453 0.6347163 4.84523e-5 0.7727749 0.6346802 3.75412e-5 0.7730858 0.6343016 -3.52209e-5 0.7730566 0.6343373 -2.20337e-5 0.7730858 0.6343016 -3.54056e-5 0.7731174 0.634263 -1.91813e-5 0.7731173 0.6342631 -1.91772e-5 0.7731711 0.6341975 -6.37589e-5 0.7730222 0.634379 -1.52425e-5 0.7727655 0.6346917 1.77151e-4 0.773094 0.6342915 -1.04838e-4 0.7730294 0.6343703 -4.461e-5 0.7728884 0.6345421 5.5026e-6 0.7728328 0.6346098 4.43764e-5 0.7728884 0.6345421 5.41352e-6 0.7731018 0.6342819 -1.50847e-4 0.7730008 0.6344051 0 0.7729713 0.6344411 5.17371e-5 0.7730102 0.6343938 0 0.7729705 0.634442 -5.17371e-5 0.7729508 0.634466 -1.24162e-4 0.7729908 0.6344174 -5.99765e-5 0.7730973 0.6342874 1.01436e-4 0.7731288 0.6342492 1.42547e-4 0.7731705 0.6341984 9.0938e-5 0.7731705 0.6341984 9.10066e-5 0.7730655 0.6343264 -5.78957e-6 0.7730267 0.6343737 -8.11043e-6 0.773027 0.6343732 -9.75336e-6 0.7731946 0.634169 1.38187e-4 0.7732479 0.6341038 4.16292e-5 0.7732478 0.634104 4.27483e-5 0.7733387 0.633993 5.29391e-5 0.772816 0.6346303 -1.28122e-4 0.7731027 0.6342809 3.48391e-5 0.772731 0.6347338 -7.17348e-5 0.772731 0.6347338 -7.17327e-5 0.772731 0.6347338 -7.17258e-5 0.7726861 0.6347885 -1.84422e-4 0.7732571 0.6340928 -2.85834e-5 0.7731972 0.6341657 -4.55211e-5 0.7731973 0.6341657 -4.55374e-5 0.7727538 0.634706 -1.46208e-5 0.7727538 0.634706 -1.46938e-5 0.7726626 0.6348169 -2.34642e-5 0.7730207 0.6343808 -1.72535e-6 0.773234 0.6341209 -1.70982e-5 0.7731394 0.6342362 -6.1838e-5 0.7730386 0.6343592 4.53091e-5 0.7731395 0.6342362 -6.17958e-5 0.7731233 0.6342558 1.84666e-4 0.7731233 0.6342558 1.8445e-4 0.7731232 0.6342558 1.84272e-4 0.7727503 0.6347102 -9.42845e-6 0.77288 0.6345522 -1.3447e-4 0.7728543 0.6345836 -1.08937e-4 0.7731029 0.6342808 -4.14685e-5 0.772781 0.6346729 1.88082e-4 0.773029 0.6343709 -1.50706e-5 0.7726557 0.6348253 9.87662e-5 0.7726557 0.6348253 9.87014e-5 0.7726557 0.6348253 9.87751e-5 0.7730234 0.6343775 1.20144e-5 0.7730291 0.6343706 1.46287e-5 0.7727715 0.6346824 -0.001596152 0.772777 0.6346759 -0.001548886 0.7727769 0.6346761 -0.001548767 0.7731038 0.6342797 -1.12854e-4 0.772985 0.6344244 6.76115e-5 0.7729521 0.6344646 1.38393e-4 0.7730101 0.6343937 0 0.7730016 0.6344043 0 0.7731046 0.6342785 1.50843e-4 0.7728053 0.6346433 -2.49406e-4 0.7731626 0.6342079 1.89262e-4 0.7730335 0.6343653 4.25836e-5 0.7728881 0.6345422 -1.60758e-6 0.7729985 0.634408 0 0.772906 0.6345206 1.25424e-4 0.772906 0.6345207 1.25456e-4 0.7731415 0.6342338 -1.7807e-4 -0.7732136 -0.6341458 -1.62215e-4 -0.773082 -0.6343061 -5.3637e-5 -0.7730526 -0.6343419 -2.02773e-5 -0.7728042 -0.6346446 2.47672e-4 -0.7728155 -0.6346309 8.33149e-5 -0.7730954 -0.6342898 -1.03945e-4 -0.7728154 -0.6346309 8.32732e-5 -0.7731038 -0.6342795 -1.19642e-4 -0.772975 -0.6344366 7.38109e-5 -0.7730089 -0.6343952 2.06939e-5 -0.7730095 -0.6343946 0 -0.7729791 -0.6344315 -4.84408e-5 -0.7729793 -0.6344313 4.13901e-5 -0.7730144 -0.6343886 2.60044e-5 -0.7730571 -0.6343365 8.31605e-5 -0.773032 -0.6343633 0.002240836 -0.7730323 -0.6343629 0.002240657 -0.7730323 -0.6343627 0.002240419 -0.7731564 -0.6342154 2.05155e-4 -0.7730693 -0.6343216 7.80187e-5 -0.773043 -0.6343536 5.70689e-5 -0.7727532 -0.6347067 -2.2099e-4 -0.7729386 -0.6344809 -5.58828e-5 -0.773018 -0.6343842 1.49804e-5 -0.7729529 -0.6344634 -5.27555e-5 -0.7728988 -0.6345294 3.8002e-6 -0.7728988 -0.6345294 3.8399e-6 -0.7728987 -0.6345294 3.93594e-6 -0.773068 -0.6343232 -1.51821e-5 -0.773039 -0.6343585 -2.95631e-5 -0.7730391 -0.6343585 -2.9681e-5 -0.7728219 -0.6346231 5.47646e-5 -0.7728219 -0.6346231 5.46314e-5 -0.7728219 -0.634623 5.44766e-5 -0.7733981 -0.6339206 3.56844e-5 -0.7733981 -0.6339206 3.56911e-5 -0.7733982 -0.6339206 3.56712e-5 -0.7726705 -0.6348074 -1.1953e-4 -0.7730038 -0.6344015 2.37233e-6 -0.7723035 -0.6352539 -5.10363e-5 -0.7723035 -0.6352539 -5.08081e-5 -0.7723035 -0.6352538 -5.09969e-5 -0.7739497 -0.6332472 4.56409e-6 -0.7739194 -0.6332842 9.93983e-7 -0.7739194 -0.6332842 7.22677e-7 -0.7733511 -0.6339781 -1.50379e-4 -0.7729038 -0.6345233 -1.90609e-5 -0.7728475 -0.6345918 1.77176e-5 -0.7728476 -0.6345918 1.77822e-5 -0.7729978 -0.6344087 -1.6187e-5 -0.7729979 -0.6344088 -1.62274e-5 -0.7730548 -0.6343392 -4.96438e-5 -0.7735001 -0.6337963 -2.4925e-5 -0.7733789 -0.6339442 -1.17816e-5 -0.7735001 -0.6337963 -2.50256e-5 -0.7727878 -0.6346646 1.71141e-4 -0.7727366 -0.634727 5.13965e-6 -0.7727366 -0.634727 5.23517e-6 -0.7727366 -0.634727 5.13326e-6 -0.7728959 -0.6345328 3.29104e-4 -0.7728959 -0.6345329 3.29079e-4 -0.7730655 -0.6343263 -6.89362e-5 -0.7731274 -0.6342509 -1.47979e-4 -0.7728747 -0.6345588 1.66236e-4 -0.7730517 -0.6343432 -7.8032e-5 -0.7730218 -0.6343796 -2.53748e-5 -0.7730089 -0.6343952 -2.06939e-5 -0.7730203 -0.6343815 0 -0.7729765 -0.6344347 -7.38133e-5 -0.7731018 -0.6342821 1.19646e-4 -0.7730955 -0.6342896 1.03937e-4 -0.7728084 -0.6346394 -2.47686e-4 -0.7730519 -0.6343429 2.02761e-5 -0.7730838 -0.634304 5.36385e-5 -0.7732147 -0.6341444 1.62221e-4 -0.772949 -0.6344682 -3.43005e-5 -0.7730858 -0.6343015 -5.62067e-5 -0.7728737 -0.6345599 -8.54064e-5 -0.7730859 -0.6343015 -5.62179e-5 -0.7730149 -0.6343879 -3.4835e-6 -0.7732834 -0.6340608 3.61288e-5 -0.773313 -0.6340246 4.68931e-5 -0.773313 -0.6340246 4.67803e-5 -0.7729453 -0.6344728 -1.07621e-5 -0.7729453 -0.6344728 -1.06288e-5 -0.7729453 -0.6344728 -1.08551e-5 -0.7728121 -0.6346349 -7.02538e-5 -0.7728774 -0.6345554 2.85052e-5 -0.7728773 -0.6345555 2.84777e-5 -0.7728775 -0.6345555 2.84332e-5 -0.7730203 -0.6343814 0 -0.7733634 -0.6339631 -8.30229e-5 -0.7729944 -0.634413 -2.98977e-5 -0.7732914 -0.634051 -1.37812e-5 -0.7732912 -0.634051 -1.37656e-5 -0.7732914 -0.634051 -1.37394e-5 -0.7731864 -0.6341789 -9.69038e-5 -0.7730994 -0.634285 -5.39355e-5 -0.7731864 -0.634179 -9.69434e-5 -0.7730157 -0.6343868 6.96654e-6 -0.7728762 -0.634557 8.54047e-5 -0.7729542 -0.6344619 3.43027e-5 -0.7730015 -0.6344041 0 -0.7728911 -0.6345388 -1.64088e-4 -0.02675873 0.03260552 0.9991101 0 0 1 0.02676081 -0.03260576 0.9991101 0.08020836 -0.09773248 0.9919753 0.1335185 -0.1626904 0.9776015 0.1864651 -0.2272064 0.9558285 0.2388372 -0.2910295 0.9264225 0.2905406 -0.3540161 0.888965 0.3409859 -0.4154872 0.8432669 0.3898113 -0.4749783 0.7889505 0.4365071 -0.5318992 0.7256341 0.480255 -0.5852144 0.65336 0.5203545 -0.6340401 0.5720353 0.555801 -0.6772591 0.4820846 0.5857064 -0.7136762 0.3842061 0.6090397 -0.742138 0.2798247 0.6251394 -0.7617582 0.1700747 0.6333496 -0.7717581 0.05707657 0.6343832 -0.7730188 0 0.6333491 -0.771758 -0.0570836 0.6251435 -0.7617599 -0.1700516 0.6090431 -0.7421439 -0.2798016 0.5856418 -0.7136255 -0.3843988 0.5557567 -0.6771823 -0.4822434 0.5202752 -0.6339694 -0.5721858 0.4801816 -0.5851058 -0.6535112 0.4803875 -0.5853419 -0.6531484 0.4364694 -0.5318585 -0.7256867 0.3898868 -0.475091 -0.7888451 0.341001 -0.4155042 -0.8432525 0.2905286 -0.3540002 -0.8889753 0.2389181 -0.2911181 -0.9263738 0.1864524 -0.2271974 -0.9558331 0.13354 -0.1627188 -0.9775938 0.08022427 -0.09775114 -0.9919723 0.02676147 -0.03260707 -0.9991099 0 0 -1 -0.0267592 0.03260761 -0.99911 -0.08022642 0.09775614 -0.9919715 -0.1335436 0.1627207 -0.977593 -0.1864611 0.2271988 -0.9558311 -0.2389122 0.2911254 -0.9263731 -0.2905209 0.3539967 -0.8889792 -0.341013 0.4155212 -0.8432392 -0.3898954 0.4750828 -0.7888459 -0.4364845 0.5318748 -0.7256656 -0.4802784 0.5852329 -0.6533262 -0.5203732 0.6340681 -0.5719872 -0.5558055 0.6772722 -0.4820611 -0.5856597 0.7136143 -0.3843924 -0.6091116 0.7421916 -0.2795262 -0.6251394 0.7617594 -0.170069 -0.6333486 0.7717556 -0.05712324 -0.6343678 0.7730066 0.006202101 -0.6251378 0.7617505 0.170115 -0.6090382 0.742139 0.2798252 -0.5856543 0.7136093 0.3844097 -0.5557428 0.6771612 0.482289 -0.5202704 0.6339693 0.5721903 -0.4803497 0.5852997 0.6532139 -0.480134 0.585072 0.6535764 -0.4364849 0.5318703 0.7256687 -0.3897917 0.4749784 0.78896 -0.3410083 0.4155144 0.8432445 -0.2905278 0.3540036 0.8889742 -0.2388255 0.2910048 0.9264334 -0.2388637 0.2910606 0.9264059 -0.1864444 0.2271906 0.9558363 -0.1335244 0.1626957 0.9775998 -0.08021169 0.09773677 0.9919746</float_array>
          <technique_common>
            <accessor source="#Cylinder_018-mesh-normals-array" count="351" stride="3">
              <param name="X" type="float"/>
              <param name="Y" type="float"/>
              <param name="Z" type="float"/>
            </accessor>
          </technique_common>
        </source>
        <source id="Cylinder_018-mesh-map-0">
          <float_array id="Cylinder_018-mesh-map-0-array" count="1608">0 0 0 0 0 0 0 0 0 0 0 0 0 0 0 0 0 0 0 0 0 0 0 0 0 0 0 0 0 0 0 0 0 0 0 0 0 0 0 0 0 0 0 0 0 0 0 0 0 0 0 0 0 0 0 0 0 0 0 0 0 0 0 0 0 0 0 0 0 0 0 0 0 0 0 0 0 0 0 0 0 0 0 0 0 0 0 0 0 0 0 0 0 0 0 0 0 0 0 0 0 0 0 0 0 0 0 0 0 0 0 0 0 0 0 0 0 0 0 0 0 0 0 0 0 0 0 0 0 0 0 0 0 0 0 0 0 0 0 0 0 0 0 0 0 0 0 0 0 0 0 0 0 0 0 0 0 0 0 0 0 0 0 0 0 0 0 0 0 0 0 0 0 0 0 0 0 0 0 0 0 0 0 0 0 0 0 0 0 0 0 0 0 0 0 0 0 0 0 0 0 0 0 0 0 0 0 0 0 0 0 0 0 0 0 0 0 0 0 0 0 0 0 0 0 0 0 0 0 0 0 0 0 0 0 0 0 0 0 0 0 0 0 0 0 0 0 0 0 0 0 0 0 0 0 0 0 0 0 0 0 0 0 0 0 0 0 0 0 0 0 0 0 0 0 0 0 0 0 0 0 0 0 0 0 0 0 0 0 0 0 0 0 0 0 0 0 0 0 0 0 0 0 0 0 0 0 0 0 0 0 0 0 0 0 0 0 0 0 0 0 0 0 0 0 0 0 0 0 0 0 0 0 0 0 0 0 0 0 0 0 0 0 0 0 0 0 0 0 0 0 0 0 0 0 0 0 0 0 0 0 0 0 0 0 0 0 0 0 0 0 0 0 0 0 0 0 0 0 0 0 0 0 0 0 0 0 0 0 0 0 0 0 0 0 0 0 0 0 0 0 0 0 0 0 0 0 0 0 0 0 0 0 0 0 0 0 0 0 0 0 0 0 0 0 0 0 0 0 0 0 0 0 0 0 0 0 0 0 0 0 0 0 0 0 0 0 0 0 0 0 0 0 0 0 0 0 0 0 0 0 0 0 0 0 0 0 0 0 0 0 0 0 0 0 0 0 0 0 0 0 0 0 0 0 0 0 0 0 0 0 0 0 0 0 0 0 0 0 0 0 0 0 0 0 0 0 0 0 0 0 0 0 0 0 0 0 0 0 0 0 0 0 0 0 0 0 0 0 0 0 0 0 0 0 0 0 0 0 0 0 0 0 0 0 0 0 0 0 0 0 0 0 0 0 0 0 0 0 0 0 0 0 0 0 0 0 0 0 0 0 0 0 0 0 0 0 0 0 0 0 0 0 0 0 0 0 0 0 0 0 0 0 0 0 0 0 0 0 0 0 0 0 0 0 0 0 0 0 0 0 0 0 0 0 0 0 0 0 0 0 0 0 0 0 0 0 0 0 0 0 0 0 0 0 0 0 0 0 0 0 0 0 0 0 0 0 0 0 0 0 0 0 0 0 0 0 0 0 0 0 0 0 0 0 0 0 0 0 0 0 0 0 0 0 0 0 0 0 0 0 0 0 0 0 0 0 0 0 0 0 0 0 0 0 0 0 0 0 0 0 0 0 0 0 0 0 0 0 0 0 0 0 0 0 0 0 0 0 0 0 0 0 0 0 0 0 0 0 0 0 0 0 0 0 0 0 0 0 0 0 0 0 0 0 0 0 0 0 0 0 0 0 0 0 0 0 0 0 0 0 0 0 0 0 0 0 0 0 0 0 0 0 0 0 0 0 0 0 0 0 0 0 0 0 0 0 0 0 0 0 0 0 0 0 0 0 0 0 0 0 0 0 0 0 0 0 0 0 0 0 0 0 0 0 0 0 0 0 0 0 0 0 0 0 0 0 0 0 0 0 0 0 0 0 0 0 0 0 0 0 0 0 0 0 0 0 0 0 0 0 0 0 0 0 0 0 0 0 0 0 0 0 0 0 0 0 0 0 0 0 0 0 0 0 0 0 0 0 0 0 0 0 0 0 0 0 0 0 0 0 0 0 0 0 0 0 0 0 0 0 0 0 0 0 0 0 0 0 0 0 0 0 0 0 0 0 0 0 0 0 0 0 0 0 0 0 0 0 0 0 0 0 0 0 0 0 0 0 0 0 0 0 0 0 0 0 0 0 0 0 0 0 0 0 0 0 0 0 0 0 0 0 0 0 0 0 0 0 0 0 0 0 0 0 0 0 0 0 0 0 0 0 0 0 0 0 0 0 0 0 0 0 0 0 0 0 0 0 0 0 0 0 0 0 0 0 0 0 0 0 0 0 0 0 0 0 0 0 0 0 0 0 0 0 0 0 0 0 0 0 0 0 0 0 0 0 0 0 0 0 0 0 0 0 0 0 0 0 0 0 0 0 0 0 0 0 0 0 0 0 0 0 0 0 0 0 0 0 0 0 0 0 0 0 0 0 0 0 0 0 0 0 0 0 0 0 0 0 0 0 0 0 0 0 0 0 0 0 0 0 0 0 0 0 0 0 0 0 0 0 0 0 0 0 0 0 0 0 0 0 0 0 0 0 0 0 0 0 0 0 0 0 0 0 0 0 0 0 0 0 0 0 0 0 0 0 0 0 0 0 0 0 0 0 0 0 0 0 0 0 0 0 0 0 0 0 0 0 0 0 0 0 0 0 0 0 0 0 0 0 0 0 0 0 0 0 0 0 0 0 0 0 0 0 0 0 0 0 0 0 0 0 0 0 0 0 0 0 0 0 0 0 0 0 0 0 0 0 0 0 0 0 0 0 0 0 0 0 0 0 0 0 0 0 0 0 0 0 0 0 0 0 0 0 0 0 0 0 0 0 0 0 0 0 0 0 0 0 0 0 0 0 0 0 0 0 0 0 0 0 0 0 0 0 0 0 0 0 0 0 0 0 0 0 0 0 0 0 0 0 0 0 0 0 0 0 0 0 0 0 0 0 0 0 0 0 0 0 0 0 0 0 0 0 0 0 0 0 0 0 0 0 0 0 0 0 0 0 0 0 0 0 0 0 0 0 0 0 0 0 0 0 0 0 0 0 0 0 0 0 0 0 0 0 0 0 0 0 0 0 0 0 0 0 0 0 0 0 0 0 0 0 0 0 0 0 0 0 0 0 0 0 0 0 0 0 0 0 0 0 0 0 0 0 0 0 0 0 0 0 0 0 0 0 0 0 0 0 0 0 0 0 0 0 0 0 0 0 0 0 0 0 0 0 0 0 0 0 0 0 0 0 0 0 0 0 0 0 0 0 0 0 0 0 0 0 0 0 0 0 0 0 0 0 0 0 0 0 0 0 0 0 0 0 0 0 0 0 0 0 0 0 0 0 0 0 0 0 0 0 0 0 0 0 0 0 0 0 0 0 0 0 0 0 0 0 0 0 0 0 0 0 0 0 0 0 0 0 0 0 0 0 0 0 0 0 0 0 0 0 0 0 0 0 0 0 0 0 0 0 0 0 0 0 0 0 0 0 0 0 0 0 0 0 0 0 0 0 0 0 0 0 0 0 0 0 0 0 0 0 0 0 0 0 0 0 0 0 0 0 0 0 0 0 0 0 0 0 0 0 0 0 0 0 0 0 0 0 0 0 0 0 0 0 0 0 0 0 0 0 0 0 0 0 0 0 0</float_array>
          <technique_common>
            <accessor source="#Cylinder_018-mesh-map-0-array" count="804" stride="2">
              <param name="S" type="float"/>
              <param name="T" type="float"/>
            </accessor>
          </technique_common>
        </source>
        <vertices id="Cylinder_018-mesh-vertices">
          <input semantic="POSITION" source="#Cylinder_018-mesh-positions"/>
        </vertices>
        <triangles material="black_001-material" count="268">
          <input semantic="VERTEX" source="#Cylinder_018-mesh-vertices" offset="0"/>
          <input semantic="NORMAL" source="#Cylinder_018-mesh-normals" offset="1"/>
          <input semantic="TEXCOORD" source="#Cylinder_018-mesh-map-0" offset="2" set="0"/>
          <p>0 0 0 36 0 1 52 0 2 120 1 3 118 1 4 116 1 5 0 2 6 69 2 7 68 2 8 2 3 9 68 3 10 70 3 11 2 4 12 71 4 13 3 4 14 3 5 15 72 5 16 4 5 17 5 6 18 72 6 19 73 6 20 6 7 21 73 7 22 74 7 23 6 8 24 75 8 25 7 8 26 7 9 27 76 9 28 8 9 29 9 10 30 76 10 31 77 10 32 10 11 33 77 11 34 78 11 35 10 12 36 79 12 37 11 12 38 11 13 39 80 13 40 12 13 41 12 14 42 81 14 43 13 14 44 14 15 45 81 15 46 82 15 47 14 16 48 83 16 49 15 16 50 16 17 51 83 17 52 84 17 53 16 18 54 85 18 55 17 18 56 17 19 57 86 19 58 18 19 59 19 20 60 86 20 61 87 20 62 20 21 63 87 21 64 88 21 65 21 22 66 88 22 67 89 22 68 21 23 69 90 23 70 22 23 71 23 24 72 90 25 73 91 24 74 23 26 75 92 26 76 24 26 77 25 27 78 92 27 79 93 27 80 26 28 81 93 28 82 94 28 83 27 29 84 94 29 85 95 29 86 27 30 87 96 30 88 28 30 89 28 31 90 97 31 91 29 31 92 30 32 93 97 32 94 98 32 95 31 33 96 98 33 97 99 33 98 31 34 99 100 34 100 32 34 101 32 35 102 101 35 103 33 35 104 34 36 105 101 36 106 102 36 107 35 37 108 102 37 109 103 37 110 35 38 111 104 38 112 36 38 113 36 39 114 105 39 115 37 39 116 37 40 117 106 40 118 38 40 119 38 41 120 107 41 121 39 41 122 40 42 123 107 42 124 108 42 125 40 43 126 109 43 127 41 43 128 42 44 129 109 44 130 110 44 131 42 45 132 111 45 133 43 45 134 44 46 135 111 46 136 112 46 137 44 47 138 113 47 139 45 47 140 46 48 141 113 48 142 114 48 143 47 49 144 114 49 145 115 49 146 47 50 147 116 50 148 48 50 149 49 51 150 116 51 151 117 51 152 50 52 153 117 52 154 118 52 155 50 53 156 119 53 157 51 53 158 51 54 159 120 54 160 52 54 161 53 55 162 120 55 163 121 55 164 54 56 165 121 56 166 122 56 167 54 57 168 123 57 169 55 57 170 55 58 171 124 58 172 56 58 173 57 59 174 124 59 175 125 59 176 57 60 177 126 60 178 58 60 179 58 61 180 127 61 181 59 61 182 60 62 183 127 62 184 128 62 185 60 63 186 129 63 187 61 63 188 62 64 189 129 64 190 130 64 191 62 65 192 131 65 193 63 65 194 64 66 195 131 66 196 132 66 197 64 67 198 133 67 199 65 67 200 65 68 201 134 68 202 66 68 203 67 69 204 134 69 205 135 69 206 1 70 207 135 70 208 69 70 209 8 71 210 9 71 211 18 71 212 9 72 213 10 72 214 18 72 215 10 73 216 11 73 217 18 73 218 11 74 219 12 75 220 18 76 221 12 77 222 13 78 223 18 79 224 13 80 225 14 81 226 18 82 227 14 83 228 15 84 229 16 85 230 16 86 231 17 86 232 18 86 233 18 87 234 19 87 235 35 87 236 19 88 237 20 88 238 22 88 239 32 89 240 19 90 241 31 89 242 20 91 243 21 92 244 22 93 245 22 94 246 23 94 247 19 94 248 23 95 249 24 96 250 19 97 251 24 98 252 25 99 253 19 100 254 25 101 255 26 102 256 19 103 257 26 104 258 27 104 259 19 104 260 27 105 261 28 105 262 19 105 263 28 106 264 29 106 265 19 106 266 29 107 267 30 107 268 19 107 269 30 108 270 31 109 271 19 110 272 32 111 273 33 111 274 19 111 275 33 112 276 34 112 277 19 112 278 34 113 279 35 113 280 19 113 281 35 114 282 36 114 283 2 114 284 18 115 285 2 115 286 3 115 287 36 116 288 37 116 289 52 116 290 37 117 291 38 117 292 52 117 293 38 118 294 39 118 295 52 118 296 39 119 297 40 119 298 52 119 299 40 120 300 41 121 301 52 122 302 41 123 303 42 123 304 52 123 305 42 124 306 43 124 307 52 124 308 43 125 309 44 125 310 52 125 311 44 126 312 45 127 313 52 128 314 45 129 315 46 129 316 52 129 317 46 130 318 47 130 319 52 130 320 47 131 321 48 132 322 52 133 323 48 134 324 49 134 325 52 134 326 49 135 327 50 136 328 52 137 329 50 138 330 51 139 331 52 140 332 52 141 333 53 141 334 0 141 335 53 142 336 54 142 337 56 142 338 64 143 339 53 144 340 63 145 341 54 146 342 55 147 343 56 148 344 56 149 345 57 150 346 53 151 347 57 152 348 58 152 349 53 152 350 58 153 351 59 153 352 53 153 353 59 154 354 60 154 355 53 154 356 60 155 357 61 156 358 53 157 359 61 158 360 62 158 361 53 158 362 62 159 363 63 159 364 53 159 365 64 160 366 65 161 367 66 162 368 66 163 369 67 163 370 53 163 371 67 164 372 1 164 373 53 164 374 1 165 375 0 165 376 53 165 377 0 166 378 2 166 379 36 166 380 3 167 381 4 167 382 18 167 383 4 168 384 5 168 385 18 168 386 5 169 387 6 169 388 18 169 389 6 170 390 7 170 391 18 170 392 7 171 393 8 171 394 18 171 395 14 172 396 16 172 397 18 172 398 2 173 399 18 173 400 35 173 401 53 174 402 64 175 403 66 176 404 78 177 405 77 177 406 86 177 407 77 178 408 76 178 409 86 178 410 76 179 411 75 179 412 86 179 413 75 180 414 74 180 415 86 180 416 74 181 417 73 182 418 86 183 419 73 184 420 72 184 421 86 184 422 72 185 423 71 185 424 86 185 425 71 186 426 70 186 427 86 186 428 70 187 429 68 187 430 104 187 431 68 188 432 69 188 433 121 188 434 104 189 435 120 189 436 105 189 437 69 190 438 135 190 439 121 190 440 135 191 441 134 191 442 121 191 443 134 192 444 133 193 445 132 194 446 132 195 447 131 195 448 121 195 449 131 196 450 130 196 451 121 196 452 130 197 453 129 197 454 121 197 455 129 198 456 128 199 457 121 200 458 128 201 459 127 201 460 121 201 461 127 202 462 126 203 463 121 204 464 126 205 465 125 206 466 121 207 467 125 208 468 124 209 469 121 210 470 124 211 471 123 212 472 122 213 473 122 214 474 121 214 475 124 214 476 121 215 477 120 215 478 68 215 479 120 216 480 119 217 481 118 218 482 118 219 483 117 220 484 116 221 485 116 222 486 115 222 487 120 222 488 115 223 489 114 224 490 120 225 491 114 226 492 113 227 493 120 228 494 113 229 495 112 230 496 120 231 497 112 232 498 111 232 499 120 232 500 111 233 501 110 234 502 120 235 503 110 236 504 109 237 505 120 238 506 109 239 507 108 239 508 120 239 509 108 240 510 107 240 511 120 240 512 107 241 513 106 241 514 120 241 515 106 242 516 105 242 517 120 242 518 104 187 519 103 187 520 70 187 521 103 243 522 102 243 523 87 243 524 70 244 525 103 244 526 86 244 527 102 245 528 101 245 529 87 245 530 101 246 531 100 246 532 87 246 533 100 247 534 99 247 535 87 247 536 99 248 537 98 248 538 87 248 539 98 249 540 97 249 541 87 249 542 97 250 543 96 250 544 87 250 545 96 251 546 95 251 547 87 251 548 95 252 549 94 252 550 87 252 551 94 253 552 93 254 553 87 255 554 93 256 555 92 256 556 87 256 557 92 257 558 91 258 559 87 259 560 91 260 561 90 261 562 87 262 563 90 263 564 89 263 565 88 263 566 88 264 567 87 265 568 90 266 569 87 267 570 86 267 571 103 267 572 86 268 573 85 268 574 84 268 575 84 269 576 83 269 577 86 269 578 83 270 579 82 271 580 86 272 581 82 273 582 81 274 583 86 275 584 81 276 585 80 276 586 86 276 587 80 277 588 79 277 589 86 277 590 79 278 591 78 278 592 86 278 593 120 279 594 104 279 595 68 279 596 134 280 597 132 280 598 121 280 599 0 281 600 1 281 601 69 281 602 2 282 603 0 282 604 68 282 605 2 283 606 70 283 607 71 283 608 3 284 609 71 284 610 72 284 611 5 285 612 4 285 613 72 285 614 6 286 615 5 286 616 73 286 617 6 287 618 74 287 619 75 287 620 7 288 621 75 288 622 76 288 623 9 289 624 8 289 625 76 289 626 10 290 627 9 290 628 77 290 629 10 291 630 78 291 631 79 291 632 11 292 633 79 292 634 80 292 635 12 293 636 80 293 637 81 293 638 14 294 639 13 294 640 81 294 641 14 295 642 82 295 643 83 295 644 16 296 645 15 296 646 83 296 647 16 297 648 84 297 649 85 297 650 17 298 651 85 298 652 86 298 653 19 299 654 18 299 655 86 299 656 20 300 657 19 300 658 87 300 659 21 301 660 20 301 661 88 301 662 21 302 663 89 302 664 90 302 665 23 303 666 22 303 667 90 303 668 23 304 669 91 304 670 92 304 671 25 305 672 24 305 673 92 305 674 26 306 675 25 307 676 93 307 677 27 308 678 26 308 679 94 308 680 27 309 681 95 309 682 96 309 683 28 310 684 96 310 685 97 310 686 30 311 687 29 311 688 97 311 689 31 312 690 30 312 691 98 312 692 31 313 693 99 313 694 100 313 695 32 314 696 100 314 697 101 314 698 34 315 699 33 315 700 101 315 701 35 316 702 34 316 703 102 316 704 35 317 705 103 317 706 104 317 707 36 318 708 104 318 709 105 318 710 37 319 711 105 319 712 106 319 713 38 320 714 106 320 715 107 320 716 40 321 717 39 321 718 107 321 719 40 322 720 108 322 721 109 322 722 42 323 723 41 323 724 109 323 725 42 324 726 110 324 727 111 324 728 44 325 729 43 325 730 111 325 731 44 326 732 112 326 733 113 326 734 46 327 735 45 327 736 113 327 737 47 328 738 46 328 739 114 328 740 47 329 741 115 329 742 116 329 743 49 330 744 48 330 745 116 330 746 50 331 747 49 331 748 117 331 749 50 332 750 118 332 751 119 332 752 51 333 753 119 333 754 120 333 755 53 334 756 52 334 757 120 334 758 54 335 759 53 335 760 121 335 761 54 336 762 122 336 763 123 336 764 55 337 765 123 337 766 124 337 767 57 338 768 56 338 769 124 338 770 57 339 771 125 339 772 126 339 773 58 340 774 126 341 775 127 340 776 60 342 777 59 342 778 127 342 779 60 343 780 128 343 781 129 343 782 62 344 783 61 344 784 129 344 785 62 345 786 130 345 787 131 345 788 64 346 789 63 346 790 131 346 791 64 347 792 132 347 793 133 347 794 65 348 795 133 348 796 134 348 797 67 349 798 66 349 799 134 349 800 1 350 801 67 350 802 135 350 803</p>
        </triangles>
      </mesh>
    </geometry>
  </library_geometries>
  <library_visual_scenes>
    <visual_scene id="Scene" name="Scene">
      <node id="ultrasonic_lh" name="ultrasonic_lh" type="NODE">
        <matrix sid="transform">0.1856328 0.1557644 0 0 -0.1557644 0.1856328 0 0 0 0 0.2423264 0 0 0 0 1</matrix>
        <instance_geometry url="#Cylinder_018-mesh" name="ultrasonic_lh">
          <bind_material>
            <technique_common>
              <instance_material symbol="black_001-material" target="#black_001-material">
                <bind_vertex_input semantic="Cylinder_001-mesh-map-0" input_semantic="TEXCOORD" input_set="0"/>
              </instance_material>
              <instance_material symbol="base_003-material" target="#base_003-material">
                <bind_vertex_input semantic="Cylinder_001-mesh-map-0" input_semantic="TEXCOORD" input_set="0"/>
              </instance_material>
              <instance_material symbol="lidar_cover_003-material" target="#lidar_cover_003-material">
                <bind_vertex_input semantic="Cylinder_001-mesh-map-0" input_semantic="TEXCOORD" input_set="0"/>
              </instance_material>
              <instance_material symbol="button_003-material" target="#button_003-material">
                <bind_vertex_input semantic="Cylinder_001-mesh-map-0" input_semantic="TEXCOORD" input_set="0"/>
              </instance_material>
              <instance_material symbol="bag_003-material" target="#bag_003-material">
                <bind_vertex_input semantic="Cylinder_001-mesh-map-0" input_semantic="TEXCOORD" input_set="0"/>
              </instance_material>
              <instance_material symbol="mop_003-material" target="#mop_003-material">
                <bind_vertex_input semantic="Cylinder_001-mesh-map-0" input_semantic="TEXCOORD" input_set="0"/>
              </instance_material>
              <instance_material symbol="Material_001-material" target="#Material_001-material">
                <bind_vertex_input semantic="Cylinder_001-mesh-map-0" input_semantic="TEXCOORD" input_set="0"/>
              </instance_material>
            </technique_common>
          </bind_material>
        </instance_geometry>
      </node>
    </visual_scene>
  </library_visual_scenes>
  <scene>
    <instance_visual_scene url="#Scene"/>
  </scene>
</COLLADA>