<?xml version="1.0" encoding="utf-8"?>
<COLLADA xmlns="http://www.collada.org/2005/11/COLLADASchema" version="1.4.1" xmlns:xsi="http://www.w3.org/2001/XMLSchema-instance">
  <asset>
    <contributor>
      <author>Blender User</author>
      <authoring_tool>Blender 3.6.20 commit date:2025-01-20, commit time:15:08, hash:46254438b9dd</authoring_tool>
    </contributor>
    <created>2025-11-06T12:45:57</created>
    <modified>2025-11-06T12:45:57</modified>
    <unit name="meter" meter="1"/>
    <up_axis>Z_UP</up_axis>
  </asset>
  <library_effects>
    <effect id="Material_001-effect">
      <profile_COMMON>
        <technique sid="common">
          <lambert>
            <emission>
              <color sid="emission">0 0 0 1</color>
            </emission>
            <diffuse>
              <color sid="diffuse">0.1788623 0.1788623 0.1788623 1</color>
            </diffuse>
            <reflectivity>
              <float sid="specular">0.5</float>
            </reflectivity>
            <index_of_refraction>
              <float sid="ior">1.45</float>
            </index_of_refraction>
          </lambert>
        </technique>
      </profile_COMMON>
    </effect>
  </library_effects>
  <library_images/>
  <library_materials>
    <material id="Material_001-material" name="Material.001">
      <instance_effect url="#Material_001-effect"/>
    </material>
  </library_materials>
  <library_geometries>
    <geometry id="Cylinder_002-mesh" name="Cylinder.002">
      <mesh>
        <source id="Cylinder_002-mesh-positions">
          <float_array id="Cylinder_002-mesh-positions-array" count="579">0.01426893 0.1160497 0.05528289 0.01426893 0.11382 0.03264266 0.03690987 0.11382 0.05528289 -0.008370697 0.1138197 0.05528289 -0.03014081 0.1072158 0.05528289 -0.007935702 0.1116328 0.03264266 -0.02928751 0.1051558 0.03264266 -0.006647288 0.1051558 0.01087254 -0.02676028 0.09905463 0.01087254 -0.004555165 0.09463775 -0.009190917 0.01426893 0.107216 0.01087254 0.03518587 0.1051558 0.01087254 0.01426893 0.09649187 -0.009190917 0.03309386 0.09463781 -0.009190917 0.01426893 0.08205956 -0.02677661 0.0302779 0.08048284 -0.02677661 0.01426893 0.06447368 -0.04120898 -0.001739501 0.08048278 -0.02677661 -0.01713341 0.07581317 -0.02677661 0.001691281 0.06323486 -0.04120898 -0.01040357 0.05956596 -0.04120898 0.003566324 0.05380851 -0.04634618 -0.008018791 0.05380851 -0.04453992 0.01426893 0.05380851 -0.04690963 0.02497285 0.05380851 -0.04634618 0.02684789 0.06323492 -0.04120898 0.03655785 0.05380851 -0.04453998 0.03894191 0.05956602 -0.04120898 0.0497139 0.05380851 -0.04120898 0.05022281 0.05380851 -0.04101103 0.05985885 0.06823003 -0.02677661 0.06807786 0.05380851 -0.03167021 0.07229393 0.05802488 -0.02677661 0.07575494 0.05380851 -0.02677661 0.0943349 0.05380851 -0.009190917 0.09479993 0.05380851 -0.008515536 0.08249992 0.06823003 -0.009190917 0.09008282 0.07581317 0.01087254 0.06787687 0.08023005 -0.009190917 0.0738359 0.08914685 0.01087254 0.05119484 0.08914685 -0.009190917 0.05529886 0.09905463 0.01087254 0.04567188 0.07581317 -0.02677661 0.05782586 0.1051558 0.03264266 0.05867987 0.1072161 0.05528289 0.03647488 0.1116328 0.03264266 0.07750385 0.09463781 0.03264266 0.07874292 0.09649187 0.05528289 0.09475189 0.08048284 0.03264266 0.09632891 0.08205956 0.05528289 0.1089069 0.06323492 0.03264266 0.1034159 0.05956602 0.01087254 0.1107608 0.06447374 0.05528289 0.1139459 0.05380851 0.03264266 0.1164619 0.05380851 0.05528289 0.1064938 0.05380851 0.01087254 -0.03953909 0.05380851 0.05528289 -0.03953909 -0.05380851 0.05528289 -0.03953909 0.05380851 -0.03167021 -0.03953909 0.05380851 -0.03167021 -0.03953909 0.0359537 -0.04101103 -0.05396062 0.04558986 -0.02677661 -0.03953909 0.03544437 -0.04120898 -0.04529649 0.02467304 -0.04120898 -0.03953909 0.0222882 -0.04453992 -0.03953909 0.01070314 -0.04634618 -0.04896539 0.01257818 -0.04120898 -0.03953909 0 -0.04690963 -0.05020427 0 -0.04120898 -0.03953909 -0.01070308 -0.04634618 -0.04896551 -0.01257812 -0.04120898 -0.03953909 -0.02228814 -0.04453992 -0.04529649 -0.02467292 -0.04120898 -0.03953909 -0.03544437 -0.04120898 -0.03953909 -0.03595364 -0.04101103 -0.05396062 -0.0455898 -0.02677661 -0.03953909 -0.05380845 -0.03167021 -0.04375547 -0.05802482 -0.02677661 -0.03953909 -0.05380851 -0.03167021 -0.02168428 -0.05380851 -0.04101103 -0.03132039 -0.06822997 -0.02677661 -0.02117496 -0.05380851 -0.04120898 -0.01040357 -0.0595659 -0.04120898 -0.008018791 -0.05380851 -0.04453992 0.003566324 -0.05380851 -0.04634618 0.001691222 -0.06323486 -0.04120898 0.01426893 -0.05380851 -0.04690968 0.01426893 -0.06447368 -0.04120898 0.02497285 -0.05380851 -0.04634618 0.02684789 -0.06323486 -0.04120898 0.03655785 -0.05380851 -0.04453998 0.03894191 -0.05956596 -0.04120898 0.0497139 -0.05380851 -0.04120898 0.05022281 -0.05380851 -0.04101103 0.05985885 -0.06822997 -0.02677661 0.06807786 -0.05380851 -0.03167021 0.07229393 -0.05802482 -0.02677661 0.07575494 -0.05380851 -0.02677661 0.0943349 -0.05380851 -0.009190917 0.08249992 -0.06822997 -0.009190917 0.09479993 -0.05380851 -0.008515536 0.1034159 -0.05956596 0.01087254 0.1064938 -0.05380851 0.01087254 0.1139459 -0.05380851 0.03264266 0.1089069 -0.06323486 0.03264266 0.1164619 -0.05380851 0.05528289 0.1107608 -0.06447374 0.05528289 0.09632891 -0.0820595 0.05528289 0.09475189 -0.08048278 0.03264266 0.07874292 -0.09649181 0.05528289 0.07750385 -0.09463775 0.03264266 0.05867987 -0.1072159 0.05528289 0.05782586 -0.1051559 0.03264266 0.03690987 -0.1138198 0.05528289 0.03647488 -0.1116328 0.03264266 0.01426893 -0.1160497 0.05528289 0.01426893 -0.1138199 0.03264266 -0.008370697 -0.1138198 0.05528289 -0.007935702 -0.1116328 0.03264266 -0.03014087 -0.1072159 0.05528289 -0.02928757 -0.1051558 0.03264266 -0.05020439 -0.09649169 0.05528289 -0.04896551 -0.09463769 0.03264266 -0.06779009 -0.08205944 0.05528289 -0.06621336 -0.08048272 0.03264266 -0.0822224 -0.06447362 0.05528289 -0.08036828 -0.06323486 0.03264266 -0.09294646 -0.04441016 0.05528289 -0.09088647 -0.04355686 0.03264266 -0.09955036 -0.02264004 0.05528289 -0.09736347 -0.02220505 0.03264266 -0.1017801 0 0.05528289 -0.09955036 0 0.03264266 -0.09955036 0.02264016 0.05528289 -0.09736341 0.02220517 0.03264266 -0.09294646 0.04441028 0.05528289 -0.09088641 0.04355698 0.03264266 -0.08222228 0.06447374 0.05528289 -0.08036828 0.06323492 0.03264266 -0.06778997 0.0820595 0.05528289 -0.06621336 0.08048278 0.03264266 -0.05020427 0.09649175 0.05528289 -0.04896539 0.09463775 0.03264266 -0.04529649 0.08914679 0.01087254 -0.0615437 0.07581311 0.01087254 -0.03933846 0.08022999 -0.009190917 -0.0539605 0.06823003 -0.009190917 -0.03132039 0.06823003 -0.02677661 -0.02265638 0.08914679 -0.009190917 -0.04375547 0.05802488 -0.02677661 -0.02168428 0.05380851 -0.04101103 -0.02117496 0.05380851 -0.04120898 -0.06596058 0.053608 -0.009190917 -0.07487738 0.05956596 0.01087254 -0.07487738 0.03692579 -0.009190917 -0.08478522 0.04102975 0.01087254 -0.08036828 0.01882463 -0.009190917 -0.0615437 0.03140282 -0.02677661 -0.06621336 0.01600903 -0.02677661 -0.06779009 0 -0.02677661 -0.0822224 0 -0.009190917 -0.06621336 -0.01600897 -0.02677661 -0.08036828 -0.01882451 -0.009190917 -0.0615437 -0.03140276 -0.02677661 -0.07487738 -0.03692573 -0.009190917 -0.08478522 -0.04102969 0.01087254 -0.06596058 -0.05360788 -0.009190917 -0.07487738 -0.05956596 0.01087254 -0.05396062 -0.06822997 -0.009190917 -0.0615437 -0.07581311 0.01087254 -0.03933858 -0.08022993 -0.009190917 -0.04529649 -0.08914679 0.01087254 -0.02265638 -0.08914679 -0.009190917 -0.02676028 -0.09905457 0.01087254 -0.004555165 -0.09463769 -0.009190917 -0.01713341 -0.07581311 -0.02677661 -0.001739621 -0.08048278 -0.02677661 0.01426893 -0.0820595 -0.02677661 0.01426893 -0.09649175 -0.009190917 0.0302779 -0.08048278 -0.02677661 0.04567188 -0.07581311 -0.02677661 0.03309386 -0.09463769 -0.009190917 0.03518587 -0.1051559 0.01087254 0.05119484 -0.08914679 -0.009190917 0.05529886 -0.09905463 0.01087254 0.06787687 -0.08022999 -0.009190917 0.0738359 -0.08914679 0.01087254 0.09008282 -0.07581311 0.01087254 0.01426893 -0.107216 0.01087254 -0.006647288 -0.1051558 0.01087254 -0.09088641 -0.0209167 0.01087254 -0.09294646 0 0.01087254 -0.09088641 0.02091675 0.01087254</float_array>
          <technique_common>
            <accessor source="#Cylinder_002-mesh-positions-array" count="193" stride="3">
              <param name="X" type="float"/>
              <param name="Y" type="float"/>
              <param name="Z" type="float"/>
            </accessor>
          </technique_common>
        </source>
        <source id="Cylinder_002-mesh-normals">
          <float_array id="Cylinder_002-mesh-normals-array" count="693">-0.1941546 0.9760623 -0.09801197 -3.96683e-6 0.9810152 -0.1939314 -0.1913892 0.9621654 -0.193928 0.1941522 0.976062 -0.09802073 0.1913924 0.9621635 -0.1939343 0 0 1 -0.3808402 0.9194317 -0.09801119 -0.3754192 0.9063401 -0.1939281 -0.1804137 0.9069963 -0.3805375 -0.3538933 0.8543714 -0.380538 -1.83131e-6 0.9247655 -0.3805376 -0.3189061 0.7699052 -0.5527613 -0.1625787 0.8173262 -0.5527622 -2.60394e-6 0.8333393 -0.5527619 0.1804125 0.9069964 -0.3805376 0.1625781 0.8173264 -0.552762 0.1385408 0.6964969 -0.7040587 -2.88632e-6 0.7101415 -0.7040591 -0.1385419 0.6964961 -0.7040593 0.1092089 0.5490222 -0.8286423 -3.67851e-6 0.5597748 -0.8286449 -0.1092079 0.5490195 -0.8286442 -0.271759 0.6560857 -0.7040587 -0.2142152 0.5171629 -0.8286461 -0.1682494 0.4404951 -0.8818483 -0.085446 0.4636237 -0.8819026 0 -1 0 0.0854398 0.4636234 -0.8819034 -2.78851e-6 0.4713931 -0.8819233 0.1682572 0.4405102 -0.8818392 0.2872343 0.5374002 -0.7929045 0.2142202 0.5171744 -0.8286377 0.2717593 0.6560854 -0.7040588 0.3945332 0.5904629 -0.7040576 0.328372 0.5433242 -0.7726388 0.4223443 0.4742322 -0.7724824 0.5658754 0.4644676 -0.6812159 0.5021159 0.5021742 -0.7040602 0.5892527 0.5892614 -0.5527679 0.6539175 0.6539042 -0.3805277 0.768904 0.5137938 -0.3805297 0.6923487 0.5472396 -0.4703003 0.5137662 0.7689204 -0.3805336 0.4629634 0.6928991 -0.552771 0.3538886 0.8543741 -0.3805361 0.3189066 0.7699043 -0.5527621 0.5450196 0.8156878 -0.1939254 0.3754187 0.9063386 -0.193936 0.3808446 0.9194281 -0.098028 0.5528978 0.8274635 -0.09802198 0.6936818 0.6936851 -0.1939243 0.7037023 0.703701 -0.09802132 0.8156763 0.5450365 -0.1939262 0.8195778 0.4381444 -0.3692179 0.8662305 0.4630495 -0.1876968 0.8274613 0.5529031 -0.09801065 0.8777031 0.4691728 -0.09754019 1 0 0 -0.5752422 0.5752437 -0.581542 0.4472674 0.8944003 2.4275e-5 -0.5432667 0.3283477 -0.7726897 -0.5171635 0.2142156 -0.8286458 -0.6560854 0.2717589 -0.704059 -0.5371494 0.2871145 -0.7931179 -0.4404973 0.1682497 -0.8818471 -0.5490198 0.1092079 -0.8286441 -0.4636257 0.08544564 -0.8819016 -0.5597755 1.8668e-6 -0.8286445 -0.4713933 0 -0.8819231 -0.4636228 -0.0854445 -0.8819032 -0.4404959 -0.1682512 -0.8818476 -0.5490195 -0.1092074 -0.8286444 -0.5171627 -0.2142174 -0.8286457 -0.5371977 -0.2871332 -0.7930784 -0.6560855 -0.2717592 -0.7040588 -0.5432776 -0.3283513 -0.7726804 -0.5904617 -0.394533 -0.7040588 -0.3020903 -0.6090639 -0.7333366 -0.5021455 -0.5021462 -0.704059 0.695812 0 0.7182241 -0.328349 -0.5432679 -0.7726882 0 1 0 -0.2717603 -0.656085 -0.7040589 -0.3945336 -0.5904613 -0.7040588 -0.2142165 -0.5171635 -0.8286455 -0.287118 -0.5371542 -0.7931132 -0.1682507 -0.4404971 -0.881847 -0.1092087 -0.5490195 -0.8286443 -0.0854479 -0.4636253 -0.8819016 -2.87503e-6 -0.5597771 -0.8286433 -2.79334e-6 -0.4713997 -0.8819197 0.08544248 -0.4636265 -0.8819014 0.10921 -0.5490231 -0.8286415 0.1682577 -0.4405131 -0.8818377 0.2142199 -0.5171758 -0.8286369 0.2872313 -0.5374069 -0.7929011 0.3283705 -0.5433263 -0.772638 0.4223445 -0.4742343 -0.7724811 0.3945336 -0.5904634 -0.704057 0.502115 -0.5021764 -0.7040594 0.5658736 -0.4644709 -0.6812151 0.5892519 -0.5892621 -0.5527679 0.655125 -0.5376285 -0.5308172 0.6923465 -0.5472399 -0.4703029 0.7689032 -0.5137954 -0.3805291 0.8195763 -0.4381476 -0.3692173 0.815675 -0.5450388 -0.1939251 0.8662296 -0.463051 -0.1876969 0.8274589 -0.552906 -0.09801417 0.8777033 -0.4691728 -0.09754002 0.6936831 -0.6936842 -0.1939228 0.7037038 -0.7036991 -0.09802418 0.5450194 -0.8156883 -0.1939241 0.5528947 -0.8274654 -0.09802341 0.3754206 -0.9063385 -0.1939326 0.380847 -0.9194277 -0.0980224 0.1913899 -0.9621646 -0.1939311 0.1941513 -0.9760626 -0.09801554 -3.03232e-6 -0.9810156 -0.1939291 -3.3279e-6 -0.9951851 -0.09801447 -0.1913891 -0.9621651 -0.1939293 -0.1941524 -0.9760624 -0.09801566 -0.3754183 -0.90634 -0.19393 -0.3808409 -0.9194309 -0.09801536 -0.5450235 -0.8156842 -0.1939294 -0.5528962 -0.8274654 -0.09801512 -0.6936836 -0.6936821 -0.1939285 -0.7037028 -0.7037013 -0.09801542 -0.8156841 -0.5450238 -0.1939294 -0.8274662 -0.552895 -0.09801542 -0.9063401 -0.3754191 -0.1939288 -0.9194319 -0.3808397 -0.09801131 -0.9621663 -0.1913845 -0.1939281 -0.9760634 -0.1941491 -0.09801226 -0.9810158 5.25056e-7 -0.1939285 -0.995185 0 -0.09801441 -0.9621661 0.1913852 -0.1939288 -0.9760631 0.1941499 -0.09801393 -0.90634 0.3754194 -0.1939284 -0.9194309 0.3808418 -0.09801369 -0.8156844 0.5450236 -0.1939285 -0.8274655 0.5528962 -0.09801352 -0.6936822 0.6936836 -0.1939281 -0.7037012 0.7037032 -0.0980128 -0.5450235 0.8156843 -0.1939293 -0.5528964 0.8274652 -0.09801495 -0.5137724 0.7689144 -0.3805373 -0.6539072 0.6539088 -0.3805374 -0.5892585 0.589262 -0.5527612 -0.4629791 0.6928967 -0.552761 -0.3945339 0.5904616 -0.7040583 -0.5021456 0.5021473 -0.7040583 -0.287117 0.5371516 -0.7931154 -0.3284184 0.5432447 -0.7726749 -0.6928966 0.4629791 -0.552761 -0.5904616 0.3945326 -0.7040591 -0.7699056 0.3189045 -0.5527617 -0.7689146 0.5137726 -0.3805365 -0.8173267 0.1625773 -0.5527619 -0.8543719 0.3538925 -0.3805378 -0.6964964 0.1385416 -0.704059 -0.8333397 -1.20644e-6 -0.5527613 -0.7101417 -5.50032e-7 -0.7040589 -0.8173272 -0.1625759 -0.5527618 -0.6964976 -0.1385413 -0.7040579 -0.7699055 -0.3189045 -0.5527619 -0.9069963 -0.1804109 -0.3805388 -0.692897 -0.4629774 -0.5527619 -0.8543719 -0.3538925 -0.3805379 -0.5892603 -0.5892594 -0.552762 -0.7689151 -0.5137718 -0.3805366 -0.4629787 -0.6928962 -0.5527617 -0.653908 -0.6539086 -0.3805365 -0.318905 -0.7699058 -0.5527609 -0.5137711 -0.7689153 -0.3805372 -0.162577 -0.8173273 -0.5527611 -0.3538916 -0.8543723 -0.3805373 -0.1385422 -0.6964967 -0.7040585 -2.04037e-6 -0.8333387 -0.5527626 -1.21643e-6 -0.7101421 -0.7040584 0.1385406 -0.6964973 -0.7040582 0.3189063 -0.769904 -0.5527626 0.2717593 -0.6560857 -0.7040586 0.1625767 -0.8173258 -0.5527634 -3.20059e-6 -0.924765 -0.3805388 0.1804122 -0.9069961 -0.3805385 0.4629636 -0.6928989 -0.5527712 0.35389 -0.854373 -0.3805373 0.5137665 -0.7689201 -0.3805339 0.6539174 -0.6539042 -0.3805276 -0.1804152 -0.9069959 -0.3805377 -0.9247658 -5.95597e-7 -0.3805367 -0.9069969 0.1804113 -0.3805374 -7.31755e-6 0.995185 -0.09801405 0 0 1 0 0 1 -3.61222e-7 0 1 4.2309e-7 0 1 1.19923e-7 0 1 1.80606e-7 0 1 0 0 1 -1.19923e-7 0 1 2.57401e-7 0 1 -4.79692e-7 0 1 4.23089e-7 0 1 -3.61221e-7 0 1 3.04516e-7 0 1 -2.57086e-7 0 1 2.19153e-7 0 1 0 0 1 0 0 1 0 -1 1.08205e-5 0 -1 -5.30653e-7 0 -1 5.27378e-7 -0.7071488 2.37278e-4 -0.7070647 4.79658e-5 -1 -7.6282e-5 0 -0.8834238 0.468575 0 -1 -1.5998e-5 0.6551288 0.5376288 -0.5308123 1 4.36749e-7 0 1 -1.40187e-5 0 1 -3.49587e-4 0 1 8.75743e-7 0 1 -8.47029e-7 0 1 -8.75743e-7 0 1 -3.71668e-7 0 0 1 -2.38968e-7 0 1 2.77954e-7 0 1 2.11756e-7 0 1 -1.60208e-5 -0.328379 0.5432417 -0.7726938</float_array>
          <technique_common>
            <accessor source="#Cylinder_002-mesh-normals-array" count="231" stride="3">
              <param name="X" type="float"/>
              <param name="Y" type="float"/>
              <param name="Z" type="float"/>
            </accessor>
          </technique_common>
        </source>
        <source id="Cylinder_002-mesh-map-0">
          <float_array id="Cylinder_002-mesh-map-0-array" count="2292">0.7812499 0.5 0.75 0.4375 0.78125 0.4375 0.75 0.4375 0.71875 0.5 0.71875 0.4375 0.2524297 0.5 0.7167418 0.5000001 0 0.5 0.8125 0.5 0.78125 0.4375 0.8125 0.4375 0.8125 0.4375 0.78125 0.375 0.8125 0.375 0.78125 0.4375 0.75 0.375 0.78125 0.375 0.8125 0.3124999 0.78125 0.375 0.78125 0.3124999 0.78125 0.375 0.75 0.3125001 0.78125 0.3124999 0.75 0.375 0.71875 0.4375 0.71875 0.375 0.75 0.375 0.71875 0.3125 0.75 0.3125001 0.75 0.3125001 0.71875 0.25 0.75 0.2499999 0.78125 0.3124999 0.75 0.2499999 0.78125 0.25 0.75 0.2499999 0.71875 0.1875 0.75 0.1874998 0.78125 0.1874998 0.75 0.2499999 0.75 0.1874998 0.8125 0.2499999 0.78125 0.3124999 0.78125 0.25 0.8125 0.1874998 0.78125 0.25 0.78125 0.1874998 0.78125 0.1874998 0.8125 0.1680871 0.8125 0.1874998 0.75 0.1874998 0.78125 0.1575604 0.78125 0.1874998 0.4807004 0.32103 0.6166073 0.25 0.4757198 0.3102164 0.75 0.1874998 0.71875 0.1575604 0.75 0.1542766 0.71875 0.1875 0.6875 0.1680871 0.71875 0.1575604 0.6573019 0.1875 0.6875 0.1680871 0.6875 0.1875 0.6875 0.25 0.65625 0.25 0.65625 0.1883572 0.65625 0.25 0.625 0.2288081 0.65625 0.1883572 0.6144041 0.25 0.625 0.2288081 0.625 0.25 0.625 0.3125 0.6144041 0.25 0.625 0.25 0.625 0.375 0.59375 0.375 0.59375 0.3146038 0.65625 0.375 0.625 0.3125 0.65625 0.3125 0.65625 0.3125 0.625 0.25 0.65625 0.25 0.6875 0.375 0.65625 0.3125 0.6875 0.3125 0.6875 0.25 0.65625 0.3125 0.65625 0.25 0.71875 0.375 0.6875 0.3125 0.71875 0.3125 0.71875 0.25 0.6875 0.3125 0.6875 0.25 0.71875 0.25 0.6875 0.1875 0.71875 0.1875 0.6875 0.375 0.65625 0.4375 0.65625 0.375 0.71875 0.375 0.6875 0.4375 0.6875 0.375 0.6875 0.5 0.65625 0.4375 0.6875 0.4375 0.71875 0.5 0.6875 0.4375 0.71875 0.4375 0.65625 0.5 0.625 0.4375 0.65625 0.4375 0.65625 0.375 0.625 0.4375 0.625 0.375 0.625 0.5 0.59375 0.4375 0.625 0.4375 0.625 0.375 0.59375 0.4375 0.59375 0.375 0.5840435 0.375 0.59375 0.4375 0.5787802 0.4375 0.5787802 0.4375 0.59375 0.5 0.5771383 0.5 0.5840435 0.375 0.59375 0.3146038 0.59375 0.375 0.4807005 0.2085224 0.6166073 0.25 0.4757198 0.1767767 0.8750001 0.2288081 0.8750001 0.2288082 0.90625 0.1883574 0.90625 0.1883574 0.9375 0.1874999 0.9375 0.2499999 0.9375 0.1874999 0.9073022 0.1874999 0.9375 0.1680872 0.96875 0.1874999 0.9375 0.1680872 0.96875 0.1575604 1 0.1874999 0.96875 0.1575604 1 0.1542766 0.03124994 0.1575604 0 0.1874999 0 0.1542766 0.0625 0.1680871 0.03124994 0.1874999 0.03124994 0.1575604 0.0625 0.1874999 0.0625 0.1680871 0.09269797 0.1874999 0.0625 0.25 0.0625 0.1874999 0.09374994 0.1883572 0.09375 0.2499999 0.125 0.2288082 0.125 0.25 0.125 0.2288082 0.125 0.2288082 0.15625 0.1883573 0.4757198 0.9750576 0.4807004 0.9858712 0.6166073 1 0.1875 0.25 0.15625 0.25 0.15625 0.1883573 0.1875 0.1875 0.157302 0.1874999 0.1875 0.1680872 0.21875 0.1875 0.1875 0.1680872 0.21875 0.1575604 0.25 0.1875 0.21875 0.1575604 0.25 0.1542766 0.25 0.1875 0.28125 0.1575604 0.28125 0.1875 0.28125 0.1875 0.3125 0.1680871 0.3125 0.1875 0.3426981 0.1875 0.3125 0.1875 0.3125 0.1680871 0.3125 0.1875 0.3426981 0.1875 0.34375 0.1883572 0.375 0.2288081 0.34375 0.25 0.34375 0.1883572 0.375 0.25 0.375 0.2288081 0.3855959 0.25 0.375 0.3125 0.3855959 0.25 0.4058214 0.3125 0.375 0.3125 0.4058214 0.3125 0.40625 0.3146038 0.40625 0.375 0.40625 0.3146038 0.4159564 0.375 0.40625 0.4375 0.4159564 0.375 0.4212198 0.4375 0.40625 0.5 0.4212198 0.4375 0.4228617 0.5 0.40625 0.5 0.375 0.4375 0.40625 0.4375 0.375 0.5 0.34375 0.4375 0.375 0.4375 0.34375 0.5 0.3125 0.4375 0.34375 0.4375 0.3125 0.5 0.28125 0.4375 0.3125 0.4375 0.28125 0.5 0.25 0.4375 0.28125 0.4375 0.25 0.5 0.21875 0.4375 0.25 0.4375 0.2187499 0.5 0.1875 0.4375 0.21875 0.4375 0.1875 0.5 0.15625 0.4375 0.1875 0.4375 0.1562499 0.5 0.125 0.4375 0.15625 0.4375 0.1249999 0.5 0.09374994 0.4375 0.125 0.4375 0.09374994 0.5 0.0625 0.4375 0.09374994 0.4375 0.06249994 0.5 0.03124994 0.4375 0.0625 0.4375 0.03124994 0.5 0 0.4375 0.03124994 0.4375 1 0.5 0.96875 0.4375 1 0.4375 0.96875 0.5 0.9375 0.4375 0.96875 0.4375 0.9375 0.5 0.90625 0.4375 0.9375 0.4375 0.90625 0.5 0.8750001 0.4375 0.90625 0.4375 0.8749999 0.5 0.84375 0.4375 0.8750001 0.4375 0.8437499 0.5 0.8125 0.4375 0.84375 0.4375 0.8750001 0.4375 0.84375 0.375 0.8750001 0.375 0.84375 0.4375 0.8125 0.375 0.84375 0.375 0.8750001 0.3124999 0.84375 0.375 0.84375 0.3124999 0.84375 0.375 0.8125 0.3124999 0.84375 0.3124999 0.8750001 0.3124999 0.84375 0.2499999 0.8750001 0.2499999 0.84375 0.3124999 0.8125 0.2499999 0.84375 0.2499999 0.84375 0.2499999 0.8750001 0.2288081 0.8750001 0.2499999 0.8125 0.1874998 0.8426979 0.1874998 0.84375 0.1883572 0.8426979 0.1874998 0.8125 0.1874998 0.8125 0.1680871 0.90625 0.3124999 0.8750001 0.2499999 0.90625 0.2499999 0.90625 0.3124999 0.8750001 0.375 0.8750001 0.3124999 0.9375 0.3124999 0.90625 0.375 0.90625 0.3124999 0.9375 0.3124999 0.90625 0.2499999 0.9375 0.2499999 0.96875 0.3124999 0.9375 0.375 0.9375 0.3124999 0.96875 0.2499999 0.9375 0.3124999 0.9375 0.2499999 0.96875 0.2499999 0.9375 0.1874999 0.96875 0.1874999 1 0.3125 0.96875 0.2499999 1 0.2499999 1 0.1874999 0.96875 0.2499999 0.96875 0.1874999 0.03124994 0.3125 0 0.2499999 0.03125 0.25 0.03124994 0.1874999 0 0.2499999 0 0.1874999 0.0625 0.3124999 0.03125 0.25 0.0625 0.25 0.0625 0.25 0.03124994 0.1874999 0.0625 0.1874999 0.09375 0.2499999 0.0625 0.3124999 0.0625 0.25 0.0625 0.3124999 0.03125 0.375 0.03124994 0.3125 0.09375 0.3125 0.0625 0.375 0.0625 0.3124999 0.125 0.3125 0.09375 0.375 0.09375 0.3125 0.125 0.25 0.09375 0.3125 0.09375 0.2499999 0.15625 0.3125 0.125 0.375 0.125 0.3125 0.15625 0.25 0.125 0.3125 0.125 0.25 0.1875 0.3125 0.15625 0.375 0.15625 0.3125 0.1875 0.3125 0.15625 0.25 0.1875 0.25 0.21875 0.3125 0.1875 0.375 0.1875 0.3125 0.21875 0.25 0.1875 0.3125 0.1875 0.25 0.21875 0.1875 0.1875 0.25 0.1875 0.1875 0.25 0.3125 0.21875 0.25 0.25 0.25 0.25 0.25 0.21875 0.1875 0.25 0.1875 0.28125 0.25 0.25 0.3125 0.25 0.25 0.28125 0.1875 0.25 0.25 0.25 0.1875 0.3125 0.3125 0.28125 0.25 0.3125 0.25 0.3125 0.1875 0.28125 0.25 0.28125 0.1875 0.28125 0.3125 0.25 0.375 0.25 0.3125 0.3125 0.3125 0.28125 0.375 0.28125 0.3125 0.34375 0.3125 0.3125 0.375 0.3125 0.3125 0.34375 0.3125 0.3125 0.25 0.34375 0.25 0.375 0.3125 0.34375 0.375 0.34375 0.3125 0.375 0.25 0.34375 0.3125 0.34375 0.25 0.34375 0.4375 0.3125 0.375 0.34375 0.375 0.375 0.4375 0.34375 0.375 0.375 0.375 0.40625 0.4375 0.375 0.375 0.40625 0.375 0.3125 0.4375 0.28125 0.375 0.3125 0.375 0.28125 0.4375 0.25 0.375 0.28125 0.375 0.25 0.4375 0.21875 0.375 0.25 0.375 0.25 0.3125 0.21875 0.375 0.21875 0.3125 0.21875 0.4375 0.1875 0.375 0.21875 0.375 0.1875 0.4375 0.15625 0.375 0.1875 0.375 0.15625 0.4375 0.125 0.375 0.15625 0.375 0.125 0.4375 0.09375 0.375 0.125 0.375 0.09374994 0.4375 0.0625 0.375 0.09375 0.375 0.0625 0.4375 0.03125 0.375 0.0625 0.375 0.03124994 0.4375 0 0.375 0.03125 0.375 0.03124994 0.3125 0 0.375 0 0.3125 1 0.4375 0.96875 0.375 1 0.375 1 0.3125 0.96875 0.375 0.96875 0.3124999 0.96875 0.4375 0.9375 0.375 0.96875 0.375 0.9375 0.4375 0.90625 0.375 0.9375 0.375 0.90625 0.4375 0.8750001 0.375 0.90625 0.375 0.7812499 0.5 0.75 0.5 0.75 0.4375 0.75 0.4375 0.75 0.5 0.71875 0.5 0.7167418 0.5000001 0.5771383 0.5 0.59375 0.5 0.59375 0.5 0.625 0.5 0.7167418 0.5000001 0.625 0.5 0.65625 0.5 0.7167418 0.5000001 0.65625 0.5 0.6875 0.5 0.7167418 0.5000001 0.6875 0.5 0.71875 0.5 0.7167418 0.5000001 0.71875 0.5 0.75 0.5 0.7167418 0.5000001 0.75 0.5 0.7812499 0.5 0.7167418 0.5000001 0.7812499 0.5 0.8125 0.5 0.7167418 0.5000001 0.8125 0.5 0.8437499 0.5 0.7167418 0.5000001 0.8437499 0.5 0.8749999 0.5 0.7167418 0.5000001 0.8749999 0.5 0.90625 0.5 0.7167418 0.5000001 0.90625 0.5 0.9375 0.5 0.7167418 0.5000001 0.9375 0.5 0.96875 0.5 0.7167418 0.5000001 0.96875 0.5 0 0.5 0.7167418 0.5000001 0 0.5 0.03124994 0.5 0.2524297 0.5 0.03124994 0.5 0.06249994 0.5 0.2524297 0.5 0.06249994 0.5 0.09374994 0.5 0.2524297 0.5 0.09374994 0.5 0.1249999 0.5 0.2524297 0.5 0.1249999 0.5 0.1562499 0.5 0.2524297 0.5 0.1562499 0.5 0.1875 0.5 0.2524297 0.5 0.1875 0.5 0.2187499 0.5 0.2524297 0.5 0.2187499 0.5 0.25 0.5 0.2524297 0.5 0.25 0.5 0.28125 0.5 0.2524297 0.5 0.28125 0.5 0.3125 0.5 0.2524297 0.5 0.3125 0.5 0.34375 0.5 0.2524297 0.5 0.34375 0.5 0.375 0.5 0.2524297 0.5 0.375 0.5 0.40625 0.5 0.2524297 0.5 0.40625 0.5 0.4228617 0.5 0.2524297 0.5 0.8125 0.5 0.7812499 0.5 0.78125 0.4375 0.8125 0.4375 0.78125 0.4375 0.78125 0.375 0.78125 0.4375 0.75 0.4375 0.75 0.375 0.8125 0.3124999 0.8125 0.375 0.78125 0.375 0.78125 0.375 0.75 0.375 0.75 0.3125001 0.75 0.375 0.75 0.4375 0.71875 0.4375 0.75 0.375 0.71875 0.375 0.71875 0.3125 0.75 0.3125001 0.71875 0.3125 0.71875 0.25 0.78125 0.3124999 0.75 0.3125001 0.75 0.2499999 0.75 0.2499999 0.71875 0.25 0.71875 0.1875 0.78125 0.1874998 0.78125 0.25 0.75 0.2499999 0.8125 0.2499999 0.8125 0.3124999 0.78125 0.3124999 0.8125 0.1874998 0.8125 0.2499999 0.78125 0.25 0.78125 0.1874998 0.78125 0.1575604 0.8125 0.1680871 0.75 0.1874998 0.75 0.1542766 0.78125 0.1575604 0.5007904 0.3412334 0.5256105 0.3559362 0.5265637 0.3563039 0.5265637 0.3563039 0.5539277 0.3655576 0.6166073 0.25 0.5539277 0.3655576 0.5846535 0.3714545 0.6166073 0.25 0.5846535 0.3714545 0.6166074 0.3734456 0.6166073 0.25 0.4938838 0.25 0.4938837 0.25 0.4807004 0.2641288 0.6166073 0.25 0.4938838 0.25 0.4807004 0.2641288 0.5007904 0.3412334 0.5265637 0.3563039 0.6166073 0.25 0.4807004 0.32103 0.4938838 0.3351588 0.6166073 0.25 0.4938838 0.3351588 0.5007904 0.3412334 0.6166073 0.25 0.4757198 0.3102164 0.480421 0.320627 0.4807004 0.32103 0.4723752 0.2925794 0.4731704 0.3010489 0.6166073 0.25 0.4731704 0.3010489 0.4757198 0.3102164 0.6166073 0.25 0.4757198 0.2749424 0.4731705 0.2841098 0.6166073 0.25 0.4731705 0.2841098 0.4723752 0.2925794 0.6166073 0.25 0.4807004 0.2641288 0.480421 0.2645318 0.4757198 0.2749424 0.6166073 0.25 0.4807004 0.2641288 0.4757198 0.2749424 0.75 0.1874998 0.71875 0.1875 0.71875 0.1575604 0.71875 0.1875 0.6875 0.1875 0.6875 0.1680871 0.6573019 0.1875 0.6875 0.1875 0.65625 0.1883572 0.6875 0.1875 0.6875 0.25 0.65625 0.1883572 0.65625 0.25 0.625 0.25 0.625 0.2288081 0.625 0.3125 0.5941786 0.3125 0.6144041 0.25 0.5941786 0.3125 0.625 0.3125 0.59375 0.3146038 0.625 0.3125 0.625 0.375 0.59375 0.3146038 0.65625 0.375 0.625 0.375 0.625 0.3125 0.65625 0.3125 0.625 0.3125 0.625 0.25 0.6875 0.375 0.65625 0.375 0.65625 0.3125 0.6875 0.25 0.6875 0.3125 0.65625 0.3125 0.71875 0.375 0.6875 0.375 0.6875 0.3125 0.71875 0.25 0.71875 0.3125 0.6875 0.3125 0.71875 0.25 0.6875 0.25 0.6875 0.1875 0.6875 0.375 0.6875 0.4375 0.65625 0.4375 0.71875 0.375 0.71875 0.4375 0.6875 0.4375 0.6875 0.5 0.65625 0.5 0.65625 0.4375 0.71875 0.5 0.6875 0.5 0.6875 0.4375 0.65625 0.5 0.625 0.5 0.625 0.4375 0.65625 0.375 0.65625 0.4375 0.625 0.4375 0.625 0.5 0.59375 0.5 0.59375 0.4375 0.625 0.375 0.625 0.4375 0.59375 0.4375 0.5840435 0.375 0.59375 0.375 0.59375 0.4375 0.5787802 0.4375 0.59375 0.4375 0.59375 0.5 0.6166073 0.25 0.6166073 0 0.4723752 0.125 0.6166073 0 0.4938838 0 0.4938838 0 0.4938838 0 0.4807004 0.04147768 0.6166073 0 0.4807004 0.04147768 0.480421 0.04266071 0.4757198 0.07322329 0.6166073 0 0.4757198 0.07322329 0.4731705 0.1001359 0.4807005 0.2085224 0.4938838 0.25 0.6166073 0.25 0.4757198 0.1767767 0.480421 0.2073391 0.4807005 0.2085224 0.4723752 0.125 0.4731705 0.149864 0.6166073 0.25 0.4731705 0.149864 0.4757198 0.1767767 0.6166073 0.25 0.4731705 0.1001359 0.4723752 0.125 0.6166073 0 0.4757198 0.07322329 0.6166073 0 0.4807004 0.04147768 0.90625 0.1883574 0.90625 0.2499999 0.8750001 0.2288081 0.90625 0.2499999 0.8750001 0.2499999 0.8750001 0.2288081 0.9375 0.2499999 0.90625 0.2499999 0.90625 0.1883574 0.90625 0.1883574 0.9073022 0.1874999 0.9375 0.1874999 0.96875 0.1874999 0.9375 0.1874999 0.9375 0.1680872 1 0.1874999 0.96875 0.1874999 0.96875 0.1575604 0.03124994 0.1575604 0.03124994 0.1874999 0 0.1874999 0.0625 0.1680871 0.0625 0.1874999 0.03124994 0.1874999 0.09269797 0.1874999 0.09374994 0.1883572 0.0625 0.1874999 0.09374994 0.1883572 0.09375 0.2499999 0.0625 0.25 0.09375 0.2499999 0.09374994 0.1883572 0.125 0.2288082 0.15625 0.1883573 0.15625 0.25 0.125 0.2288082 0.15625 0.25 0.125 0.25 0.125 0.2288082 0.6166073 1 0.6166073 0.8765544 0.5846535 0.8785456 0.5846535 0.8785456 0.5539277 0.8844424 0.6166073 1 0.5539277 0.8844424 0.5265637 0.8936961 0.6166073 1 0.5265637 0.8936961 0.5256106 0.8940639 0.5007904 0.9087666 0.5007904 0.9087666 0.4938838 0.9148413 0.6166073 1 0.4938838 0.9148413 0.4807004 0.92897 0.6166073 1 0.4807004 0.92897 0.480421 0.9293729 0.4757198 0.9397837 0.4757198 0.9397837 0.4731705 0.9489511 0.6166073 1 0.4731705 0.9489511 0.4723752 0.9574207 0.6166073 1 0.4723752 0.9574207 0.4731705 0.9658902 0.6166073 1 0.4731705 0.9658902 0.4757198 0.9750576 0.6166073 1 0.4757198 0.9750576 0.480421 0.9854683 0.4807004 0.9858712 0.4807004 0.9858712 0.4938838 1 0.6166073 1 0.5265637 0.8936961 0.5007904 0.9087666 0.6166073 1 0.4807004 0.92897 0.4757198 0.9397837 0.6166073 1 0.157302 0.1874999 0.1875 0.1875 0.15625 0.1883573 0.1875 0.1875 0.1875 0.25 0.15625 0.1883573 0.21875 0.1875 0.1875 0.1875 0.1875 0.1680872 0.25 0.1875 0.21875 0.1875 0.21875 0.1575604 0.25 0.1875 0.25 0.1542766 0.28125 0.1575604 0.28125 0.1875 0.28125 0.1575604 0.3125 0.1680871 0.34375 0.1883572 0.34375 0.25 0.3125 0.25 0.3125 0.25 0.3125 0.1875 0.34375 0.1883572 0.375 0.2288081 0.375 0.25 0.34375 0.25 0.375 0.3125 0.375 0.25 0.3855959 0.25 0.40625 0.3146038 0.40625 0.375 0.375 0.375 0.375 0.375 0.375 0.3125 0.40625 0.3146038 0.40625 0.4375 0.40625 0.375 0.4159564 0.375 0.40625 0.5 0.40625 0.4375 0.4212198 0.4375 0.40625 0.5 0.375 0.5 0.375 0.4375 0.375 0.5 0.34375 0.5 0.34375 0.4375 0.34375 0.5 0.3125 0.5 0.3125 0.4375 0.3125 0.5 0.28125 0.5 0.28125 0.4375 0.28125 0.5 0.25 0.5 0.25 0.4375 0.25 0.5 0.2187499 0.5 0.21875 0.4375 0.2187499 0.5 0.1875 0.5 0.1875 0.4375 0.1875 0.5 0.1562499 0.5 0.15625 0.4375 0.1562499 0.5 0.1249999 0.5 0.125 0.4375 0.1249999 0.5 0.09374994 0.5 0.09374994 0.4375 0.09374994 0.5 0.06249994 0.5 0.0625 0.4375 0.06249994 0.5 0.03124994 0.5 0.03124994 0.4375 0.03124994 0.5 0 0.5 0 0.4375 1 0.5 0.96875 0.5 0.96875 0.4375 0.96875 0.5 0.9375 0.5 0.9375 0.4375 0.9375 0.5 0.90625 0.5 0.90625 0.4375 0.90625 0.5 0.8749999 0.5 0.8750001 0.4375 0.8749999 0.5 0.8437499 0.5 0.84375 0.4375 0.8437499 0.5 0.8125 0.5 0.8125 0.4375 0.8750001 0.4375 0.84375 0.4375 0.84375 0.375 0.84375 0.4375 0.8125 0.4375 0.8125 0.375 0.8750001 0.3124999 0.8750001 0.375 0.84375 0.375 0.84375 0.375 0.8125 0.375 0.8125 0.3124999 0.8750001 0.3124999 0.84375 0.3124999 0.84375 0.2499999 0.84375 0.3124999 0.8125 0.3124999 0.8125 0.2499999 0.84375 0.2499999 0.84375 0.1883572 0.8750001 0.2288081 0.84375 0.1883572 0.84375 0.2499999 0.8125 0.2499999 0.8125 0.2499999 0.8125 0.1874998 0.84375 0.1883572 0.90625 0.3124999 0.8750001 0.3124999 0.8750001 0.2499999 0.90625 0.3124999 0.90625 0.375 0.8750001 0.375 0.9375 0.3124999 0.9375 0.375 0.90625 0.375 0.9375 0.3124999 0.90625 0.3124999 0.90625 0.2499999 0.96875 0.3124999 0.96875 0.375 0.9375 0.375 0.96875 0.2499999 0.96875 0.3124999 0.9375 0.3124999 0.96875 0.2499999 0.9375 0.2499999 0.9375 0.1874999 1 0.3125 0.96875 0.3124999 0.96875 0.2499999 1 0.1874999 1 0.2499999 0.96875 0.2499999 0.03124994 0.3125 0 0.3125 0 0.2499999 0.03124994 0.1874999 0.03125 0.25 0 0.2499999 0.0625 0.3124999 0.03124994 0.3125 0.03125 0.25 0.0625 0.25 0.03125 0.25 0.03124994 0.1874999 0.09375 0.2499999 0.09375 0.3125 0.0625 0.3124999 0.0625 0.3124999 0.0625 0.375 0.03125 0.375 0.09375 0.3125 0.09375 0.375 0.0625 0.375 0.125 0.3125 0.125 0.375 0.09375 0.375 0.125 0.25 0.125 0.3125 0.09375 0.3125 0.15625 0.3125 0.15625 0.375 0.125 0.375 0.15625 0.25 0.15625 0.3125 0.125 0.3125 0.1875 0.3125 0.1875 0.375 0.15625 0.375 0.1875 0.3125 0.15625 0.3125 0.15625 0.25 0.21875 0.3125 0.21875 0.375 0.1875 0.375 0.21875 0.25 0.21875 0.3125 0.1875 0.3125 0.21875 0.1875 0.21875 0.25 0.1875 0.25 0.25 0.3125 0.21875 0.3125 0.21875 0.25 0.25 0.25 0.21875 0.25 0.21875 0.1875 0.28125 0.25 0.28125 0.3125 0.25 0.3125 0.28125 0.1875 0.28125 0.25 0.25 0.25 0.3125 0.3125 0.28125 0.3125 0.28125 0.25 0.3125 0.1875 0.3125 0.25 0.28125 0.25 0.28125 0.3125 0.28125 0.375 0.25 0.375 0.3125 0.3125 0.3125 0.375 0.28125 0.375 0.34375 0.3125 0.34375 0.375 0.3125 0.375 0.34375 0.3125 0.3125 0.3125 0.3125 0.25 0.375 0.3125 0.375 0.375 0.34375 0.375 0.375 0.25 0.375 0.3125 0.34375 0.3125 0.34375 0.4375 0.3125 0.4375 0.3125 0.375 0.375 0.4375 0.34375 0.4375 0.34375 0.375 0.40625 0.4375 0.375 0.4375 0.375 0.375 0.3125 0.4375 0.28125 0.4375 0.28125 0.375 0.28125 0.4375 0.25 0.4375 0.25 0.375 0.25 0.4375 0.21875 0.4375 0.21875 0.375 0.25 0.3125 0.25 0.375 0.21875 0.375 0.21875 0.4375 0.1875 0.4375 0.1875 0.375 0.1875 0.4375 0.15625 0.4375 0.15625 0.375 0.15625 0.4375 0.125 0.4375 0.125 0.375 0.125 0.4375 0.09374994 0.4375 0.09375 0.375 0.09374994 0.4375 0.0625 0.4375 0.0625 0.375 0.0625 0.4375 0.03124994 0.4375 0.03125 0.375 0.03124994 0.4375 0 0.4375 0 0.375 0.03124994 0.3125 0.03125 0.375 0 0.375 1 0.4375 0.96875 0.4375 0.96875 0.375 1 0.3125 1 0.375 0.96875 0.375 0.96875 0.4375 0.9375 0.4375 0.9375 0.375 0.9375 0.4375 0.90625 0.4375 0.90625 0.375 0.90625 0.4375 0.8750001 0.4375 0.8750001 0.375</float_array>
          <technique_common>
            <accessor source="#Cylinder_002-mesh-map-0-array" count="1146" stride="2">
              <param name="S" type="float"/>
              <param name="T" type="float"/>
            </accessor>
          </technique_common>
        </source>
        <vertices id="Cylinder_002-mesh-vertices">
          <input semantic="POSITION" source="#Cylinder_002-mesh-positions"/>
        </vertices>
        <triangles material="Material_001-material" count="382">
          <input semantic="VERTEX" source="#Cylinder_002-mesh-vertices" offset="0"/>
          <input semantic="NORMAL" source="#Cylinder_002-mesh-normals" offset="1"/>
          <input semantic="TEXCOORD" source="#Cylinder_002-mesh-map-0" offset="2" set="0"/>
          <p>3 0 0 1 1 1 5 2 2 1 1 3 2 3 4 45 4 5 57 5 6 56 5 7 131 5 8 4 6 9 5 2 10 6 7 11 6 7 12 7 8 13 8 9 14 5 2 15 10 10 16 7 8 17 148 11 18 7 8 19 9 12 20 7 8 21 12 13 22 9 12 23 10 10 24 45 4 25 11 14 26 10 10 27 13 15 28 12 13 29 12 13 30 15 16 31 14 17 32 9 12 33 14 17 34 17 18 35 14 17 36 25 19 37 16 20 38 19 21 39 14 17 40 16 20 41 18 22 42 9 12 43 17 18 44 20 23 45 17 18 46 19 21 47 19 21 48 22 24 49 20 23 50 16 20 51 21 25 52 19 21 53 29 26 54 56 26 55 26 26 56 16 20 57 24 27 58 23 28 59 25 19 60 26 29 61 24 27 62 28 30 63 26 29 64 27 31 65 42 32 66 30 33 67 29 34 68 30 33 69 31 35 70 29 34 71 33 36 72 31 35 73 32 37 74 36 38 75 33 36 76 32 37 77 37 39 78 51 40 79 35 41 80 39 42 81 36 38 82 38 43 83 38 43 84 32 37 85 30 33 86 41 44 87 38 43 88 40 45 89 42 32 90 38 43 91 30 33 92 11 14 93 40 45 94 13 15 95 15 16 96 40 45 97 42 32 98 15 16 99 27 31 100 25 19 101 41 44 102 46 46 103 39 42 104 11 14 105 43 47 106 41 44 107 44 48 108 46 46 109 43 47 110 2 3 111 43 47 112 45 4 113 47 49 114 48 50 115 46 46 116 39 42 117 48 50 118 37 39 119 49 51 120 50 52 121 48 50 122 37 39 123 50 52 124 51 40 125 55 53 126 50 52 127 53 54 128 53 54 129 52 55 130 54 56 131 55 53 132 35 41 133 51 40 134 60 57 135 56 57 136 64 57 137 59 58 138 58 59 139 60 60 140 60 60 141 63 61 142 157 62 143 63 61 144 62 63 145 64 64 146 66 65 147 64 64 148 65 66 149 68 67 150 65 66 151 67 68 152 69 69 153 68 67 154 67 68 155 71 70 156 70 71 157 69 69 158 72 72 159 71 70 160 73 73 161 163 74 162 72 72 163 74 75 164 75 76 165 76 77 166 77 78 167 76 77 168 78 79 169 79 80 170 83 81 171 79 81 172 57 81 173 175 82 174 80 83 175 79 80 176 82 84 177 81 85 178 83 86 179 85 87 180 83 86 181 84 88 182 87 89 183 84 88 184 86 90 185 87 89 186 88 91 187 89 92 188 89 92 189 90 93 190 91 94 191 92 95 192 91 94 193 90 93 194 91 94 195 92 95 196 93 96 197 95 97 198 94 98 199 93 96 200 96 99 201 95 97 202 97 100 203 99 101 204 97 100 205 98 102 206 99 101 207 98 102 208 100 103 209 101 104 210 100 103 211 102 105 212 104 106 213 102 105 214 103 107 215 106 108 216 103 107 217 105 109 218 106 108 219 108 110 220 104 106 221 107 111 222 110 112 223 108 110 224 109 113 225 112 114 226 110 112 227 111 115 228 114 116 229 112 114 230 113 117 231 116 118 232 114 116 233 115 119 234 118 120 235 116 118 236 117 121 237 120 122 238 118 120 239 119 123 240 122 124 241 120 122 242 121 125 243 124 126 244 122 124 245 123 127 246 126 128 247 124 126 248 125 129 249 128 130 250 126 128 251 127 131 252 130 132 253 128 130 254 129 133 255 132 134 256 130 132 257 131 135 258 134 136 259 132 134 260 133 137 261 136 138 262 134 136 263 135 139 264 138 140 265 136 138 266 137 141 267 140 142 268 138 140 269 139 143 270 142 144 271 140 142 272 141 145 273 6 7 274 142 144 275 140 142 276 143 146 277 144 147 278 142 144 279 8 9 280 143 146 281 146 148 282 143 146 283 145 149 284 143 146 285 148 11 286 145 149 287 146 148 288 147 150 289 149 151 290 145 149 291 18 22 292 147 150 293 147 150 294 59 58 295 149 151 296 20 23 297 151 152 298 150 153 299 151 152 300 20 23 301 22 24 302 152 154 303 149 151 304 61 155 305 152 154 306 144 147 307 146 148 308 154 156 309 153 157 310 152 154 311 154 156 312 61 155 313 157 62 314 156 158 315 155 159 316 154 156 317 158 160 318 154 156 319 157 62 320 158 160 321 63 61 322 66 65 323 160 161 324 158 160 325 159 162 326 68 67 327 158 160 328 66 65 329 162 163 330 159 162 331 161 164 332 70 71 333 159 162 334 68 67 335 164 165 336 161 164 337 163 74 338 163 74 339 70 71 340 72 72 341 75 76 342 164 165 343 163 74 344 164 165 345 190 166 346 162 163 347 166 167 348 165 168 349 164 165 350 168 169 351 167 170 352 166 167 353 77 78 354 166 167 355 75 76 356 170 171 357 169 172 358 168 169 359 80 83 360 168 169 361 77 78 362 172 173 363 171 174 364 170 171 365 172 173 366 80 83 367 175 82 368 174 175 369 173 176 370 172 173 371 176 177 372 172 173 373 175 82 374 85 87 375 175 82 376 82 84 377 178 178 378 176 177 379 177 179 380 177 179 381 85 87 382 87 89 383 179 180 384 178 178 385 177 179 386 89 92 387 177 179 388 87 89 389 183 181 390 179 180 391 180 182 392 91 94 393 179 180 394 89 92 395 181 183 396 188 184 397 178 178 398 183 181 399 182 185 400 181 183 401 185 186 402 184 187 403 183 181 404 185 186 405 180 182 406 94 98 407 99 101 408 186 188 409 185 186 410 96 99 411 185 186 412 94 98 413 110 112 414 184 187 415 186 188 416 108 110 417 186 188 418 187 189 419 104 106 420 187 189 421 101 104 422 112 114 423 182 185 424 184 187 425 114 116 426 188 184 427 182 185 428 116 118 429 189 190 430 188 184 431 178 178 432 189 190 433 174 175 434 118 120 435 173 176 436 189 190 437 120 122 438 171 174 439 173 176 440 122 124 441 169 172 442 171 174 443 124 126 444 167 170 445 169 172 446 126 128 447 165 168 448 167 170 449 128 130 450 190 166 451 165 168 452 130 132 453 191 191 454 190 166 455 162 163 456 191 191 457 160 161 458 132 134 459 192 192 460 191 191 461 160 161 462 192 192 463 156 158 464 134 136 465 155 159 466 192 192 467 136 138 468 153 157 469 155 159 470 138 140 471 144 147 472 153 157 473 3 0 474 0 193 475 1 1 476 1 1 477 0 193 478 2 3 479 56 194 480 54 194 481 52 194 482 52 195 483 49 195 484 56 195 485 49 194 486 47 194 487 56 194 488 47 194 489 44 194 490 56 194 491 44 194 492 2 194 493 56 194 494 2 194 495 0 194 496 56 194 497 0 196 498 3 196 499 56 196 500 3 197 501 4 197 502 56 197 503 4 194 504 141 194 505 56 194 506 141 194 507 139 194 508 56 194 509 139 194 510 137 194 511 56 194 512 137 198 513 135 198 514 56 198 515 135 194 516 133 194 517 56 194 518 133 194 519 131 194 520 56 194 521 131 199 522 129 199 523 57 199 524 129 200 525 127 200 526 57 200 527 127 201 528 125 201 529 57 201 530 125 202 531 123 202 532 57 202 533 123 194 534 121 194 535 57 194 536 121 203 537 119 203 538 57 203 539 119 204 540 117 204 541 57 204 542 117 205 543 115 205 544 57 205 545 115 206 546 113 206 547 57 206 548 113 207 549 111 207 550 57 207 551 111 208 552 109 208 553 57 208 554 109 209 555 107 209 556 57 209 557 107 210 558 106 210 559 57 210 560 106 194 561 105 194 562 57 194 563 4 6 564 3 0 565 5 2 566 6 7 567 5 2 568 7 8 569 5 2 570 1 1 571 10 10 572 148 11 573 8 9 574 7 8 575 7 8 576 10 10 577 12 13 578 10 10 579 1 1 580 45 4 581 10 10 582 11 14 583 13 15 584 12 13 585 13 15 586 15 16 587 9 12 588 12 13 589 14 17 590 14 17 591 15 16 592 25 19 593 19 21 594 17 18 595 14 17 596 18 22 597 148 11 598 9 12 599 20 23 600 18 22 601 17 18 602 19 21 603 21 25 604 22 24 605 16 20 606 23 28 607 21 25 608 33 211 609 34 211 610 35 211 611 35 26 612 55 26 613 56 26 614 55 212 615 53 212 616 56 212 617 53 213 618 54 213 619 56 213 620 58 194 621 59 214 622 150 215 623 56 26 624 58 216 625 150 26 626 33 26 627 35 26 628 56 26 629 29 26 630 31 26 631 56 26 632 31 26 633 33 26 634 56 26 635 26 217 636 28 217 637 29 217 638 23 26 639 24 26 640 56 26 641 24 26 642 26 26 643 56 26 644 22 26 645 21 26 646 56 26 647 21 26 648 23 26 649 56 26 650 150 26 651 151 26 652 22 26 653 56 26 654 150 26 655 22 26 656 16 20 657 25 19 658 24 27 659 25 19 660 27 31 661 26 29 662 28 30 663 27 31 664 29 34 665 27 31 666 42 32 667 29 34 668 30 33 669 32 37 670 31 35 671 36 38 672 34 218 673 33 36 674 34 218 675 36 38 676 35 41 677 36 38 678 37 39 679 35 41 680 39 42 681 37 39 682 36 38 683 38 43 684 36 38 685 32 37 686 41 44 687 39 42 688 38 43 689 42 32 690 40 45 691 38 43 692 11 14 693 41 44 694 40 45 695 15 16 696 13 15 697 40 45 698 15 16 699 42 32 700 27 31 701 41 44 702 43 47 703 46 46 704 11 14 705 45 4 706 43 47 707 44 48 708 47 49 709 46 46 710 2 3 711 44 48 712 43 47 713 47 49 714 49 51 715 48 50 716 39 42 717 46 46 718 48 50 719 49 51 720 52 55 721 50 52 722 37 39 723 48 50 724 50 52 725 55 53 726 51 40 727 50 52 728 53 54 729 50 52 730 52 55 731 56 57 732 57 57 733 67 57 734 57 57 735 78 57 736 76 57 737 76 57 738 74 57 739 57 57 740 74 57 741 73 57 742 71 57 743 57 219 744 71 219 745 69 219 746 60 57 747 58 57 748 56 57 749 64 220 750 62 221 751 60 220 752 67 222 753 65 222 754 56 222 755 65 223 756 64 223 757 56 223 758 69 224 759 67 224 760 57 224 761 71 225 762 57 225 763 74 225 764 60 60 765 61 155 766 59 58 767 61 155 768 149 151 769 59 58 770 157 62 771 61 155 772 60 60 773 60 60 774 62 63 775 63 61 776 66 65 777 63 61 778 64 64 779 68 67 780 66 65 781 65 66 782 69 69 783 70 71 784 68 67 785 71 70 786 72 72 787 70 71 788 73 73 789 74 75 790 72 72 791 74 75 792 75 76 793 163 74 794 75 76 795 74 75 796 76 77 797 79 80 798 80 83 799 76 77 800 80 83 801 77 78 802 76 77 803 57 226 804 105 226 805 103 226 806 103 81 807 102 81 808 57 81 809 102 227 810 100 227 811 57 227 812 100 81 813 98 81 814 97 81 815 97 81 816 95 81 817 57 81 818 95 81 819 93 81 820 57 81 821 93 81 822 92 81 823 90 81 824 90 81 825 88 81 826 57 81 827 88 81 828 86 81 829 57 81 830 86 81 831 84 81 832 57 81 833 84 228 834 83 228 835 57 228 836 83 229 837 81 229 838 79 229 839 79 81 840 78 81 841 57 81 842 100 81 843 97 81 844 57 81 845 93 81 846 90 81 847 57 81 848 81 85 849 82 84 850 79 80 851 82 84 852 175 82 853 79 80 854 85 87 855 82 84 856 83 86 857 87 89 858 85 87 859 84 88 860 87 89 861 86 90 862 88 91 863 89 92 864 88 91 865 90 93 866 93 96 867 94 98 868 180 182 869 180 182 870 91 94 871 93 96 872 95 97 873 96 99 874 94 98 875 99 101 876 96 99 877 97 100 878 100 103 879 101 104 880 187 189 881 187 189 882 99 101 883 100 103 884 104 106 885 101 104 886 102 105 887 106 108 888 104 106 889 103 107 890 106 108 891 107 111 892 108 110 893 107 111 894 109 113 895 110 112 896 109 113 897 111 115 898 112 114 899 111 115 900 113 117 901 114 116 902 113 117 903 115 119 904 116 118 905 115 119 906 117 121 907 118 120 908 117 121 909 119 123 910 120 122 911 119 123 912 121 125 913 122 124 914 121 125 915 123 127 916 124 126 917 123 127 918 125 129 919 126 128 920 125 129 921 127 131 922 128 130 923 127 131 924 129 133 925 130 132 926 129 133 927 131 135 928 132 134 929 131 135 930 133 137 931 134 136 932 133 137 933 135 139 934 136 138 935 135 139 936 137 141 937 138 140 938 137 141 939 139 143 940 140 142 941 139 143 942 141 145 943 142 144 944 141 145 945 4 6 946 6 7 947 140 142 948 142 144 949 143 146 950 142 144 951 6 7 952 8 9 953 146 148 954 144 147 955 143 146 956 143 146 957 8 9 958 148 11 959 146 148 960 145 149 961 147 150 962 145 149 963 148 11 964 18 22 965 147 150 966 150 230 967 59 58 968 150 230 969 147 150 970 18 22 971 18 22 972 20 23 973 150 230 974 152 154 975 146 148 976 149 151 977 152 154 978 153 157 979 144 147 980 154 156 981 155 159 982 153 157 983 154 156 984 152 154 985 61 155 986 156 158 987 192 192 988 155 159 989 158 160 990 156 158 991 154 156 992 158 160 993 157 62 994 63 61 995 160 161 996 156 158 997 158 160 998 68 67 999 159 162 1000 158 160 1001 162 163 1002 160 161 1003 159 162 1004 70 71 1005 161 164 1006 159 162 1007 164 165 1008 162 163 1009 161 164 1010 163 74 1011 161 164 1012 70 71 1013 75 76 1014 166 167 1015 164 165 1016 164 165 1017 165 168 1018 190 166 1019 166 167 1020 167 170 1021 165 168 1022 168 169 1023 169 172 1024 167 170 1025 77 78 1026 168 169 1027 166 167 1028 170 171 1029 171 174 1030 169 172 1031 80 83 1032 170 171 1033 168 169 1034 172 173 1035 173 176 1036 171 174 1037 172 173 1038 170 171 1039 80 83 1040 174 175 1041 189 190 1042 173 176 1043 176 177 1044 174 175 1045 172 173 1046 85 87 1047 176 177 1048 175 82 1049 178 178 1050 174 175 1051 176 177 1052 177 179 1053 176 177 1054 85 87 1055 179 180 1056 181 183 1057 178 178 1058 89 92 1059 179 180 1060 177 179 1061 183 181 1062 181 183 1063 179 180 1064 91 94 1065 180 182 1066 179 180 1067 181 183 1068 182 185 1069 188 184 1070 183 181 1071 184 187 1072 182 185 1073 185 186 1074 186 188 1075 184 187 1076 185 186 1077 183 181 1078 180 182 1079 99 101 1080 187 189 1081 186 188 1082 96 99 1083 99 101 1084 185 186 1085 110 112 1086 112 114 1087 184 187 1088 108 110 1089 110 112 1090 186 188 1091 104 106 1092 108 110 1093 187 189 1094 112 114 1095 114 116 1096 182 185 1097 114 116 1098 116 118 1099 188 184 1100 116 118 1101 118 120 1102 189 190 1103 178 178 1104 188 184 1105 189 190 1106 118 120 1107 120 122 1108 173 176 1109 120 122 1110 122 124 1111 171 174 1112 122 124 1113 124 126 1114 169 172 1115 124 126 1116 126 128 1117 167 170 1118 126 128 1119 128 130 1120 165 168 1121 128 130 1122 130 132 1123 190 166 1124 130 132 1125 132 134 1126 191 191 1127 162 163 1128 190 166 1129 191 191 1130 132 134 1131 134 136 1132 192 192 1133 160 161 1134 191 191 1135 192 192 1136 134 136 1137 136 138 1138 155 159 1139 136 138 1140 138 140 1141 153 157 1142 138 140 1143 140 142 1144 144 147 1145</p>
        </triangles>
      </mesh>
    </geometry>
  </library_geometries>
  <library_visual_scenes>
    <visual_scene id="Scene" name="Scene">
      <node id="free_wheel_body" name="free_wheel_body" type="NODE">
        <matrix sid="transform">0.2423264 0 0 0 0 0.2423264 3.948e-8 0 0 -3.948e-8 0.2423264 0 0 0 0 1</matrix>
        <instance_geometry url="#Cylinder_002-mesh" name="free_wheel_body">
          <bind_material>
            <technique_common>
              <instance_material symbol="Material_001-material" target="#Material_001-material">
                <bind_vertex_input semantic="Cylinder_002-mesh-map-0" input_semantic="TEXCOORD" input_set="0"/>
              </instance_material>
            </technique_common>
          </bind_material>
        </instance_geometry>
      </node>
    </visual_scene>
  </library_visual_scenes>
  <scene>
    <instance_visual_scene url="#Scene"/>
  </scene>
</COLLADA>