<?xml version="1.0" encoding="utf-8"?>
<COLLADA xmlns="http://www.collada.org/2005/11/COLLADASchema" version="1.4.1" xmlns:xsi="http://www.w3.org/2001/XMLSchema-instance">
  <asset>
    <contributor>
      <author>Blender User</author>
      <authoring_tool>Blender 3.6.20 commit date:2025-01-20, commit time:15:08, hash:46254438b9dd</authoring_tool>
    </contributor>
    <created>2025-11-06T12:42:51</created>
    <modified>2025-11-06T12:42:51</modified>
    <unit name="meter" meter="1"/>
    <up_axis>Z_UP</up_axis>
  </asset>
  <library_effects>
    <effect id="Plastic_002-effect">
      <profile_COMMON>
        <technique sid="common">
          <lambert>
            <emission>
              <color sid="emission">0 0 0 1</color>
            </emission>
            <diffuse>
              <color sid="diffuse">0.1424003 0.1424003 0.1424003 1</color>
            </diffuse>
            <reflectivity>
              <float sid="specular">0.5</float>
            </reflectivity>
            <index_of_refraction>
              <float sid="ior">1.45</float>
            </index_of_refraction>
          </lambert>
        </technique>
      </profile_COMMON>
    </effect>
    <effect id="Material_002-effect">
      <profile_COMMON>
        <technique sid="common">
          <lambert>
            <emission>
              <color sid="emission">0 0 0 1</color>
            </emission>
            <diffuse>
              <color sid="diffuse">0.002579445 0.002579445 0.002579445 1</color>
            </diffuse>
            <reflectivity>
              <float sid="specular">0.5</float>
            </reflectivity>
            <index_of_refraction>
              <float sid="ior">1.45</float>
            </index_of_refraction>
          </lambert>
        </technique>
      </profile_COMMON>
    </effect>
    <effect id="Material_006-effect">
      <profile_COMMON>
        <technique sid="common">
          <lambert>
            <emission>
              <color sid="emission">0 0 0 1</color>
            </emission>
            <diffuse>
              <color sid="diffuse">0.8000001 0 0.01585617 1</color>
            </diffuse>
            <reflectivity>
              <float sid="specular">0.5</float>
            </reflectivity>
            <index_of_refraction>
              <float sid="ior">1.45</float>
            </index_of_refraction>
          </lambert>
        </technique>
      </profile_COMMON>
    </effect>
  </library_effects>
  <library_images/>
  <library_materials>
    <material id="Plastic_002-material" name="Plastic.002">
      <instance_effect url="#Plastic_002-effect"/>
    </material>
    <material id="Material_002-material" name="Material.002">
      <instance_effect url="#Material_002-effect"/>
    </material>
    <material id="Material_006-material" name="Material.006">
      <instance_effect url="#Material_006-effect"/>
    </material>
  </library_materials>
  <library_geometries>
    <geometry id="Cylinder_015-mesh" name="Cylinder.015">
      <mesh>
        <source id="Cylinder_015-mesh-positions">
          <float_array id="Cylinder_015-mesh-positions-array" count="1299">0 0.02999997 -9.52706e-5 0 0.02999997 0.01990473 0.005852699 0.02942353 -9.52706e-5 0.005852699 0.02942353 0.01990473 0.01148045 0.02771627 -9.52706e-5 0.01148045 0.02771627 0.01990473 0.016667 0.024944 -9.52706e-5 0.016667 0.024944 0.01990473 0.02121317 0.02121317 -9.52706e-5 0.02121317 0.02121317 0.01990473 0.024944 0.016667 -9.52706e-5 0.024944 0.016667 0.01990473 0.02771627 0.01148045 -9.52706e-5 0.02771627 0.01148045 0.01990473 0.02942353 0.005852699 -9.52706e-5 0.02942353 0.005852699 0.01990473 0.02999997 0 -9.52706e-5 0.02999997 0 0.01990473 0.02942353 -0.005852699 -9.52706e-5 0.02942353 -0.005852699 0.01990473 0.02771627 -0.01148045 -9.52706e-5 0.02771627 -0.01148045 0.01990473 0.024944 -0.016667 -9.52706e-5 0.024944 -0.016667 0.01990473 0.02121317 -0.02121317 -9.52706e-5 0.02121317 -0.02121317 0.01990473 0.016667 -0.024944 -9.52706e-5 0.016667 -0.024944 0.01990473 0.01148045 -0.02771627 -9.52706e-5 0.01148045 -0.02771627 0.01990473 0.005852699 -0.02942353 -9.52706e-5 0.005852699 -0.02942353 0.01990473 0 -0.02999997 -9.52706e-5 0 -0.02999997 0.01990473 -0.005852699 -0.02942353 -9.52706e-5 -0.005852699 -0.02942353 0.01990473 -0.01148051 -0.02771627 -9.52706e-5 -0.01148051 -0.02771627 0.01990473 -0.01666706 -0.024944 -9.52706e-5 -0.01666706 -0.024944 0.01990473 -0.02121317 -0.02121317 -9.52706e-5 -0.02121317 -0.02121317 0.01990473 -0.024944 -0.016667 -9.52706e-5 -0.024944 -0.016667 0.01990473 -0.02771633 -0.01148045 -9.52706e-5 -0.02771633 -0.01148045 0.01990473 -0.02942353 -0.00585258 -9.52706e-5 -0.02942353 -0.00585258 0.01990473 -0.02999997 0 -9.52706e-5 -0.02999997 0 0.01990473 -0.02942353 0.005852699 -9.52706e-5 -0.02942353 0.005852699 0.01990473 -0.02771627 0.01148051 -9.52706e-5 -0.02771627 0.01148051 0.01990473 -0.024944 0.01666706 -9.52706e-5 -0.024944 0.01666706 0.01990473 -0.02121317 0.02121323 -9.52706e-5 -0.02121317 0.02121323 0.01990473 -0.016667 0.024944 -9.52706e-5 -0.016667 0.024944 0.01990473 -0.01148045 0.02771633 -9.52706e-5 -0.01148045 0.02771633 0.01990473 -0.00585258 0.02942353 -9.52706e-5 -0.00585258 0.02942353 0.01990473 0.01199996 -0.02249991 0.01190465 0.01199996 -0.02749997 0.01190465 0.0120576 -0.02249991 0.01248997 0.0120576 -0.02749997 0.01248997 0.01222831 -0.02249991 0.01305276 0.01222831 -0.02749997 0.01305276 0.01250559 -0.02249991 0.01357144 0.01250559 -0.02749997 0.01357144 0.01287859 -0.02249991 0.01402598 0.01287859 -0.02749997 0.01402598 0.01333326 -0.02249991 0.01439911 0.01333326 -0.02749997 0.01439911 0.01385194 -0.02249991 0.01467633 0.01385194 -0.02749997 0.01467633 0.01441466 -0.02249991 0.01484704 0.01441466 -0.02749997 0.01484704 0.01499992 -0.02249991 0.01490461 0.01499992 -0.02749997 0.01490461 0.01558524 -0.02249991 0.01484704 0.01558524 -0.02749997 0.01484704 0.01614803 -0.02249991 0.01467633 0.01614803 -0.02749997 0.01467633 0.01666671 -0.02249991 0.01439911 0.01666671 -0.02749997 0.01439911 0.01712131 -0.02249991 0.01402598 0.01712131 -0.02749997 0.01402598 0.01749438 -0.02249991 0.01357144 0.01749438 -0.02749997 0.01357144 0.0177716 -0.02249991 0.01305276 0.0177716 -0.02749997 0.01305276 0.01794224 -0.02249991 0.01248997 0.01794224 -0.02749997 0.01248997 0.01799988 -0.02249991 0.01190465 0.01799988 -0.02749997 0.01190465 0.01794224 -0.02249991 0.01131939 0.01794224 -0.02749997 0.01131939 0.0177716 -0.02249991 0.01075667 0.0177716 -0.02749997 0.01075667 0.01749438 -0.02249991 0.01023799 0.01749438 -0.02749997 0.01023799 0.01712131 -0.02249991 0.009783387 0.01712131 -0.02749997 0.009783387 0.01666665 -0.02249991 0.009410262 0.01666665 -0.02749997 0.009410262 0.01614803 -0.02249991 0.00913304 0.01614803 -0.02749997 0.00913304 0.01558524 -0.02249991 0.008962333 0.01558524 -0.02749997 0.008962333 0.01499992 -0.02249991 0.008904695 0.01499992 -0.02749997 0.008904695 0.0144146 -0.02249991 0.008962333 0.0144146 -0.02749997 0.008962333 0.01385194 -0.02249991 0.00913304 0.01385194 -0.02749997 0.00913304 0.01333326 -0.02249991 0.009410321 0.01333326 -0.02749997 0.009410321 0.01287859 -0.02249991 0.009783387 0.01287859 -0.02749997 0.009783387 0.01250553 -0.02249991 0.01023799 0.01250553 -0.02749997 0.01023799 0.01222831 -0.02249991 0.01075667 0.01222831 -0.02749997 0.01075667 0.0120576 -0.02249991 0.01131939 0.0120576 -0.02749997 0.01131939 -0.018 -0.02249991 0.01190465 -0.018 -0.02749997 0.01190465 -0.01794224 -0.02249991 0.01248997 -0.01794224 -0.02749997 0.01248997 -0.0177716 -0.02249991 0.01305276 -0.0177716 -0.02749997 0.01305276 -0.01749438 -0.02249991 0.01357144 -0.01749438 -0.02749997 0.01357144 -0.01712131 -0.02249991 0.01402598 -0.01712131 -0.02749997 0.01402598 -0.01666671 -0.02249991 0.01439911 -0.01666671 -0.02749997 0.01439911 -0.01614803 -0.02249991 0.01467633 -0.01614803 -0.02749997 0.01467633 -0.01558524 -0.02249991 0.01484704 -0.01558524 -0.02749997 0.01484704 -0.01499992 -0.02249991 0.01490461 -0.01499992 -0.02749997 0.01490461 -0.01441466 -0.02249991 0.01484704 -0.01441466 -0.02749997 0.01484704 -0.01385194 -0.02249991 0.01467633 -0.01385194 -0.02749997 0.01467633 -0.01333326 -0.02249991 0.01439911 -0.01333326 -0.02749997 0.01439911 -0.01287859 -0.02249991 0.01402598 -0.01287859 -0.02749997 0.01402598 -0.01250559 -0.02249991 0.01357144 -0.01250559 -0.02749997 0.01357144 -0.01222831 -0.02249991 0.01305276 -0.01222831 -0.02749997 0.01305276 -0.0120576 -0.02249991 0.01248997 -0.0120576 -0.02749997 0.01248997 -0.01199996 -0.02249991 0.01190465 -0.01199996 -0.02749997 0.01190465 -0.0120576 -0.02249991 0.01131939 -0.0120576 -0.02749997 0.01131939 -0.01222831 -0.02249991 0.01075667 -0.01222831 -0.02749997 0.01075667 -0.01250559 -0.02249991 0.01023799 -0.01250559 -0.02749997 0.01023799 -0.01287859 -0.02249991 0.009783387 -0.01287859 -0.02749997 0.009783387 -0.01333326 -0.02249991 0.009410262 -0.01333326 -0.02749997 0.009410262 -0.01385194 -0.02249991 0.00913304 -0.01385194 -0.02749997 0.00913304 -0.01441466 -0.02249991 0.008962333 -0.01441466 -0.02749997 0.008962333 -0.01499992 -0.02249991 0.008904695 -0.01499992 -0.02749997 0.008904695 -0.01558524 -0.02249991 0.008962333 -0.01558524 -0.02749997 0.008962333 -0.01614803 -0.02249991 0.00913304 -0.01614803 -0.02749997 0.00913304 -0.01666671 -0.02249991 0.009410321 -0.01666671 -0.02749997 0.009410321 -0.01712131 -0.02249991 0.009783387 -0.01712131 -0.02749997 0.009783387 -0.01749438 -0.02249991 0.01023799 -0.01749438 -0.02749997 0.01023799 -0.0177716 -0.02249991 0.01075667 -0.0177716 -0.02749997 0.01075667 -0.01794224 -0.02249991 0.01131939 -0.01794224 -0.02749997 0.01131939 -0.01738888 -0.02749997 0.01237988 -0.01743561 -0.02749997 0.01190465 -0.01725018 -0.02749997 0.01283681 -0.01702517 -0.02749997 0.01325792 -0.01672226 -0.02749997 0.01362699 -0.01635313 -0.02749997 0.0139299 -0.01593208 -0.02749997 0.01415497 -0.01547515 -0.02749997 0.01429361 -0.01499992 -0.02749997 0.0143404 -0.01452475 -0.02749997 0.01429361 -0.01406782 -0.02749997 0.01415497 -0.01364678 -0.02749997 0.0139299 -0.01327764 -0.02749997 0.01362699 -0.01297473 -0.02749997 0.01325792 -0.01274973 -0.02749997 0.01283681 -0.01261109 -0.02749997 0.01237988 -0.0125643 -0.02749997 0.01190465 -0.01261109 -0.02749997 0.01142948 -0.01274973 -0.02749997 0.01097255 -0.01297473 -0.02749997 0.01055151 -0.01327764 -0.02749997 0.01018244 -0.01364678 -0.02749997 0.009879529 -0.01406782 -0.02749997 0.009654402 -0.01452475 -0.02749997 0.009515821 -0.01499992 -0.02749997 0.009469032 -0.01547515 -0.02749997 0.009515821 -0.01593208 -0.02749997 0.009654402 -0.01635313 -0.02749997 0.009879529 -0.01672226 -0.02749997 0.01018244 -0.01702517 -0.02749997 0.01055151 -0.01725018 -0.02749997 0.01097255 -0.01738888 -0.02749997 0.01142948 -0.01738888 -0.02600002 0.01142948 -0.01725018 -0.02600002 0.01097255 -0.01702517 -0.02600002 0.01055151 -0.01672226 -0.02600002 0.01018244 -0.01635313 -0.02600002 0.009879529 -0.01593208 -0.02600002 0.009654402 -0.01547515 -0.02600002 0.009515821 -0.01499992 -0.02600002 0.009469032 -0.01452475 -0.02600002 0.009515821 -0.01406782 -0.02600002 0.009654402 -0.01364678 -0.02600002 0.009879529 -0.01327764 -0.02600002 0.01018244 -0.01297473 -0.02600002 0.01055151 -0.01274973 -0.02600002 0.01097255 -0.01261109 -0.02600002 0.01142948 -0.0125643 -0.02600002 0.01190465 -0.01261109 -0.02600002 0.01237988 -0.01274973 -0.02600002 0.01283681 -0.01297473 -0.02600002 0.01325792 -0.01327764 -0.02600002 0.01362699 -0.01364678 -0.02600002 0.0139299 -0.01406782 -0.02600002 0.01415497 -0.01452475 -0.02600002 0.01429361 -0.01499992 -0.02600002 0.0143404 -0.01547515 -0.02600002 0.01429361 -0.01593208 -0.02600002 0.01415497 -0.01635313 -0.02600002 0.0139299 -0.01672226 -0.02600002 0.01362699 -0.01702517 -0.02600002 0.01325792 -0.01725018 -0.02600002 0.01283681 -0.01743561 -0.02600002 0.01190465 -0.01738888 -0.02600002 0.01237988 0.01385635 -0.02749997 0.0121321 0.01383394 -0.02749997 0.01190465 0.01392269 -0.02749997 0.01235085 0.01403039 -0.02749997 0.01255244 0.01417547 -0.02749997 0.01272916 0.01435214 -0.02749997 0.01287418 0.01455366 -0.02749997 0.01298201 0.01477247 -0.02749997 0.01304835 0.01499992 -0.02749997 0.01307076 0.01522737 -0.02749997 0.01304835 0.01544612 -0.02749997 0.01298201 0.0156477 -0.02749997 0.01287418 0.01582443 -0.02749997 0.01272916 0.01596951 -0.02749997 0.01255244 0.01607728 -0.02749997 0.01235085 0.01614362 -0.02749997 0.0121321 0.01616603 -0.02749997 0.01190465 0.01614362 -0.02749997 0.01167714 0.01607728 -0.02749997 0.01145839 0.01596951 -0.02749997 0.01125687 0.01582443 -0.02749997 0.01108014 0.0156477 -0.02749997 0.01093512 0.01544612 -0.02749997 0.01082742 0.01522737 -0.02749997 0.01076108 0.01499992 -0.02749997 0.01073867 0.01477247 -0.02749997 0.01076108 0.01455366 -0.02749997 0.01082742 0.01435214 -0.02749997 0.01093512 0.01417547 -0.02749997 0.01108014 0.01403039 -0.02749997 0.01125687 0.01392269 -0.02749997 0.01145839 0.01385635 -0.02749997 0.01167714 0.01385635 -0.02649992 0.0121321 0.01383394 -0.02649992 0.01190465 0.01392269 -0.02649992 0.01235085 0.01403039 -0.02649992 0.01255244 0.01417547 -0.02649992 0.01272916 0.01435214 -0.02649992 0.01287418 0.01455366 -0.02649992 0.01298201 0.01477247 -0.02649992 0.01304835 0.01499992 -0.02649992 0.01307076 0.01522737 -0.02649992 0.01304835 0.01544612 -0.02649992 0.01298201 0.0156477 -0.02649992 0.01287418 0.01582443 -0.02649992 0.01272916 0.01596951 -0.02649992 0.01255244 0.01607728 -0.02649992 0.01235085 0.01614362 -0.02649992 0.0121321 0.01616603 -0.02649992 0.01190465 0.01614362 -0.02649992 0.01167714 0.01607728 -0.02649992 0.01145839 0.01596951 -0.02649992 0.01125687 0.01582443 -0.02649992 0.01108014 0.0156477 -0.02649992 0.01093512 0.01544612 -0.02649992 0.01082742 0.01522737 -0.02649992 0.01076108 0.01499992 -0.02649992 0.01073867 0.01477247 -0.02649992 0.01076108 0.01455366 -0.02649992 0.01082742 0.01435214 -0.02649992 0.01093512 0.01417547 -0.02649992 0.01108014 0.01403039 -0.02649992 0.01125687 0.01392269 -0.02649992 0.01145839 0.01385635 -0.02649992 0.01167714 0 0.02999997 0.01190465 0.005852699 0.02942353 0.01190465 0.01148045 0.02771627 0.01190465 0.016667 0.024944 0.01190465 0.02121317 0.02121317 0.01190465 0.024944 0.016667 0.01190465 0.02771627 0.01148045 0.01190465 0.02942353 0.005852699 0.01190465 0.02999997 0 0.01190465 0.02942353 -0.005852699 0.01190465 0.02771627 -0.01148045 0.01190465 0.024944 -0.016667 0.01190465 0.02121317 -0.02121317 0.01190465 0.016667 -0.024944 0.01190465 0.01148045 -0.02771627 0.01190465 0.005852699 -0.02942353 0.01190465 0 -0.02999997 0.01190465 -0.005852699 -0.02942353 0.01190465 -0.01148051 -0.02771627 0.01190465 -0.01666706 -0.024944 0.01190465 -0.02121317 -0.02121317 0.01190465 -0.024944 -0.016667 0.01190465 -0.02771633 -0.01148045 0.01190465 -0.02942353 -0.00585258 0.01190465 -0.02999997 0 0.01190465 -0.02942353 0.005852699 0.01190465 -0.02771627 0.01148051 0.01190465 -0.024944 0.01666706 0.01190465 -0.02121317 0.02121323 0.01190465 -0.016667 0.024944 0.01190465 -0.01148045 0.02771633 0.01190465 -0.00585258 0.02942353 0.01190465 0.005852699 0.02942353 0.008904695 0.01148045 0.02771627 0.008904695 0.016667 0.024944 0.008904695 0.02121317 0.02121317 0.008904695 0.024944 0.016667 0.008904695 0.02771627 0.01148045 0.008904695 0.02942353 0.005852699 0.008904695 0.02999997 0 0.008904695 0.02942353 -0.005852699 0.008904695 0.02771627 -0.01148045 0.008904695 0.024944 -0.016667 0.008904695 0.02121317 -0.02121317 0.008904695 0.016667 -0.024944 0.008904695 0.01148045 -0.02771627 0.008904695 0.005852699 -0.02942353 0.008904695 0 -0.02999997 0.008904695 -0.005852699 -0.02942353 0.008904695 -0.01148051 -0.02771627 0.008904695 -0.01666706 -0.024944 0.008904695 -0.02121317 -0.02121317 0.008904695 -0.024944 -0.016667 0.008904695 -0.02771633 -0.01148045 0.008904695 -0.02942353 -0.00585258 0.008904695 -0.02999997 0 0.008904695 -0.02942353 0.005852699 0.008904695 -0.02771627 0.01148051 0.008904695 -0.024944 0.01666706 0.008904695 -0.02121317 0.02121323 0.008904695 -0.016667 0.024944 0.008904695 -0.01148045 0.02771633 0.008904695 -0.00585258 0.02942353 0.008904695 0 0.02999997 0.008904695 0 0.02999997 0.01490461 0.005852699 0.02942353 0.01490461 0.01148045 0.02771627 0.01490461 0.016667 0.024944 0.01490461 0.02121317 0.02121317 0.01490461 0.024944 0.016667 0.01490461 0.02771627 0.01148045 0.01490461 0.02942353 0.005852699 0.01490461 0.02999997 0 0.01490461 0.02942353 -0.005852699 0.01490461 0.02771627 -0.01148045 0.01490461 0.024944 -0.016667 0.01490461 0.02121317 -0.02121317 0.01490461 0.016667 -0.024944 0.01490461 0.01148045 -0.02771627 0.01490461 0.005852699 -0.02942353 0.01490461 0 -0.02999997 0.01490461 -0.005852699 -0.02942353 0.01490461 -0.01148051 -0.02771627 0.01490461 -0.01666706 -0.024944 0.01490461 -0.02121317 -0.02121317 0.01490461 -0.024944 -0.016667 0.01490461 -0.02771633 -0.01148045 0.01490461 -0.02942353 -0.00585258 0.01490461 -0.02999997 0 0.01490461 -0.02942353 0.005852699 0.01490461 -0.02771627 0.01148051 0.01490461 -0.024944 0.01666706 0.01490461 -0.02121317 0.02121323 0.01490461 -0.016667 0.024944 0.01490461 -0.01148045 0.02771633 0.01490461 -0.00585258 0.02942353 0.01490461 -0.01798599 -0.02386152 -9.52706e-5 -0.01798599 -0.02386152 0.01990473 -0.01798599 -0.02386152 0.01190465 -0.01798599 -0.02386152 0.008904695 -0.01798599 -0.02386152 0.01490461 -0.0122438 -0.02730834 -9.52706e-5 -0.0122438 -0.02730834 0.01990473 -0.0122438 -0.02730834 0.01190465 -0.0122438 -0.02730834 0.008904695 -0.0122438 -0.02730834 0.01490461 -0.0149936 -0.02583855 -9.52706e-5 -0.0149936 -0.02583855 0.01190465 -0.0149936 -0.02583855 0.008904695 -0.0149936 -0.02583855 0.01490461 -0.0149936 -0.02583855 0.01990473 -0.01310938 -0.02684563 0.0137763 -0.01316177 -0.02681761 0.009926974</float_array>
          <technique_common>
            <accessor source="#Cylinder_015-mesh-positions-array" count="433" stride="3">
              <param name="X" type="float"/>
              <param name="Y" type="float"/>
              <param name="Z" type="float"/>
            </accessor>
          </technique_common>
        </source>
        <source id="Cylinder_015-mesh-normals">
          <float_array id="Cylinder_015-mesh-normals-array" count="1638">-4.8138e-7 1 0 0.1950936 0.9807847 0 -5.02828e-7 1 0 0.1950935 0.9807847 0 0.3826843 0.9238792 0 0.3826842 0.9238792 0 0.555568 0.8314712 0 0.5555679 0.8314712 0 0.7071069 0.7071067 0 0.7071067 0.7071068 0 0.8314712 0.5555681 0 0.8314711 0.5555682 0 0.9238793 0.3826842 0 0.9238793 0.3826842 0 0.9807847 0.1950934 0 0.9807847 0.1950935 0 1 0 0 1 0 0 0.9807847 -0.1950935 0 0.9807847 -0.1950935 0 0.9238792 -0.3826843 0 0.9238792 -0.3826842 0 0.8314712 -0.5555679 0 0.8314712 -0.555568 0 0.7071067 -0.7071069 0 0.7071068 -0.7071068 0 0.555568 -0.8314712 0 0.5555679 -0.8314712 0 0.3826842 -0.9238792 0 0.3826842 -0.9238793 0 0.1950935 -0.9807847 0 0.1950935 -0.9807847 0 0 -1 0 0 -1 0 -0.1950921 -0.980785 0 -0.195092 -0.980785 0 -0.3826717 -0.9238845 0 -0.4713999 -0.8819196 0 -0.5555833 -0.831461 0 -0.4713997 -0.8819198 0 -0.6344031 -0.7730024 0 -0.7071057 -0.7071079 0 -0.6344029 -0.7730026 0 -0.7071056 -0.7071079 0 -0.8314687 -0.5555717 0 -0.8314685 -0.5555719 0 -0.92388 -0.3826825 0 -0.9238799 -0.3826825 0 -0.9807859 -0.1950877 0 -0.9807858 -0.1950879 0 -1 -4.59932e-7 0 -1 -5.14743e-7 0 -0.980785 0.195092 0 -0.980785 0.195092 0 -0.9238798 0.3826829 0 -0.9238799 0.3826829 0 -0.8314712 0.5555679 0 -0.8314712 0.555568 0 -0.7071039 0.7071097 0 -0.707104 0.7071096 0 -0.5555685 0.8314708 0 -0.3826826 0.9238799 0 0 0 1 -0.3826825 0.9238799 0 -0.1950878 0.9807859 0 -0.1950877 0.9807859 0 0 0 -1 -1 0 0 -0.9807875 0 0.1950795 -1 0 0 -0.9807875 0 0.195079 -0.9238716 0 0.3827029 -0.9238717 0 0.3827024 -0.8314603 0 0.5555842 -0.831461 0 0.5555832 -0.7071075 0 0.7071061 -0.7071083 0 0.7071053 -0.5555476 0 0.8314849 -0.5555475 0 0.8314849 -0.3826627 0 0.9238882 -0.3826645 0 0.9238874 -0.1950736 0 0.9807887 -0.1950734 0 0.9807887 -2.28774e-6 0 1 2.28297e-6 0 1 0.195071 0 0.9807891 0.195071 0 0.9807891 0.3826625 0 0.9238883 0.3826602 0 0.9238892 0.5555525 0 0.8314816 0.5555524 0 0.8314816 0.7071076 0 0.707106 0.7071063 0 0.7071073 0.8314824 0 0.5555512 0.8314812 0 0.555553 0.9238921 0 0.3826534 0.9238917 0 0.3826542 0.9807892 0 0.1950708 0.9807891 0 0.1950714 1 0 0 0.9807887 0 -0.1950736 0.9807886 0 -0.1950739 0.9238909 0 -0.382656 0.9238908 0 -0.3826566 0.831483 0 -0.5555505 0.8314825 0 -0.555551 0.7071105 0 -0.7071031 0.7071107 0 -0.7071029 0.555576 0 -0.8314658 0.5555774 0 -0.8314648 0.3826823 0 -0.92388 0.3826832 0 -0.9238797 0.1950746 0 -0.9807885 0.1950767 0 -0.980788 2.75006e-6 0 -1 7.31601e-6 0 -1 -0.1950891 0 -0.9807856 -0.1950867 0 -0.9807861 -0.3827178 0 -0.9238653 -0.3827175 0 -0.9238654 -0.5555832 0 -0.831461 -0.5555831 0 -0.831461 -0.7070793 0 -0.7071343 -0.7070794 0 -0.7071343 -0.8314646 0 -0.5555778 -0.8314647 0 -0.5555778 -0.9238876 0 -0.382664 0 -1 1.6947e-6 -0.9238878 0 -0.3826637 -0.980787 0 -0.195082 -0.980787 0 -0.1950818 0 1 1.61686e-6 -1 0 0 -0.980779 0 0.1951224 -1 0 0 -0.9807791 0 0.1951219 -0.9238917 0 0.3826539 -0.923892 0 0.3826535 -0.8314816 0 0.5555524 -0.831482 0 0.5555517 -0.7071066 0 0.7071071 -0.7071073 0 0.7071063 -0.5555526 0 0.8314815 -0.5555523 0 0.8314816 -0.3826604 0 0.9238891 -0.3826622 0 0.9238884 -0.1950711 0 0.9807891 -0.1950709 0 0.9807891 0.1950735 0 0.9807887 0.3826647 0 0.9238873 0.3826625 0 0.9238883 0.5555475 0 0.8314848 0.5555475 0 0.8314849 0.7071085 0 0.7071051 0.7071074 0 0.7071063 0.8314817 0 0.5555523 0.8314808 0 0.5555537 0.9238706 0 0.382705 0.9238703 0 0.3827059 0.9807798 0 0.1951182 0.9807797 0 0.1951191 1 0 0 1 0 0 0.9807792 0 -0.1951209 0.9807792 0 -0.1951215 0.9238696 0 -0.3827078 0.9238693 0 -0.3827083 0.8314822 0 -0.5555515 0.8314821 0 -0.5555517 0.707134 0 -0.7070795 0.7071346 0 -0.7070791 0.5555779 0 -0.8314645 0.5555794 0 -0.8314635 0.3826627 0 -0.9238882 0.3826634 0 -0.9238879 0.1950771 0 -0.980788 0.1950792 0 -0.9807875 -2.28298e-6 0 -1 2.27821e-6 0 -1 -0.1950768 0 -0.980788 -0.1950745 0 -0.9807885 -0.3827016 0 -0.9238721 -0.3827014 0 -0.9238721 -0.5555881 0 -0.8314577 -0.5555881 0 -0.8314577 -0.7071061 0 -0.7071075 -0.7071058 0 -0.7071078 -0.8314829 0 -0.5555505 -0.8314825 0 -0.555551 -0.9238908 0 -0.3826563 0 -1 1.69574e-6 -0.9238908 0 -0.3826562 -0.9807784 0 -0.1951248 -0.9807785 0 -0.1951246 0 1 0 0 -1 0 0 -1 -6.78336e-6 0 -1 5.50762e-6 0 -1 1.37695e-6 0 -1 5.50732e-6 0 -1 6.78352e-6 0 -1 8.47926e-7 0 -1 6.78382e-6 0 -1 -6.78322e-6 0 -1 -5.508e-6 0 -1 -1.377e-6 0 -1 3.39152e-6 0 -1 -6.78302e-6 0 -1 -6.78352e-6 0 -1 -1.37683e-6 0 -1 -5.5074e-6 0 -1 3.39151e-6 -0.9807815 0 -0.1951094 -1 0 0 -1 0 -2.19242e-7 0.7071039 0 0.7071097 0.8314712 0 0.5555679 0.8314707 0 0.5555688 0.9807811 0 -0.1951112 0.9238733 0 -0.3826985 0.9238727 0 -0.3827001 -0.9238774 0 -0.3826885 -0.9807813 0 -0.1951104 0.5556146 0 0.83144 0.7071043 0 0.7071093 1 0 0 0.9807814 0 -0.19511 -0.8314737 0 -0.5555642 -0.923877 0 -0.3826896 0.3826945 0 0.923875 0.5556147 0 0.8314399 -0.7071027 0 -0.7071109 -0.8314734 0 -0.5555647 0.1950523 0 0.9807929 0.3826954 0 0.9238746 -0.5555698 0 -0.8314699 -0.7071019 0 -0.7071117 0 0 1 0.1950531 0 0.9807928 -0.3827018 0 -0.9238719 -0.5555697 0 -0.8314701 -0.1950528 0 0.9807928 0 0 1 -0.1951101 0 -0.9807814 -0.3827025 0 -0.9238716 -0.3826951 0 0.9238747 -0.195052 0 0.9807929 2.0399e-6 0 -1 -0.1951123 0 -0.980781 -0.5556155 0 0.8314395 -0.382695 0 0.9238749 0.1951124 0 -0.980781 -2.00177e-6 0 -1 -0.7071039 0 0.7071097 -0.5556147 0 0.8314399 0.382702 0 -0.9238719 0.1951103 0 -0.9807813 -0.831471 0 0.5555683 -0.7071025 0 0.707111 0.55557 0 -0.8314698 -0.9238752 0 0.382694 -0.8314707 0 0.5555687 0.9807813 0 0.1951107 1 0 -1.95411e-7 0.7071029 0 -0.7071107 0.5555694 0 -0.8314702 -0.9807813 0 0.1951106 -0.9238755 0 0.3826935 0.9238711 0 0.3827041 0.9807812 0 0.195111 0.8314733 0 -0.5555648 0.7071028 0 -0.7071108 -0.9807813 0 0.19511 0.923871 0 0.3827042 0.8314738 0 -0.555564 -1.30735e-5 0 -1 -0.1950713 0 -0.9807891 -0.1950744 0 -0.9807885 0 -1 5.17844e-6 0 -1 -2.17973e-6 0 -1 -1.09004e-5 0 -1 -6.54037e-6 0 -1 -5.17706e-6 0 -1 -1.08985e-5 0 -1 2.18006e-6 0 -1 -6.7786e-6 0 -1 4.90513e-6 0 -1 -2.18013e-6 0 -1 6.77855e-6 0 -1 8.72052e-6 0 -1 -3.38935e-6 0 -1 -4.90501e-6 0 -1 6.77848e-6 0 -1 2.18e-6 0 -1 -6.54034e-6 -0.1950783 0 0.9807877 -0.3826728 0 0.923884 -0.1950718 0 0.980789 -0.3826923 0 -0.9238759 -0.3826918 0 -0.9238761 -1.30354e-5 0 1 -1.28781e-5 0 1 -0.5555827 0 -0.8314614 -0.5555804 0 -0.8314629 0.1950591 0 0.9807915 0.1950656 0 0.9807902 -0.7071089 0 -0.7071048 -0.7071072 0 -0.7071064 0.3826728 0 0.923884 0.3826723 0 0.9238842 -0.8314618 0 -0.5555821 -0.8314607 0 -0.5555836 0.5556344 0 0.8314268 0.5556313 0 0.831429 -0.9238752 0 -0.3826942 -0.9238759 0 -0.3826923 1 0 -1.24873e-5 0.980789 0 -0.1950715 0.9807892 0 -0.1950711 0.7071088 0 0.7071049 0.7071063 0 0.7071073 -0.9807891 0 -0.1950714 -0.9807891 0 -0.195071 0.9238831 0 -0.3826747 0.923883 0 -0.3826752 0.8314262 0 0.5556353 0.8314265 0 0.5556349 -1 0 -1.24873e-5 -1 0 -1.28257e-5 0.8314723 0 -0.5555662 0.9238827 0 0.382676 0.9238843 0 0.3826719 -0.9807916 0 0.1950587 -0.9807916 0 0.1950588 0.707166 0 -0.7070476 0.7071666 0 -0.707047 0.9807916 0 0.1950588 0.9807916 0 0.1950587 -0.9238766 0 0.3826906 -0.9238753 0 0.3826939 0.5556495 0 -0.8314167 0.5556514 0 -0.8314155 1 0 -1.28257e-5 -0.8314152 0 0.5556516 -0.8314155 0 0.5556514 0.3826924 0 -0.9238758 0.3826914 0 -0.9238762 -0.7070483 0 0.7071653 -0.70705 0 0.7071636 0.1950619 0 -0.980791 0.1950585 0 -0.9807916 -0.5555629 0 0.8314747 -0.5555651 0 0.8314731 -1.28924e-5 0 -1 -0.3826723 0 0.9238842 -0.1950877 0.9807859 0 -5.00444e-7 1 0 -0.1950877 0.9807859 0 -0.3826826 0.9238799 0 -0.3826826 0.9238799 0 -0.5555685 0.8314708 0 -0.5555684 0.8314709 0 -0.7071039 0.7071096 0 -0.8314712 0.555568 0 -0.9238799 0.3826829 0 -0.9238798 0.3826828 0 -0.980785 0.1950919 0 -0.980785 0.195092 0 -1 -5.63596e-7 0 -1 -5.04019e-7 0 -0.9807858 -0.1950879 0 -0.9807858 -0.1950877 0 -0.92388 -0.3826825 0 -0.92388 -0.3826825 0 -0.8314688 -0.5555716 0 -0.8314688 -0.5555717 0 -0.7071057 -0.7071079 0 -0.7071058 -0.7071079 0 -0.634403 -0.7730025 0 -0.6344028 -0.7730028 0 -0.4714 -0.8819195 0 -0.5555831 -0.831461 0 -0.4713997 -0.8819198 0 -0.1950921 -0.980785 0 -0.3826715 -0.9238845 0 0 -1 0 0 -1 0 0.1950935 -0.9807847 0 0.3826843 -0.9238792 0 0.5555679 -0.8314712 0 0.5555679 -0.8314712 0 0.7071068 -0.7071068 0 0.8314712 -0.5555679 0 0.9238792 -0.3826842 0 0.9238793 -0.3826842 0 0.9807847 -0.1950933 0 1 0 0 1 0 0 0.9807847 0.1950935 0 0.9807847 0.1950936 0 0.9238793 0.3826842 0 0.9238793 0.3826842 0 0.8314712 0.555568 0 0.8314712 0.5555679 0 0.7071068 0.7071068 0 0.5555679 0.8314712 0 0.555568 0.8314712 0 0.3826842 0.9238793 0 0.3826842 0.9238793 0 0.1950936 0.9807847 0 0.1950935 0.9807847 0 -5.09381e-7 1 0 -4.95678e-7 1 0 0.3826843 0.9238792 0 0.5555679 0.8314712 0 0.7071067 0.7071069 0 0.8314712 0.555568 0 0.9238793 0.3826841 0 0.9807847 0.1950935 0 1 0 0 0.9807846 -0.1950938 0 0.9238792 -0.3826843 0 0.8314713 -0.5555679 0 0.3826842 -0.9238792 0 0.1950935 -0.9807847 0 0 -1 0 -0.3826716 -0.9238845 0 -0.5555838 -0.8314605 0 -0.4713998 -0.8819198 0 -0.6344032 -0.7730023 0 -0.8314686 -0.5555717 0 -0.9238799 -0.3826826 0 -0.9807858 -0.1950877 0 -1 -4.90912e-7 0 -0.980785 0.1950924 0 -0.9238798 0.3826829 0 -0.8314712 0.5555679 0 -0.5555683 0.8314709 0 -0.3826826 0.9238799 0 -0.1950878 0.9807859 0 -0.5555835 -0.8314607 0 -0.3826715 -0.9238846 0 -0.5555838 -0.8314606 0 -0.4713711 -0.881935 0 -0.471371 -0.8819351 0 -0.3826719 -0.9238843 0 -0.4713713 -0.8819349 0 -0.471433 -0.8819019 0 -0.4713941 -0.8819227 0 -0.4713941 -0.8819227 9.13082e-6 -0.4713941 -0.8819227 0 -6.92383e-7 0 1 -1.02916e-6 0 1 1.73113e-6 0 1 1.51902e-6 0 1 1.6819e-7 0 1 2.33584e-7 0 1 -3.83695e-7 0 1 2.15659e-6 0 1 2.15659e-6 0 1 0 0 1 -1.27586e-7 0 1 0 0 -1 0 0 -1 0 0 -1 0 0 -1 0 0 -1 0 0 -1 0 0 -1 0 0 -1 0 0 -1 0 0 -1 0 0 -1 0 0 -1 0 0 -1 0 1 -1.34727e-5 0 1 2.69598e-5 0 1 2.69593e-5 0 1 -1.34789e-5 0 1 4.64072e-6 0 1 -2.69545e-5 0 1 -2.69611e-5 0 1 9.28048e-6 0 1 -6.93801e-6 0 1 -2.63698e-6 0 -1 5.5079e-6 0 1 1.82053e-5 0 1 -2.69444e-5 0 1 -2.43633e-6 0 1 -1.61691e-6 0 -1 6.78356e-6 0 -1 -8.47926e-7 0 -1 -6.78332e-6 0 -1 -5.50732e-6 0 -1 -6.78371e-6 0 -1 -1.69575e-6 0 -1 -5.50723e-6 0 -1 -5.50743e-6 0 -1 -3.39179e-6 0 -1 -5.0875e-6 0 -1 5.08823e-6 0 -1 1.37697e-6 0 -1 3.39177e-6 0 -1 5.50761e-6 0 -1 6.78341e-6 0 -1 -1.69474e-6 0 -1 6.5391e-6 0 -1 6.77879e-6 0 -1 4.90496e-6 0 -1 3.38911e-6 0 -1 -3.27002e-6 0 -1 5.17824e-6 0 -1 -5.17686e-6 0 -1 -1.41708e-5 0 -1 -3.38944e-6 0 -1 2.18007e-6 0 -1 -4.90483e-6 0 -1 -3.38929e-6 0 -1 -6.54044e-6 -0.4713717 -0.8819348 0 -0.4713944 -0.8819226 -3.92936e-5 -0.4713945 -0.8819225 0 -0.4713988 -0.8819202 0 -0.4713944 -0.8819226 0 0 -1 -2.45287e-6 0 -1 4.09115e-5 0 -1 -2.76152e-5 0 -1 -4.09123e-5 0 -1 2.76174e-5 0 -1 2.81606e-5 0 -1 1.02304e-5 0 -1 -1.47853e-5 0 -1 8.00118e-6 0 -1 1.73445e-6 0 -1 -1.73444e-6 0 -1 1.11597e-5 0 -1 8.92578e-5 0 -1 4.4617e-5 0 -1 -1.11562e-5 0 -1 -8.92797e-5 0 -1 2.46287e-4 0 -1 -2.29682e-5 0 -1 8.72753e-6 0 -1 8.72817e-6 0 -1 -1.61237e-5 0 -1 5.35151e-6</float_array>
          <technique_common>
            <accessor source="#Cylinder_015-mesh-normals-array" count="546" stride="3">
              <param name="X" type="float"/>
              <param name="Y" type="float"/>
              <param name="Z" type="float"/>
            </accessor>
          </technique_common>
        </source>
        <source id="Cylinder_015-mesh-map-0">
          <float_array id="Cylinder_015-mesh-map-0-array" count="5100">1 1 0.96875 0.8958094 1 0.8958093 0.96875 1 0.9375 0.8958094 0.96875 0.8958094 0.9375 1 0.90625 0.8958094 0.9375 0.8958094 0.90625 1 0.8750001 0.8958094 0.90625 0.8958094 0.8750001 1 0.84375 0.8958094 0.8750001 0.8958094 0.84375 1 0.8125 0.8958094 0.84375 0.8958094 0.8125 1 0.78125 0.8958094 0.8125 0.8958094 0.78125 1 0.75 0.8958095 0.78125 0.8958094 0.75 1 0.71875 0.8958094 0.75 0.8958095 0.71875 1 0.6875 0.8958094 0.71875 0.8958094 0.6875 1 0.65625 0.8958094 0.6875 0.8958094 0.65625 1 0.625 0.8958094 0.65625 0.8958094 0.625 1 0.59375 0.8958094 0.625 0.8958094 0.59375 1 0.5625 0.8958094 0.59375 0.8958094 0.5625 1 0.53125 0.8958094 0.5625 0.8958094 0.53125 1 0.5 0.8958094 0.53125 0.8958094 0.5 1 0.46875 0.8958094 0.5 0.8958094 0.46875 1 0.4375 0.8958094 0.46875 0.8958094 0.4163329 1 0.40625 0.8958094 0.4163328 0.8958094 0.3971834 1 0.375 0.8958094 0.3971834 0.8958094 0.375 1 0.34375 0.8958094 0.375 0.8958094 0.34375 1 0.3125 0.8958094 0.34375 0.8958094 0.3125 1 0.28125 0.8958094 0.3125 0.8958094 0.28125 1 0.25 0.8958094 0.28125 0.8958094 0.25 1 0.21875 0.8958094 0.25 0.8958094 0.21875 1 0.1875 0.8958094 0.21875 0.8958094 0.1875 1 0.15625 0.8958094 0.1875 0.8958094 0.15625 1 0.125 0.8958094 0.15625 0.8958094 0.125 1 0.09375 0.8958094 0.125 0.8958094 0.09375 1 0.0625 0.8958094 0.09375 0.8958094 0.4717311 0.158156 0.49 0.25 0.1300507 0.04329138 0.0625 1 0.03125 0.8958094 0.0625 0.8958094 0.03125 1 0 0.8958095 0.03125 0.8958094 0.5504475 0.3833371 0.6166634 0.4495529 0.6061113 0.05910688 1 1 0.96875 0.5 1 0.5 0.96875 1 0.9375 0.5 0.96875 0.5 0.9375 1 0.90625 0.5 0.9375 0.5 0.90625 1 0.8750001 0.5 0.90625 0.5 0.8750001 1 0.84375 0.5 0.8750001 0.5 0.84375 1 0.8125 0.5 0.84375 0.5 0.8125 1 0.78125 0.5 0.8125 0.5 0.78125 1 0.75 0.5 0.78125 0.5 0.75 1 0.71875 0.5 0.75 0.5 0.71875 1 0.6875 0.5 0.71875 0.5 0.6875 1 0.65625 0.5 0.6875 0.5 0.65625 1 0.625 0.5 0.65625 0.5 0.625 1 0.59375 0.5 0.625 0.5 0.59375 1 0.5625 0.5 0.59375 0.5 0.5625 1 0.53125 0.5 0.5625 0.5 0.53125 1 0.5 0.5 0.53125 0.5 0.5 1 0.46875 0.5 0.5 0.5 0.46875 1 0.4375 0.5 0.46875 0.5 0.4375 1 0.40625 0.5 0.4375 0.5 0.40625 1 0.375 0.5 0.40625 0.5 0.375 1 0.34375 0.5 0.375 0.5 0.34375 1 0.3125 0.5 0.34375 0.5 0.3125 1 0.28125 0.5 0.3125 0.5 0.28125 1 0.25 0.5 0.28125 0.5 0.25 1 0.21875 0.5 0.25 0.5 0.21875 1 0.1875 0.5 0.21875 0.5 0.1875 1 0.15625 0.5 0.1875 0.5 0.15625 1 0.125 0.5 0.15625 0.5 0.125 1 0.09375 0.5 0.125 0.5 0.09375 1 0.0625 0.5 0.09375 0.5 0.8125 1 0.78125 1 0.78125 1 0.0625 1 0.03125 0.5 0.0625 0.5 0.03125 1 0 0.5 0.03125 0.5 0.616663 0.05044734 0.5146115 0.2031785 0.7031787 0.4853885 1 1 0.96875 0.5 1 0.5 0.96875 1 0.9375 0.5 0.96875 0.5 0.9375 1 0.90625 0.5 0.9375 0.5 0.90625 1 0.8750001 0.5 0.90625 0.5 0.8750001 1 0.84375 0.5 0.8750001 0.5 0.84375 1 0.8125 0.5 0.84375 0.5 0.8125 1 0.78125 0.5 0.8125 0.5 0.78125 1 0.75 0.5 0.78125 0.5 0.75 1 0.71875 0.5 0.75 0.5 0.71875 1 0.6875 0.5 0.71875 0.5 0.6875 1 0.65625 0.5 0.6875 0.5 0.65625 1 0.625 0.5 0.65625 0.5 0.625 1 0.59375 0.5 0.625 0.5 0.59375 1 0.5625 0.5 0.59375 0.5 0.5625 1 0.53125 0.5 0.5625 0.5 0.53125 1 0.5 0.5 0.53125 0.5 0.5 1 0.46875 0.5 0.5 0.5 0.46875 1 0.4375 0.5 0.46875 0.5 0.4375 1 0.40625 0.5 0.4375 0.5 0.40625 1 0.375 0.5 0.40625 0.5 0.375 1 0.34375 0.5 0.375 0.5 0.34375 1 0.3125 0.5 0.34375 0.5 0.3125 1 0.28125 0.5 0.3125 0.5 0.28125 1 0.25 0.5 0.28125 0.5 0.25 1 0.21875 0.5 0.25 0.5 0.21875 1 0.1875 0.5 0.21875 0.5 0.1875 1 0.15625 0.5 0.1875 0.5 0.15625 1 0.125 0.5 0.15625 0.5 0.125 1 0.09375 0.5 0.125 0.5 0.09375 1 0.0625 0.5 0.09375 0.5 0.9375 1 0.96875 1 0.9375 1 0.0625 1 0.03125 0.5 0.0625 0.5 0.03125 1 0 0.5 0.03125 0.5 0.616663 0.05044734 0.5146115 0.2031785 0.7031787 0.4853885 0.6875 1 0.65625 1 0.65625 1 0.375 1 0.40625 1 0.375 1 0.125 1 0.09375 1 0.09375 1 0.8125 1 0.78125 1 0.78125 1 0.53125 1 0.5 1 0.5 1 0.21875 1 0.25 1 0.21875 1 0.9375 1 0.90625 1 0.90625 1 0.65625 1 0.625 1 0.625 1 0.34375 1 0.375 1 0.34375 1 0.0625 1 0.09375 1 0.0625 1 0.75 1 0.78125 1 0.75 1 0.46875 1 0.5 1 0.46875 1 0.21875 1 0.1875 1 0.1875 1 0.90625 1 0.8750001 1 0.8750001 1 0.59375 1 0.625 1 0.59375 1 0.3125 1 0.34375 1 0.3125 1 0.0625 1 0.03125 1 0.03125 1 0.75 1 0.71875 1 0.71875 1 0.4375 1 0.46875 1 0.4375 1 0.15625 1 0.1875 1 0.15625 1 0.84375 1 0.8750001 1 0.84375 1 0.59375 1 0.5625 1 0.5625 1 0.3125 1 0.28125 1 0.28125 1 1 1 0.96875 1 0.96875 1 0.03125 1 0 1 0 1 0.6875 1 0.71875 1 0.6875 1 0.4375 1 0.40625 1 0.40625 1 0.125 1 0.15625 1 0.125 1 0.84375 1 0.8125 1 0.8125 1 0.53125 1 0.5625 1 0.53125 1 0.28125 1 0.25 1 0.25 1 0.53125 1 0.5 1 0.5 1 0.125 1 0.09375 1 0.09375 1 0.96875 1 0.9375 1 0.9375 1 0.5625 1 0.53125 1 0.53125 1 0.15625 1 0.125 1 0.125 1 1 1 0.96875 1 0.96875 1 0.59375 1 0.5625 1 0.5625 1 0.1875 1 0.15625 1 0.15625 1 0.625 1 0.59375 1 0.59375 1 0.21875 1 0.1875 1 0.1875 1 0.65625 1 0.625 1 0.625 1 0.25 1 0.21875 1 0.21875 1 0.6875 1 0.65625 1 0.65625 1 0.28125 1 0.25 1 0.25 1 0.71875 1 0.6875 1 0.6875 1 0.3125 1 0.28125 1 0.28125 1 0.75 1 0.71875 1 0.71875 1 0.34375 1 0.3125 1 0.3125 1 0.78125 1 0.75 1 0.75 1 0.375 1 0.34375 1 0.34375 1 0.8125 1 0.78125 1 0.78125 1 0.40625 1 0.375 1 0.375 1 0.84375 1 0.8125 1 0.8125 1 0.4375 1 0.40625 1 0.40625 1 0.03125 1 0 1 0 1 0.8750001 1 0.84375 1 0.84375 1 0.46875 1 0.4375 1 0.4375 1 0.0625 1 0.03125 1 0.03125 1 0.90625 1 0.8750001 1 0.8750001 1 0.5 1 0.46875 1 0.46875 1 0.09375 1 0.0625 1 0.0625 1 0.9375 1 0.90625 1 0.90625 1 0.75 1 0.71875 1 0.71875 1 0.5 1 0.53125 1 0.5 1 0.21875 1 0.25 1 0.21875 1 0.90625 1 0.9375 1 0.90625 1 0.625 1 0.65625 1 0.625 1 0.34375 1 0.375 1 0.34375 1 0.0625 1 0.09375 1 0.0625 1 0.75 1 0.78125 1 0.75 1 0.46875 1 0.5 1 0.46875 1 0.21875 1 0.1875 1 0.1875 1 0.90625 1 0.8750001 1 0.8750001 1 0.59375 1 0.625 1 0.59375 1 0.3125 1 0.34375 1 0.3125 1 0.0625 1 0.03125 1 0.03125 1 0.75 1 0.71875 1 0.71875 1 0.4375 1 0.46875 1 0.4375 1 0.15625 1 0.1875 1 0.15625 1 0.84375 1 0.8750001 1 0.84375 1 0.59375 1 0.5625 1 0.5625 1 0.3125 1 0.28125 1 0.28125 1 1 1 0.96875 1 0.96875 1 0.03125 1 0 1 0 1 0.6875 1 0.71875 1 0.6875 1 0.4375 1 0.40625 1 0.40625 1 0.125 1 0.15625 1 0.125 1 0.84375 1 0.8125 1 0.8125 1 0.53125 1 0.5625 1 0.53125 1 0.25 1 0.28125 1 0.25 1 0.96875 1 0.9375 1 0.9375 1 0.65625 1 0.6875 1 0.65625 1 0.375 1 0.40625 1 0.375 1 0.125 1 0.09375 1 0.09375 1 0.28125 1 0.3125 1 0.28125 1 0.71875 1 0.6875 1 0.6875 1 0.25 1 0.28125 1 0.25 1 0.6875 1 0.65625 1 0.65625 1 0.25 1 0.21875 1 0.21875 1 0.65625 1 0.625 1 0.625 1 0.21875 1 0.1875 1 0.1875 1 0.625 1 0.59375 1 0.59375 1 0.1875 1 0.15625 1 0.15625 1 0.59375 1 0.5625 1 0.5625 1 1 1 0.96875 1 0.96875 1 0.15625 1 0.125 1 0.125 1 0.5625 1 0.53125 1 0.53125 1 0.96875 1 0.9375 1 0.9375 1 0.125 1 0.09375 1 0.09375 1 0.5 1 0.53125 1 0.5 1 0.9375 1 0.90625 1 0.90625 1 0.09375 1 0.0625 1 0.0625 1 0.46875 1 0.5 1 0.46875 1 0.90625 1 0.8750001 1 0.8750001 1 0.0625 1 0.03125 1 0.03125 1 0.4375 1 0.46875 1 0.4375 1 0.8750001 1 0.84375 1 0.84375 1 0.03125 1 0 1 0 1 0.40625 1 0.4375 1 0.40625 1 0.84375 1 0.8125 1 0.8125 1 0.375 1 0.40625 1 0.375 1 0.8125 1 0.78125 1 0.78125 1 0.34375 1 0.375 1 0.34375 1 0.78125 1 0.75 1 0.75 1 0.3125 1 0.34375 1 0.3125 1 0.03125 0.8322467 0 0.777556 0.03125 0.777556 0.0625 0.8322467 0.03125 0.777556 0.0625 0.7775558 0.09375 0.8322467 0.0625 0.7775558 0.09375 0.7775559 0.125 0.8322467 0.09375 0.7775559 0.125 0.7775558 0.15625 0.8322466 0.125 0.7775558 0.15625 0.7775558 0.1875 0.8322467 0.15625 0.7775558 0.1875 0.7775558 0.21875 0.8322467 0.1875 0.7775558 0.21875 0.7775558 0.25 0.8322467 0.21875 0.7775558 0.25 0.7775558 0.28125 0.8322467 0.25 0.7775558 0.28125 0.7775558 0.3125 0.8322467 0.28125 0.7775558 0.3125 0.777556 0.34375 0.8322467 0.3125 0.777556 0.34375 0.7775558 0.375 0.8322467 0.34375 0.7775558 0.375 0.777556 0.3971834 0.8322467 0.375 0.777556 0.3971834 0.7775559 0.4163328 0.8322467 0.40625 0.7775558 0.4163327 0.7775558 0.46875 0.8322466 0.4375 0.777556 0.46875 0.7775558 0.5 0.8322467 0.46875 0.7775558 0.5 0.7775558 0.53125 0.8322466 0.5 0.7775558 0.53125 0.7775557 0.5625 0.8322467 0.53125 0.7775557 0.5625 0.7775558 0.59375 0.8322467 0.5625 0.7775558 0.59375 0.7775558 0.625 0.8322467 0.59375 0.7775558 0.625 0.7775558 0.65625 0.8322466 0.625 0.7775558 0.65625 0.7775558 0.6875 0.8322467 0.65625 0.7775558 0.6875 0.7775559 0.71875 0.8322467 0.6875 0.7775559 0.71875 0.777556 0.75 0.8322467 0.71875 0.777556 0.75 0.777556 0.78125 0.8322467 0.75 0.777556 0.78125 0.7775558 0.8125 0.8322467 0.78125 0.7775558 0.8125 0.7775558 0.84375 0.8322467 0.8125 0.7775558 0.84375 0.7775558 0.8750001 0.8322467 0.84375 0.7775558 0.8750001 0.7775558 0.90625 0.8322466 0.8750001 0.7775558 0.90625 0.7775558 0.9375 0.8322467 0.90625 0.7775558 0.9375 0.7775559 0.9687501 0.8322466 0.9375 0.7775559 0.9687501 0.7775558 1 0.8322466 0.9687501 0.7775558 1 0.7775557 1 0.7775557 0.96875 0.5 1 0.5 0.9687501 0.7775558 0.9375 0.5 0.96875 0.5 0.9375 0.7775559 0.90625 0.5 0.9375 0.5 0.90625 0.7775558 0.8750001 0.5 0.90625 0.5 0.8750001 0.7775558 0.84375 0.5 0.8750001 0.5 0.84375 0.7775558 0.8125 0.5 0.84375 0.5 0.8125 0.7775558 0.78125 0.5 0.8125 0.5 0.78125 0.7775558 0.75 0.5 0.78125 0.5 0.75 0.777556 0.71875 0.5 0.75 0.5 0.71875 0.777556 0.6875 0.5 0.71875 0.5 0.6875 0.7775559 0.65625 0.5 0.6875 0.5 0.65625 0.7775558 0.625 0.5 0.65625 0.5 0.625 0.7775558 0.59375 0.5 0.625 0.5 0.59375 0.7775558 0.5625 0.5 0.59375 0.5 0.5625 0.7775558 0.53125 0.5 0.5625 0.5 0.53125 0.7775557 0.5 0.5 0.53125 0.5 0.5 0.7775558 0.46875 0.5 0.5 0.5 0.46875 0.7775558 0.4375 0.5 0.46875 0.5 0.4163327 0.7775558 0.40625 0.5 0.4163329 0.5 0.3971834 0.5 0.375 0.777556 0.375 0.5 0.375 0.777556 0.34375 0.5 0.375 0.5 0.34375 0.7775558 0.3125 0.5 0.34375 0.5 0.3125 0.777556 0.28125 0.5 0.3125 0.5 0.28125 0.7775558 0.25 0.5 0.28125 0.5 0.25 0.7775558 0.21875 0.5 0.25 0.5 0.21875 0.7775558 0.1875 0.5 0.21875 0.5 0.1875 0.7775558 0.15625 0.5 0.1875 0.5 0.15625 0.7775558 0.125 0.5 0.15625 0.5 0.125 0.7775558 0.09375 0.5 0.125 0.5 0.09375 0.7775559 0.0625 0.5 0.09375 0.5 0.0625 0.7775558 0.03125 0.5 0.0625 0.5 0.03125 0.777556 0 0.5 0.03125 0.5 0.03125 0.8958094 0 0.8322467 0.03125 0.8322467 0.0625 0.8958094 0.03125 0.8322467 0.0625 0.8322467 0.09375 0.8958094 0.0625 0.8322467 0.09375 0.8322467 0.125 0.8958094 0.09375 0.8322467 0.125 0.8322467 0.15625 0.8958094 0.125 0.8322467 0.15625 0.8322466 0.1875 0.8958094 0.15625 0.8322466 0.1875 0.8322467 0.21875 0.8958094 0.1875 0.8322467 0.21875 0.8322467 0.25 0.8958094 0.21875 0.8322467 0.25 0.8322467 0.28125 0.8958094 0.25 0.8322467 0.28125 0.8322467 0.3125 0.8958094 0.28125 0.8322467 0.3125 0.8322467 0.34375 0.8958094 0.3125 0.8322467 0.34375 0.8322467 0.375 0.8958094 0.34375 0.8322467 0.375 0.8322467 0.3971834 0.8958094 0.375 0.8322467 0.3971834 0.8322467 0.4163328 0.8958094 0.40625 0.8322467 0.4163328 0.8322467 0.46875 0.8958094 0.4375 0.8322466 0.46875 0.8322466 0.5 0.8958094 0.46875 0.8322466 0.5 0.8322467 0.53125 0.8958094 0.5 0.8322467 0.53125 0.8322466 0.5625 0.8958094 0.53125 0.8322466 0.5625 0.8322467 0.59375 0.8958094 0.5625 0.8322467 0.59375 0.8322467 0.625 0.8958094 0.59375 0.8322467 0.625 0.8322467 0.65625 0.8958094 0.625 0.8322467 0.65625 0.8322466 0.6875 0.8958094 0.65625 0.8322466 0.6875 0.8322467 0.71875 0.8958094 0.6875 0.8322467 0.71875 0.8322467 0.75 0.8958095 0.71875 0.8322467 0.75 0.8322467 0.78125 0.8958094 0.75 0.8322467 0.78125 0.8322467 0.8125 0.8958094 0.78125 0.8322467 0.8125 0.8322467 0.84375 0.8958094 0.8125 0.8322467 0.84375 0.8322467 0.8750001 0.8958094 0.84375 0.8322467 0.8750001 0.8322467 0.90625 0.8958094 0.8750001 0.8322467 0.90625 0.8322466 0.9375 0.8958094 0.90625 0.8322466 0.9375 0.8322467 0.96875 0.8958094 0.9375 0.8322467 0.9687501 0.8322466 1 0.8958093 0.9687501 0.8322466 1 0.8322466 0.40625 0.8958094 0.3971834 0.8322467 0.40625 0.8322467 0.40625 0.5 0.3971834 0.7775559 0.3971834 0.5 0.40625 0.8322467 0.3971834 0.7775559 0.40625 0.7775558 0.40625 1 0.3971834 0.8958094 0.40625 0.8958094 0.4375 0.8958094 0.4329004 0.8322467 0.4375 0.8322466 0.4375 0.777556 0.4329005 0.5 0.4375 0.5 0.4375 0.8322466 0.4329004 0.777556 0.4375 0.777556 0.4375 1 0.4329004 0.8958094 0.4375 0.8958094 0.4329004 0.8958094 0.4276852 0.8719013 0.4329004 0.8322467 0.4329004 0.777556 0.4163329 0.5 0.4329005 0.5 0.4329004 0.777556 0.4273697 0.7961927 0.4163327 0.7775558 0.4329005 1 0.4163328 0.8958094 0.4329004 0.8958094 1 1 0.96875 1 0.96875 0.8958094 0.96875 1 0.9375 1 0.9375 0.8958094 0.9375 1 0.90625 1 0.90625 0.8958094 0.90625 1 0.8750001 1 0.8750001 0.8958094 0.8750001 1 0.84375 1 0.84375 0.8958094 0.84375 1 0.8125 1 0.8125 0.8958094 0.8125 1 0.78125 1 0.78125 0.8958094 0.78125 1 0.75 1 0.75 0.8958095 0.75 1 0.71875 1 0.71875 0.8958094 0.71875 1 0.6875 1 0.6875 0.8958094 0.6875 1 0.65625 1 0.65625 0.8958094 0.65625 1 0.625 1 0.625 0.8958094 0.625 1 0.59375 1 0.59375 0.8958094 0.59375 1 0.5625 1 0.5625 0.8958094 0.5625 1 0.53125 1 0.53125 0.8958094 0.53125 1 0.5 1 0.5 0.8958094 0.5 1 0.46875 1 0.46875 0.8958094 0.46875 1 0.4375 1 0.4375 0.8958094 0.4163329 1 0.40625 1 0.40625 0.8958094 0.3971834 1 0.375 1 0.375 0.8958094 0.375 1 0.34375 1 0.34375 0.8958094 0.34375 1 0.3125 1 0.3125 0.8958094 0.3125 1 0.28125 1 0.28125 0.8958094 0.28125 1 0.25 1 0.25 0.8958094 0.25 1 0.21875 1 0.21875 0.8958094 0.21875 1 0.1875 1 0.1875 0.8958094 0.1875 1 0.15625 1 0.15625 0.8958094 0.15625 1 0.125 1 0.125 0.8958094 0.125 1 0.09375 1 0.09375 0.8958094 0.09375 1 0.0625 1 0.0625 0.8958094 0.341844 0.4717311 0.2968217 0.4853885 0.25 0.49 0.25 0.49 0.2031787 0.4853885 0.1581563 0.4717312 0.1581563 0.4717312 0.1166634 0.4495529 0.08029454 0.4197059 0.08029454 0.4197059 0.05044746 0.3833371 0.1300507 0.04329138 0.05044746 0.3833371 0.02826899 0.3418443 0.1300507 0.04329138 0.02826899 0.3418443 0.01461154 0.296822 0.1061112 0.05910688 0.01461154 0.296822 0.00999999 0.2500002 0.1061112 0.05910688 0.00999999 0.2500002 0.01461148 0.2031785 0.1061112 0.05910688 0.01461148 0.2031785 0.02826881 0.158156 0.1061112 0.05910688 0.02826881 0.158156 0.0504471 0.1166632 0.1061112 0.05910688 0.0504471 0.1166632 0.08029425 0.08029448 0.1061112 0.05910688 0.1061112 0.05910688 0.116663 0.05044734 0.1300507 0.04329138 0.02826899 0.3418443 0.1061112 0.05910688 0.1300507 0.04329138 0.1581563 0.4717312 0.08029454 0.4197059 0.1300507 0.04329138 0.341844 0.4717311 0.25 0.49 0.1300507 0.04329138 0.25 0.49 0.1581563 0.4717312 0.1300507 0.04329138 0.4197056 0.4197056 0.3833369 0.4495527 0.341844 0.4717311 0.4717311 0.341844 0.4495527 0.3833369 0.4197056 0.4197056 0.49 0.25 0.4853885 0.2968217 0.4717311 0.341844 0.4717311 0.158156 0.4853885 0.2031783 0.49 0.25 0.4197056 0.08029437 0.4495527 0.116663 0.1300507 0.04329138 0.4495527 0.116663 0.4717311 0.158156 0.1300507 0.04329138 0.341844 0.02826893 0.3833369 0.05044716 0.1300507 0.04329138 0.3833369 0.05044716 0.4197056 0.08029437 0.1300507 0.04329138 0.2499999 0.00999999 0.2968216 0.01461148 0.1300507 0.04329138 0.2968216 0.01461148 0.341844 0.02826893 0.1300507 0.04329138 0.1581559 0.02826893 0.2031782 0.0146116 0.1520487 0.03153324 0.2031782 0.0146116 0.2499999 0.00999999 0.1520487 0.03153324 0.1300507 0.04329138 0.1520487 0.03153324 0.2499999 0.00999999 0.4197056 0.4197056 0.341844 0.4717311 0.1300507 0.04329138 0.49 0.25 0.4717311 0.341844 0.1300507 0.04329138 0.4717311 0.341844 0.4197056 0.4197056 0.1300507 0.04329138 0.0625 1 0.03125 1 0.03125 0.8958094 0.03125 1 0 1 0 0.8958095 0.7031787 0.4853885 0.75 0.49 0.7968217 0.4853885 0.7968217 0.4853885 0.841844 0.4717311 0.8833369 0.4495527 0.8833369 0.4495527 0.9197056 0.4197056 0.9495527 0.3833369 0.9495527 0.3833369 0.9717311 0.341844 0.9853885 0.2968217 0.9853885 0.2968217 0.99 0.25 0.9853885 0.2031783 0.9853885 0.2031783 0.9717311 0.158156 0.9495527 0.116663 0.9495527 0.116663 0.9197056 0.08029437 0.6300507 0.04329138 0.9197056 0.08029437 0.8833369 0.05044716 0.6300507 0.04329138 0.8833369 0.05044716 0.841844 0.02826893 0.6300507 0.04329138 0.841844 0.02826893 0.7968216 0.01461148 0.6300507 0.04329138 0.7968216 0.01461148 0.75 0.00999999 0.6300507 0.04329138 0.75 0.00999999 0.7031782 0.0146116 0.6520488 0.03153324 0.7031782 0.0146116 0.6581559 0.02826893 0.6520488 0.03153324 0.6520488 0.03153324 0.6300507 0.04329138 0.75 0.00999999 0.6300507 0.04329138 0.616663 0.05044734 0.6061113 0.05910688 0.6061113 0.05910688 0.5802943 0.08029448 0.5504472 0.1166632 0.6300507 0.04329138 0.6061113 0.05910688 0.9495527 0.3833369 0.9495527 0.116663 0.6300507 0.04329138 0.9853885 0.2031783 0.9853885 0.2968217 0.9853885 0.2031783 0.6300507 0.04329138 0.8833369 0.4495527 0.9495527 0.3833369 0.6061113 0.05910688 0.9495527 0.3833369 0.9853885 0.2968217 0.6300507 0.04329138 0.7031787 0.4853885 0.7968217 0.4853885 0.6061113 0.05910688 0.7968217 0.4853885 0.8833369 0.4495527 0.6061113 0.05910688 0.6166634 0.4495529 0.6581563 0.4717312 0.7031787 0.4853885 0.5504475 0.3833371 0.5802946 0.4197059 0.6166634 0.4495529 0.5146116 0.296822 0.5282691 0.3418443 0.6061113 0.05910688 0.5282691 0.3418443 0.5504475 0.3833371 0.6061113 0.05910688 0.5146115 0.2031785 0.51 0.2500002 0.6061113 0.05910688 0.51 0.2500002 0.5146116 0.296822 0.6061113 0.05910688 0.5504472 0.1166632 0.5282688 0.158156 0.6061113 0.05910688 0.5282688 0.158156 0.5146115 0.2031785 0.6061113 0.05910688 0.6166634 0.4495529 0.7031787 0.4853885 0.6061113 0.05910688 1 1 0.96875 1 0.96875 0.5 0.96875 1 0.9375 1 0.9375 0.5 0.9375 1 0.90625 1 0.90625 0.5 0.90625 1 0.8750001 1 0.8750001 0.5 0.8750001 1 0.84375 1 0.84375 0.5 0.84375 1 0.8125 1 0.8125 0.5 0.8125 1 0.78125 1 0.78125 0.5 0.78125 1 0.75 1 0.75 0.5 0.75 1 0.71875 1 0.71875 0.5 0.71875 1 0.6875 1 0.6875 0.5 0.6875 1 0.65625 1 0.65625 0.5 0.65625 1 0.625 1 0.625 0.5 0.625 1 0.59375 1 0.59375 0.5 0.59375 1 0.5625 1 0.5625 0.5 0.5625 1 0.53125 1 0.53125 0.5 0.53125 1 0.5 1 0.5 0.5 0.5 1 0.46875 1 0.46875 0.5 0.46875 1 0.4375 1 0.4375 0.5 0.4375 1 0.40625 1 0.40625 0.5 0.40625 1 0.375 1 0.375 0.5 0.375 1 0.34375 1 0.34375 0.5 0.34375 1 0.3125 1 0.3125 0.5 0.3125 1 0.28125 1 0.28125 0.5 0.28125 1 0.25 1 0.25 0.5 0.25 1 0.21875 1 0.21875 0.5 0.21875 1 0.1875 1 0.1875 0.5 0.1875 1 0.15625 1 0.15625 0.5 0.15625 1 0.125 1 0.125 0.5 0.125 1 0.09375 1 0.09375 0.5 0.09375 1 0.0625 1 0.0625 0.5 0.8125 1 0.8125 1 0.78125 1 0.0625 1 0.03125 1 0.03125 0.5 0.03125 1 0 1 0 0.5 0.7031787 0.4853885 0.75 0.49 0.8833369 0.4495527 0.75 0.49 0.7968217 0.4853885 0.8833369 0.4495527 0.7968217 0.4853885 0.841844 0.4717311 0.8833369 0.4495527 0.8833369 0.4495527 0.9197056 0.4197056 0.9495527 0.3833369 0.9495527 0.3833369 0.9717311 0.341844 0.9853885 0.2968217 0.9853885 0.2968217 0.99 0.25 0.9495527 0.116663 0.99 0.25 0.9853885 0.2031783 0.9495527 0.116663 0.9853885 0.2031783 0.9717311 0.158156 0.9495527 0.116663 0.9495527 0.116663 0.9197056 0.08029437 0.8833369 0.05044728 0.8833369 0.05044728 0.841844 0.02826887 0.7968216 0.01461148 0.7968216 0.01461148 0.75 0.00999999 0.7031782 0.01461154 0.7031782 0.01461154 0.6581559 0.02826893 0.7968216 0.01461148 0.6581559 0.02826893 0.616663 0.05044734 0.7968216 0.01461148 0.616663 0.05044734 0.5802943 0.08029443 0.5504472 0.1166633 0.5504472 0.1166633 0.5282688 0.158156 0.616663 0.05044734 0.5282688 0.158156 0.5146115 0.2031785 0.616663 0.05044734 0.5146115 0.2031785 0.51 0.2500002 0.5146116 0.2968219 0.5146116 0.2968219 0.5282691 0.3418443 0.5504475 0.3833371 0.5504475 0.3833371 0.5802946 0.4197058 0.6166634 0.4495529 0.6166634 0.4495529 0.6581563 0.4717312 0.5504475 0.3833371 0.6581563 0.4717312 0.7031787 0.4853885 0.5504475 0.3833371 0.8833369 0.4495527 0.9495527 0.3833369 0.9853885 0.2968217 0.9495527 0.116663 0.8833369 0.05044728 0.9853885 0.2968217 0.8833369 0.05044728 0.7968216 0.01461148 0.9853885 0.2968217 0.5146115 0.2031785 0.5146116 0.2968219 0.7031787 0.4853885 0.5146116 0.2968219 0.5504475 0.3833371 0.7031787 0.4853885 0.7031787 0.4853885 0.8833369 0.4495527 0.7968216 0.01461148 0.8833369 0.4495527 0.9853885 0.2968217 0.7968216 0.01461148 0.7968216 0.01461148 0.616663 0.05044734 0.7031787 0.4853885 1 1 0.96875 1 0.96875 0.5 0.96875 1 0.9375 1 0.9375 0.5 0.9375 1 0.90625 1 0.90625 0.5 0.90625 1 0.8750001 1 0.8750001 0.5 0.8750001 1 0.84375 1 0.84375 0.5 0.84375 1 0.8125 1 0.8125 0.5 0.8125 1 0.78125 1 0.78125 0.5 0.78125 1 0.75 1 0.75 0.5 0.75 1 0.71875 1 0.71875 0.5 0.71875 1 0.6875 1 0.6875 0.5 0.6875 1 0.65625 1 0.65625 0.5 0.65625 1 0.625 1 0.625 0.5 0.625 1 0.59375 1 0.59375 0.5 0.59375 1 0.5625 1 0.5625 0.5 0.5625 1 0.53125 1 0.53125 0.5 0.53125 1 0.5 1 0.5 0.5 0.5 1 0.46875 1 0.46875 0.5 0.46875 1 0.4375 1 0.4375 0.5 0.4375 1 0.40625 1 0.40625 0.5 0.40625 1 0.375 1 0.375 0.5 0.375 1 0.34375 1 0.34375 0.5 0.34375 1 0.3125 1 0.3125 0.5 0.3125 1 0.28125 1 0.28125 0.5 0.28125 1 0.25 1 0.25 0.5 0.25 1 0.21875 1 0.21875 0.5 0.21875 1 0.1875 1 0.1875 0.5 0.1875 1 0.15625 1 0.15625 0.5 0.15625 1 0.125 1 0.125 0.5 0.125 1 0.09375 1 0.09375 0.5 0.09375 1 0.0625 1 0.0625 0.5 0.9375 1 0.96875 1 0.96875 1 0.0625 1 0.03125 1 0.03125 0.5 0.03125 1 0 1 0 0.5 0.7031787 0.4853885 0.75 0.49 0.8833369 0.4495527 0.75 0.49 0.7968217 0.4853885 0.8833369 0.4495527 0.7968217 0.4853885 0.841844 0.4717311 0.8833369 0.4495527 0.8833369 0.4495527 0.9197056 0.4197056 0.9495527 0.3833369 0.9495527 0.3833369 0.9717311 0.341844 0.9853885 0.2968217 0.9853885 0.2968217 0.99 0.25 0.9495527 0.116663 0.99 0.25 0.9853885 0.2031783 0.9495527 0.116663 0.9853885 0.2031783 0.9717311 0.158156 0.9495527 0.116663 0.9495527 0.116663 0.9197056 0.08029437 0.8833369 0.05044728 0.8833369 0.05044728 0.841844 0.02826887 0.7968216 0.01461148 0.7968216 0.01461148 0.75 0.00999999 0.7031782 0.01461154 0.7031782 0.01461154 0.6581559 0.02826893 0.7968216 0.01461148 0.6581559 0.02826893 0.616663 0.05044734 0.7968216 0.01461148 0.616663 0.05044734 0.5802943 0.08029443 0.5504472 0.1166633 0.5504472 0.1166633 0.5282688 0.158156 0.616663 0.05044734 0.5282688 0.158156 0.5146115 0.2031785 0.616663 0.05044734 0.5146115 0.2031785 0.51 0.2500002 0.5146116 0.2968219 0.5146116 0.2968219 0.5282691 0.3418443 0.5504475 0.3833371 0.5504475 0.3833371 0.5802946 0.4197058 0.6166634 0.4495529 0.6166634 0.4495529 0.6581563 0.4717312 0.5504475 0.3833371 0.6581563 0.4717312 0.7031787 0.4853885 0.5504475 0.3833371 0.8833369 0.4495527 0.9495527 0.3833369 0.9853885 0.2968217 0.9495527 0.116663 0.8833369 0.05044728 0.9853885 0.2968217 0.8833369 0.05044728 0.7968216 0.01461148 0.9853885 0.2968217 0.5146115 0.2031785 0.5146116 0.2968219 0.7031787 0.4853885 0.5146116 0.2968219 0.5504475 0.3833371 0.7031787 0.4853885 0.7031787 0.4853885 0.8833369 0.4495527 0.7968216 0.01461148 0.8833369 0.4495527 0.9853885 0.2968217 0.7968216 0.01461148 0.7968216 0.01461148 0.616663 0.05044734 0.7031787 0.4853885 0.6875 1 0.6875 1 0.65625 1 0.375 1 0.40625 1 0.40625 1 0.125 1 0.125 1 0.09375 1 0.8125 1 0.8125 1 0.78125 1 0.53125 1 0.53125 1 0.5 1 0.21875 1 0.25 1 0.25 1 0.9375 1 0.9375 1 0.90625 1 0.65625 1 0.65625 1 0.625 1 0.34375 1 0.375 1 0.375 1 0.0625 1 0.09375 1 0.09375 1 0.75 1 0.78125 1 0.78125 1 0.46875 1 0.5 1 0.5 1 0.21875 1 0.21875 1 0.1875 1 0.90625 1 0.90625 1 0.8750001 1 0.59375 1 0.625 1 0.625 1 0.3125 1 0.34375 1 0.34375 1 0.0625 1 0.0625 1 0.03125 1 0.75 1 0.75 1 0.71875 1 0.4375 1 0.46875 1 0.46875 1 0.15625 1 0.1875 1 0.1875 1 0.84375 1 0.8750001 1 0.8750001 1 0.59375 1 0.59375 1 0.5625 1 0.3125 1 0.3125 1 0.28125 1 1 1 1 1 0.96875 1 0.03125 1 0.03125 1 0 1 0.6875 1 0.71875 1 0.71875 1 0.4375 1 0.4375 1 0.40625 1 0.125 1 0.15625 1 0.15625 1 0.84375 1 0.84375 1 0.8125 1 0.53125 1 0.5625 1 0.5625 1 0.28125 1 0.28125 1 0.25 1 0.53125 1 0.53125 1 0.5 1 0.125 1 0.125 1 0.09375 1 0.96875 1 0.96875 1 0.9375 1 0.5625 1 0.5625 1 0.53125 1 0.15625 1 0.15625 1 0.125 1 1 1 1 1 0.96875 1 0.59375 1 0.59375 1 0.5625 1 0.1875 1 0.1875 1 0.15625 1 0.625 1 0.625 1 0.59375 1 0.21875 1 0.21875 1 0.1875 1 0.65625 1 0.65625 1 0.625 1 0.25 1 0.25 1 0.21875 1 0.6875 1 0.6875 1 0.65625 1 0.28125 1 0.28125 1 0.25 1 0.71875 1 0.71875 1 0.6875 1 0.3125 1 0.3125 1 0.28125 1 0.75 1 0.75 1 0.71875 1 0.34375 1 0.34375 1 0.3125 1 0.78125 1 0.78125 1 0.75 1 0.375 1 0.375 1 0.34375 1 0.8125 1 0.8125 1 0.78125 1 0.40625 1 0.40625 1 0.375 1 0.84375 1 0.84375 1 0.8125 1 0.4375 1 0.4375 1 0.40625 1 0.03125 1 0.03125 1 0 1 0.8750001 1 0.8750001 1 0.84375 1 0.46875 1 0.46875 1 0.4375 1 0.0625 1 0.0625 1 0.03125 1 0.90625 1 0.90625 1 0.8750001 1 0.5 1 0.5 1 0.46875 1 0.09375 1 0.09375 1 0.0625 1 0.9375 1 0.9375 1 0.90625 1 0.75 1 0.75 1 0.71875 1 0.5 1 0.53125 1 0.53125 1 0.21875 1 0.25 1 0.25 1 0.90625 1 0.9375 1 0.9375 1 0.625 1 0.65625 1 0.65625 1 0.34375 1 0.375 1 0.375 1 0.0625 1 0.09375 1 0.09375 1 0.75 1 0.78125 1 0.78125 1 0.46875 1 0.5 1 0.5 1 0.21875 1 0.21875 1 0.1875 1 0.90625 1 0.90625 1 0.8750001 1 0.59375 1 0.625 1 0.625 1 0.3125 1 0.34375 1 0.34375 1 0.0625 1 0.0625 1 0.03125 1 0.75 1 0.75 1 0.71875 1 0.4375 1 0.46875 1 0.46875 1 0.15625 1 0.1875 1 0.1875 1 0.84375 1 0.8750001 1 0.8750001 1 0.59375 1 0.59375 1 0.5625 1 0.3125 1 0.3125 1 0.28125 1 1 1 1 1 0.96875 1 0.03125 1 0.03125 1 0 1 0.6875 1 0.71875 1 0.71875 1 0.4375 1 0.4375 1 0.40625 1 0.125 1 0.15625 1 0.15625 1 0.84375 1 0.84375 1 0.8125 1 0.53125 1 0.5625 1 0.5625 1 0.25 1 0.28125 1 0.28125 1 0.96875 1 0.96875 1 0.9375 1 0.65625 1 0.6875 1 0.6875 1 0.375 1 0.40625 1 0.40625 1 0.125 1 0.125 1 0.09375 1 0.28125 1 0.3125 1 0.3125 1 0.71875 1 0.71875 1 0.6875 1 0.25 1 0.28125 1 0.28125 1 0.6875 1 0.6875 1 0.65625 1 0.25 1 0.25 1 0.21875 1 0.65625 1 0.65625 1 0.625 1 0.21875 1 0.21875 1 0.1875 1 0.625 1 0.625 1 0.59375 1 0.1875 1 0.1875 1 0.15625 1 0.59375 1 0.59375 1 0.5625 1 1 1 1 1 0.96875 1 0.15625 1 0.15625 1 0.125 1 0.5625 1 0.5625 1 0.53125 1 0.96875 1 0.96875 1 0.9375 1 0.125 1 0.125 1 0.09375 1 0.5 1 0.53125 1 0.53125 1 0.9375 1 0.9375 1 0.90625 1 0.09375 1 0.09375 1 0.0625 1 0.46875 1 0.5 1 0.5 1 0.90625 1 0.90625 1 0.8750001 1 0.0625 1 0.0625 1 0.03125 1 0.4375 1 0.46875 1 0.46875 1 0.8750001 1 0.8750001 1 0.84375 1 0.03125 1 0.03125 1 0 1 0.40625 1 0.4375 1 0.4375 1 0.84375 1 0.84375 1 0.8125 1 0.375 1 0.40625 1 0.40625 1 0.8125 1 0.8125 1 0.78125 1 0.34375 1 0.375 1 0.375 1 0.78125 1 0.78125 1 0.75 1 0.3125 1 0.34375 1 0.34375 1 0.03125 0.8322467 0 0.8322467 0 0.777556 0.0625 0.8322467 0.03125 0.8322467 0.03125 0.777556 0.09375 0.8322467 0.0625 0.8322467 0.0625 0.7775558 0.125 0.8322467 0.09375 0.8322467 0.09375 0.7775559 0.15625 0.8322466 0.125 0.8322467 0.125 0.7775558 0.1875 0.8322467 0.15625 0.8322466 0.15625 0.7775558 0.21875 0.8322467 0.1875 0.8322467 0.1875 0.7775558 0.25 0.8322467 0.21875 0.8322467 0.21875 0.7775558 0.28125 0.8322467 0.25 0.8322467 0.25 0.7775558 0.3125 0.8322467 0.28125 0.8322467 0.28125 0.7775558 0.34375 0.8322467 0.3125 0.8322467 0.3125 0.777556 0.375 0.8322467 0.34375 0.8322467 0.34375 0.7775558 0.3971834 0.8322467 0.375 0.8322467 0.375 0.777556 0.4163328 0.8322467 0.40625 0.8322467 0.40625 0.7775558 0.46875 0.8322466 0.4375 0.8322466 0.4375 0.777556 0.5 0.8322467 0.46875 0.8322466 0.46875 0.7775558 0.53125 0.8322466 0.5 0.8322467 0.5 0.7775558 0.5625 0.8322467 0.53125 0.8322466 0.53125 0.7775557 0.59375 0.8322467 0.5625 0.8322467 0.5625 0.7775558 0.625 0.8322467 0.59375 0.8322467 0.59375 0.7775558 0.65625 0.8322466 0.625 0.8322467 0.625 0.7775558 0.6875 0.8322467 0.65625 0.8322466 0.65625 0.7775558 0.71875 0.8322467 0.6875 0.8322467 0.6875 0.7775559 0.75 0.8322467 0.71875 0.8322467 0.71875 0.777556 0.78125 0.8322467 0.75 0.8322467 0.75 0.777556 0.8125 0.8322467 0.78125 0.8322467 0.78125 0.7775558 0.84375 0.8322467 0.8125 0.8322467 0.8125 0.7775558 0.8750001 0.8322467 0.84375 0.8322467 0.84375 0.7775558 0.90625 0.8322466 0.8750001 0.8322467 0.8750001 0.7775558 0.9375 0.8322467 0.90625 0.8322466 0.90625 0.7775558 0.9687501 0.8322466 0.9375 0.8322467 0.9375 0.7775559 1 0.8322466 0.9687501 0.8322466 0.9687501 0.7775558 1 0.7775557 0.9687501 0.7775558 0.96875 0.5 0.9687501 0.7775558 0.9375 0.7775559 0.9375 0.5 0.9375 0.7775559 0.90625 0.7775558 0.90625 0.5 0.90625 0.7775558 0.8750001 0.7775558 0.8750001 0.5 0.8750001 0.7775558 0.84375 0.7775558 0.84375 0.5 0.84375 0.7775558 0.8125 0.7775558 0.8125 0.5 0.8125 0.7775558 0.78125 0.7775558 0.78125 0.5 0.78125 0.7775558 0.75 0.777556 0.75 0.5 0.75 0.777556 0.71875 0.777556 0.71875 0.5 0.71875 0.777556 0.6875 0.7775559 0.6875 0.5 0.6875 0.7775559 0.65625 0.7775558 0.65625 0.5 0.65625 0.7775558 0.625 0.7775558 0.625 0.5 0.625 0.7775558 0.59375 0.7775558 0.59375 0.5 0.59375 0.7775558 0.5625 0.7775558 0.5625 0.5 0.5625 0.7775558 0.53125 0.7775557 0.53125 0.5 0.53125 0.7775557 0.5 0.7775558 0.5 0.5 0.5 0.7775558 0.46875 0.7775558 0.46875 0.5 0.46875 0.7775558 0.4375 0.777556 0.4375 0.5 0.4163327 0.7775558 0.40625 0.7775558 0.40625 0.5 0.3971834 0.5 0.3971834 0.7775559 0.375 0.777556 0.375 0.777556 0.34375 0.7775558 0.34375 0.5 0.34375 0.7775558 0.3125 0.777556 0.3125 0.5 0.3125 0.777556 0.28125 0.7775558 0.28125 0.5 0.28125 0.7775558 0.25 0.7775558 0.25 0.5 0.25 0.7775558 0.21875 0.7775558 0.21875 0.5 0.21875 0.7775558 0.1875 0.7775558 0.1875 0.5 0.1875 0.7775558 0.15625 0.7775558 0.15625 0.5 0.15625 0.7775558 0.125 0.7775558 0.125 0.5 0.125 0.7775558 0.09375 0.7775559 0.09375 0.5 0.09375 0.7775559 0.0625 0.7775558 0.0625 0.5 0.0625 0.7775558 0.03125 0.777556 0.03125 0.5 0.03125 0.777556 0 0.777556 0 0.5 0.03125 0.8958094 0 0.8958095 0 0.8322467 0.0625 0.8958094 0.03125 0.8958094 0.03125 0.8322467 0.09375 0.8958094 0.0625 0.8958094 0.0625 0.8322467 0.125 0.8958094 0.09375 0.8958094 0.09375 0.8322467 0.15625 0.8958094 0.125 0.8958094 0.125 0.8322467 0.1875 0.8958094 0.15625 0.8958094 0.15625 0.8322466 0.21875 0.8958094 0.1875 0.8958094 0.1875 0.8322467 0.25 0.8958094 0.21875 0.8958094 0.21875 0.8322467 0.28125 0.8958094 0.25 0.8958094 0.25 0.8322467 0.3125 0.8958094 0.28125 0.8958094 0.28125 0.8322467 0.34375 0.8958094 0.3125 0.8958094 0.3125 0.8322467 0.375 0.8958094 0.34375 0.8958094 0.34375 0.8322467 0.3971834 0.8958094 0.375 0.8958094 0.375 0.8322467 0.4163328 0.8958094 0.40625 0.8958094 0.40625 0.8322467 0.46875 0.8958094 0.4375 0.8958094 0.4375 0.8322466 0.5 0.8958094 0.46875 0.8958094 0.46875 0.8322466 0.53125 0.8958094 0.5 0.8958094 0.5 0.8322467 0.5625 0.8958094 0.53125 0.8958094 0.53125 0.8322466 0.59375 0.8958094 0.5625 0.8958094 0.5625 0.8322467 0.625 0.8958094 0.59375 0.8958094 0.59375 0.8322467 0.65625 0.8958094 0.625 0.8958094 0.625 0.8322467 0.6875 0.8958094 0.65625 0.8958094 0.65625 0.8322466 0.71875 0.8958094 0.6875 0.8958094 0.6875 0.8322467 0.75 0.8958095 0.71875 0.8958094 0.71875 0.8322467 0.78125 0.8958094 0.75 0.8958095 0.75 0.8322467 0.8125 0.8958094 0.78125 0.8958094 0.78125 0.8322467 0.84375 0.8958094 0.8125 0.8958094 0.8125 0.8322467 0.8750001 0.8958094 0.84375 0.8958094 0.84375 0.8322467 0.90625 0.8958094 0.8750001 0.8958094 0.8750001 0.8322467 0.9375 0.8958094 0.90625 0.8958094 0.90625 0.8322466 0.96875 0.8958094 0.9375 0.8958094 0.9375 0.8322467 1 0.8958093 0.96875 0.8958094 0.9687501 0.8322466 0.40625 0.8958094 0.3971834 0.8958094 0.3971834 0.8322467 0.40625 0.5 0.40625 0.7775558 0.3971834 0.7775559 0.40625 0.8322467 0.3971834 0.8322467 0.3971834 0.7775559 0.40625 1 0.3971834 1 0.3971834 0.8958094 0.4375 0.8958094 0.4329004 0.8958094 0.4329004 0.8322467 0.4375 0.777556 0.4329004 0.777556 0.4329005 0.5 0.4375 0.8322466 0.4329004 0.8322467 0.4329004 0.777556 0.4375 1 0.4329005 1 0.4329004 0.8958094 0.4329004 0.8958094 0.4163328 0.8958094 0.4276852 0.8719013 0.4329004 0.777556 0.4163327 0.7775558 0.4163329 0.5 0.4329004 0.777556 0.4329004 0.8322467 0.4273697 0.7961927 0.4329005 1 0.4163329 1 0.4163328 0.8958094 0.59375 1 0.71875 1 0.96875 1 0.96875 1 1 1 0.03125 1 0.03125 1 0.0625 1 0.96875 1 0.0625 1 0.09375 1 0.96875 1 0.09375 1 0.125 1 0.21875 1 0.125 1 0.15625 1 0.21875 1 0.15625 1 0.1875 1 0.21875 1 0.21875 1 0.25 1 0.28125 1 0.28125 1 0.3125 1 0.34375 1 0.34375 1 0.375 1 0.40625 1 0.40625 1 0.4375 1 0.34375 1 0.4375 1 0.46875 1 0.34375 1 0.46875 1 0.5 1 0.53125 1 0.53125 1 0.5625 1 0.59375 1 0.59375 1 0.625 1 0.65625 1 0.65625 1 0.6875 1 0.59375 1 0.6875 1 0.71875 1 0.59375 1 0.71875 1 0.75 1 0.84375 1 0.75 1 0.78125 1 0.84375 1 0.78125 1 0.8125 1 0.84375 1 0.84375 1 0.8750001 1 0.90625 1 0.90625 1 0.9375 1 0.96875 1 0.21875 1 0.28125 1 0.46875 1 0.28125 1 0.34375 1 0.46875 1 0.46875 1 0.53125 1 0.59375 1 0.84375 1 0.90625 1 0.71875 1 0.90625 1 0.96875 1 0.71875 1 0.96875 1 0.09375 1 0.46875 1 0.09375 1 0.21875 1 0.46875 1 0.46875 1 0.59375 1 0.96875 1 0.1581559 0.02826893 0.4717311 0.158156 0.341844 0.4717311 0.341844 0.4717311 0.2968217 0.4853885 0.25 0.49 0.25 0.49 0.2031787 0.4853885 0.1581563 0.4717312 0.1581563 0.4717312 0.1166634 0.4495529 0.08029454 0.4197058 0.08029454 0.4197058 0.05044746 0.3833371 0.02826899 0.3418443 0.02826899 0.3418443 0.01461154 0.2968219 0.02826881 0.158156 0.01461154 0.2968219 0.00999999 0.2500002 0.02826881 0.158156 0.00999999 0.2500002 0.01461148 0.2031785 0.02826881 0.158156 0.02826881 0.158156 0.0504471 0.1166633 0.08029425 0.08029443 0.08029425 0.08029443 0.116663 0.05044734 0.1581559 0.02826893 0.1581559 0.02826893 0.2031782 0.01461154 0.2499999 0.00999999 0.2499999 0.00999999 0.2968216 0.01461148 0.341844 0.02826887 0.341844 0.02826887 0.3833369 0.05044728 0.4197056 0.08029437 0.4197056 0.08029437 0.4495527 0.116663 0.4717311 0.158156 0.4717311 0.158156 0.4853885 0.2031783 0.49 0.25 0.49 0.25 0.4853885 0.2968217 0.4717311 0.341844 0.4717311 0.341844 0.4495527 0.3833369 0.4197056 0.4197056 0.4197056 0.4197056 0.3833369 0.4495527 0.4717311 0.341844 0.3833369 0.4495527 0.341844 0.4717311 0.4717311 0.341844 0.341844 0.4717311 0.25 0.49 0.1581563 0.4717312 0.1581563 0.4717312 0.08029454 0.4197058 0.02826899 0.3418443 0.02826881 0.158156 0.08029425 0.08029443 0.1581559 0.02826893 0.1581559 0.02826893 0.2499999 0.00999999 0.341844 0.02826887 0.341844 0.02826887 0.4197056 0.08029437 0.1581559 0.02826893 0.4197056 0.08029437 0.4717311 0.158156 0.1581559 0.02826893 0.4717311 0.158156 0.49 0.25 0.341844 0.4717311 0.49 0.25 0.4717311 0.341844 0.341844 0.4717311 0.341844 0.4717311 0.1581563 0.4717312 0.1581559 0.02826893 0.1581563 0.4717312 0.02826899 0.3418443 0.1581559 0.02826893 0.02826899 0.3418443 0.02826881 0.158156 0.1581559 0.02826893</float_array>
          <technique_common>
            <accessor source="#Cylinder_015-mesh-map-0-array" count="2550" stride="2">
              <param name="S" type="float"/>
              <param name="T" type="float"/>
            </accessor>
          </technique_common>
        </source>
        <vertices id="Cylinder_015-mesh-vertices">
          <input semantic="POSITION" source="#Cylinder_015-mesh-positions"/>
        </vertices>
        <triangles material="Plastic_002-material" count="790">
          <input semantic="VERTEX" source="#Cylinder_015-mesh-vertices" offset="0"/>
          <input semantic="NORMAL" source="#Cylinder_015-mesh-normals" offset="1"/>
          <input semantic="TEXCOORD" source="#Cylinder_015-mesh-map-0" offset="2" set="0"/>
          <p>1 0 0 385 1 1 384 2 2 3 3 3 386 4 4 385 1 5 5 5 6 387 6 7 386 4 8 7 7 9 388 8 10 387 6 11 9 9 12 389 10 13 388 8 14 11 11 15 390 12 16 389 10 17 13 13 18 391 14 19 390 12 20 15 15 21 392 16 22 391 14 23 17 17 24 393 18 25 392 16 26 19 19 27 394 20 28 393 18 29 21 21 30 395 22 31 394 20 32 23 23 33 396 24 34 395 22 35 25 25 36 397 26 37 396 24 38 27 27 39 398 28 40 397 26 41 29 29 42 399 30 43 398 28 44 31 31 45 400 32 46 399 30 47 33 33 48 401 34 49 400 32 50 35 35 51 402 36 52 401 34 53 430 37 54 403 38 55 429 39 56 417 40 57 404 41 58 420 42 59 41 43 60 405 44 61 404 41 62 43 45 63 406 46 64 405 44 65 45 47 66 407 48 67 406 46 68 47 49 69 408 50 70 407 48 71 49 51 72 409 52 73 408 50 74 51 53 75 410 54 76 409 52 77 53 55 78 411 56 79 410 54 80 55 57 81 412 58 82 411 56 83 57 59 84 413 60 85 412 58 86 59 60 87 414 61 88 413 60 89 21 62 90 17 62 91 430 62 92 61 63 93 415 64 94 414 61 95 63 65 96 384 2 97 415 64 98 54 66 99 58 66 100 416 66 101 65 67 102 66 68 103 64 69 104 67 70 105 68 71 106 66 68 107 69 72 108 70 73 109 68 71 110 71 74 111 72 75 112 70 73 113 73 76 114 74 77 115 72 75 116 75 78 117 76 79 118 74 77 119 77 80 120 78 81 121 76 79 122 79 82 123 80 83 124 78 81 125 81 84 126 82 85 127 80 83 128 83 86 129 84 87 130 82 85 131 85 88 132 86 89 133 84 87 134 87 90 135 88 91 136 86 89 137 89 92 138 90 93 139 88 91 140 91 94 141 92 95 142 90 93 143 93 96 144 94 97 145 92 95 146 95 98 147 96 99 148 94 97 149 97 99 150 98 100 151 96 99 152 99 101 153 100 102 154 98 100 155 101 103 156 102 104 157 100 102 158 103 105 159 104 106 160 102 104 161 105 107 162 106 108 163 104 106 164 107 109 165 108 110 166 106 108 167 109 111 168 110 112 169 108 110 170 111 113 171 112 114 172 110 112 173 113 115 174 114 116 175 112 114 176 115 117 177 116 118 178 114 116 179 117 119 180 118 120 181 116 118 182 119 121 183 120 122 184 118 120 185 121 123 186 122 124 187 120 122 188 123 125 189 124 126 190 122 124 191 77 127 192 263 127 193 79 127 194 125 128 195 126 129 196 124 126 197 127 130 198 64 69 199 126 129 200 102 131 201 110 131 202 126 131 203 129 132 204 130 133 205 128 134 206 131 135 207 132 136 208 130 133 209 133 137 210 134 138 211 132 136 212 135 139 213 136 140 214 134 138 215 137 141 216 138 142 217 136 140 218 139 143 219 140 144 220 138 142 221 141 145 222 142 146 223 140 144 224 143 147 225 144 83 226 142 146 227 145 84 228 146 148 229 144 83 230 147 148 231 148 149 232 146 148 233 149 150 234 150 151 235 148 149 236 151 152 237 152 153 238 150 151 239 153 154 240 154 155 241 152 153 242 155 156 243 156 157 244 154 155 245 157 158 246 158 159 247 156 157 248 159 160 249 160 161 250 158 159 251 161 162 252 162 163 253 160 161 254 163 164 255 164 165 256 162 163 257 165 166 258 166 167 259 164 165 260 167 168 261 168 169 262 166 167 263 169 170 264 170 171 265 168 169 266 171 172 267 172 173 268 170 171 269 173 174 270 174 175 271 172 173 272 175 176 273 176 177 274 174 175 275 177 178 276 178 179 277 176 177 278 179 180 279 180 181 280 178 179 281 181 182 282 182 183 283 180 181 284 183 184 285 184 185 286 182 183 287 185 186 288 186 187 289 184 185 290 187 188 291 188 189 292 186 187 293 133 190 294 192 190 295 194 190 296 189 191 297 190 192 298 188 189 299 191 193 300 128 134 301 190 192 302 166 194 303 174 194 304 190 194 305 149 195 306 203 195 307 151 195 308 169 196 309 211 196 310 212 196 311 185 197 312 221 197 313 187 197 314 141 198 315 199 198 316 143 198 317 159 195 318 208 195 319 161 195 320 179 195 321 216 195 322 217 195 323 133 199 324 195 199 325 135 199 326 151 195 327 204 195 328 153 195 329 171 195 330 212 195 331 213 195 332 189 200 333 221 200 334 222 200 335 145 195 336 199 195 337 200 195 338 163 201 339 208 201 340 209 201 341 179 195 342 218 195 343 181 195 344 135 195 345 196 195 346 137 195 347 155 202 348 204 202 349 205 202 350 173 203 351 213 203 352 214 203 353 189 204 354 223 204 355 191 204 356 145 205 357 201 205 358 147 205 359 165 206 360 209 206 361 210 206 362 183 207 363 218 207 364 219 207 365 139 208 366 196 208 367 197 208 368 155 195 369 206 195 370 157 195 371 173 209 372 215 209 373 175 209 374 129 195 375 192 195 376 131 195 377 191 195 378 193 195 379 129 195 380 149 195 381 201 195 382 202 195 383 165 210 384 211 210 385 167 210 386 185 195 387 219 195 388 220 195 389 139 195 390 198 195 391 141 195 392 159 211 393 206 211 394 207 211 395 175 195 396 216 195 397 177 195 398 207 212 399 239 213 400 208 214 401 220 215 402 226 216 403 221 217 404 192 218 405 253 219 406 194 220 407 206 221 408 240 222 409 207 212 410 219 223 411 227 224 412 220 215 413 193 225 414 255 226 415 192 218 416 205 227 417 241 228 418 206 221 419 218 229 420 228 230 421 219 223 422 204 231 423 242 232 424 205 227 425 217 233 426 229 234 427 218 229 428 203 235 429 243 236 430 204 231 431 216 237 432 230 238 433 217 233 434 202 239 435 244 240 436 203 235 437 215 241 438 231 242 439 216 237 440 201 243 441 245 244 442 202 239 443 214 245 444 232 246 445 215 241 446 200 247 447 246 248 448 201 243 449 213 249 450 233 250 451 214 245 452 199 251 453 247 252 454 200 247 455 212 253 456 234 254 457 213 249 458 198 255 459 248 256 460 199 251 461 211 257 462 235 258 463 212 253 464 197 259 465 249 255 466 198 255 467 210 260 468 236 261 469 211 257 470 223 262 471 254 263 472 193 225 473 196 264 474 250 265 475 197 259 476 209 266 477 237 267 478 210 260 479 222 268 480 224 269 481 223 262 482 195 270 483 251 271 484 196 264 485 208 214 486 238 272 487 209 266 488 221 217 489 225 273 490 222 268 491 194 220 492 252 274 493 195 270 494 264 275 495 297 276 496 265 277 497 97 278 498 271 278 499 272 278 500 115 279 501 280 279 502 281 279 503 71 280 504 258 280 505 259 280 506 89 195 507 267 195 508 268 195 509 107 195 510 276 195 511 277 195 512 125 281 513 285 281 514 286 281 515 81 195 516 263 195 517 264 195 518 99 282 519 272 282 520 273 282 521 115 195 522 282 195 523 117 195 524 71 195 525 260 195 526 73 195 527 91 283 528 268 283 529 269 283 530 109 284 531 277 284 532 278 284 533 125 285 534 287 285 535 127 285 536 81 195 537 265 195 538 83 195 539 101 286 540 273 286 541 274 286 542 119 287 543 282 287 544 283 287 545 75 195 546 260 195 547 261 195 548 91 288 549 270 288 550 93 288 551 109 195 552 279 195 553 111 195 554 65 195 555 256 195 556 67 195 557 127 195 558 257 195 559 65 195 560 85 195 561 265 195 562 266 195 563 101 195 564 275 195 565 103 195 566 121 289 567 283 289 568 284 289 569 75 290 570 262 290 571 77 290 572 95 291 573 270 291 574 271 291 575 113 195 576 279 195 577 280 195 578 67 292 579 258 292 580 69 292 581 87 293 582 266 293 583 267 293 584 105 294 585 275 294 586 276 294 587 121 195 588 285 195 589 123 195 590 279 295 591 310 296 592 311 297 593 265 277 594 298 298 595 266 299 596 280 300 597 311 297 598 312 301 599 266 299 600 299 302 601 267 303 602 280 300 603 313 304 604 281 305 605 267 303 606 300 306 607 268 307 608 281 305 609 314 308 610 282 309 611 268 307 612 301 310 613 269 311 614 282 309 615 315 312 616 283 313 617 269 311 618 302 314 619 270 315 620 257 316 621 288 317 622 256 318 623 283 313 624 316 319 625 284 320 626 270 315 627 303 321 628 271 322 629 256 318 630 290 323 631 258 324 632 284 320 633 317 325 634 285 326 635 272 327 636 303 321 637 304 328 638 258 324 639 291 329 640 259 329 641 285 326 642 318 330 643 286 331 644 273 332 645 304 328 646 305 333 647 259 329 648 292 334 649 260 335 650 286 331 651 319 336 652 287 337 653 274 338 654 305 333 655 306 339 656 260 335 657 293 340 658 261 341 659 287 337 660 289 342 661 257 316 662 275 343 663 306 339 664 307 344 665 261 341 666 294 345 667 262 346 668 276 347 669 307 344 670 308 348 671 262 346 672 295 349 673 263 350 674 277 351 675 308 348 676 309 352 677 263 350 678 296 353 679 264 275 680 278 354 681 309 352 682 310 296 683 351 355 684 383 356 685 382 357 686 350 358 687 382 357 688 381 359 689 349 360 690 381 359 691 380 361 692 348 362 693 380 361 694 379 59 695 347 56 696 379 59 697 378 363 698 346 364 699 378 363 700 377 365 701 345 366 702 377 365 703 376 367 704 344 368 705 376 367 706 375 369 707 343 370 708 375 369 709 374 371 710 342 372 711 374 371 712 373 373 713 341 374 714 373 373 715 372 375 716 340 376 717 372 375 718 371 377 719 418 378 720 371 377 721 419 379 722 427 380 723 370 381 724 428 382 725 337 383 726 369 384 727 368 34 728 336 385 729 368 34 730 367 386 731 335 31 732 367 386 733 366 387 734 334 388 735 366 387 736 365 388 737 333 389 738 365 388 739 364 390 740 332 24 741 364 390 742 363 391 743 331 392 744 363 391 745 362 23 746 330 393 747 362 23 748 361 394 749 329 395 750 361 394 751 360 18 752 328 396 753 360 18 754 359 397 755 327 398 756 359 397 757 358 399 758 326 400 759 358 399 760 357 401 761 325 402 762 357 401 763 356 403 764 324 404 765 356 403 766 355 9 767 323 405 768 355 9 769 354 406 770 322 407 771 354 406 772 353 408 773 321 409 774 353 408 775 352 410 776 320 411 777 352 410 778 383 356 779 383 356 780 2 410 781 0 412 782 352 410 783 4 413 784 2 410 785 353 408 786 6 414 787 4 413 788 354 406 789 8 415 790 6 414 791 355 9 792 10 416 793 8 415 794 356 403 795 12 417 796 10 416 797 357 401 798 14 418 799 12 417 800 358 399 801 16 419 802 14 418 803 359 397 804 18 420 805 16 419 806 360 18 807 20 421 808 18 420 809 361 394 810 22 422 811 20 421 812 362 23 813 24 25 814 22 422 815 363 391 816 26 27 817 24 25 818 364 390 819 28 423 820 26 27 821 365 388 822 30 424 823 28 423 824 366 387 825 32 425 826 30 424 827 367 386 828 34 34 829 32 425 830 368 34 831 36 426 832 34 34 833 428 382 834 38 427 835 426 428 836 416 429 837 371 377 838 40 43 839 371 377 840 42 430 841 40 43 842 372 375 843 44 431 844 42 430 845 373 373 846 46 432 847 44 431 848 374 371 849 48 433 850 46 432 851 375 369 852 50 434 853 48 433 854 376 367 855 52 435 856 50 434 857 377 365 858 54 436 859 52 435 860 378 363 861 56 59 862 54 436 863 379 59 864 58 437 865 56 59 866 380 361 867 60 438 868 58 437 869 381 359 870 62 439 871 60 438 872 382 357 873 0 412 874 62 439 875 415 64 876 320 411 877 351 355 878 414 61 879 351 355 880 350 358 881 413 60 882 350 358 883 349 360 884 412 58 885 349 360 886 348 362 887 411 56 888 348 362 889 347 56 890 410 54 891 347 56 892 346 364 893 409 52 894 346 364 895 345 366 896 408 50 897 345 366 898 344 368 899 407 48 900 344 368 901 343 370 902 406 46 903 343 370 904 342 372 905 405 44 906 342 372 907 341 374 908 404 41 909 341 374 910 340 376 911 420 42 912 340 376 913 418 378 914 429 39 915 339 440 916 427 380 917 401 34 918 338 441 919 337 383 920 400 32 921 337 383 922 336 385 923 399 30 924 336 385 925 335 31 926 398 28 927 335 31 928 334 388 929 397 26 930 334 388 931 333 389 932 396 24 933 333 389 934 332 24 935 395 22 936 332 24 937 331 392 938 394 20 939 331 392 940 330 393 941 393 18 942 330 393 943 329 395 944 392 16 945 329 395 946 328 396 947 391 14 948 328 396 949 327 398 950 390 12 951 327 398 952 326 400 953 389 10 954 326 400 955 325 402 956 388 8 957 325 402 958 324 404 959 387 6 960 324 404 961 323 405 962 386 4 963 323 405 964 322 407 965 385 1 966 322 407 967 321 409 968 384 2 969 321 409 970 320 411 971 403 38 972 418 378 973 339 440 974 38 427 975 419 379 976 416 429 977 339 440 978 419 379 979 370 381 980 39 442 981 420 42 982 403 38 983 402 36 984 423 443 985 338 441 986 369 384 987 421 444 988 36 426 989 338 441 990 424 443 991 369 384 992 37 445 993 425 446 994 402 36 995 425 447 996 431 447 997 423 447 998 424 448 999 426 448 1000 421 448 1001 424 449 1002 432 449 1003 428 449 1004 422 450 1005 429 450 1006 425 450 1007 1 0 1008 3 3 1009 385 1 1010 3 3 1011 5 5 1012 386 4 1013 5 5 1014 7 7 1015 387 6 1016 7 7 1017 9 9 1018 388 8 1019 9 9 1020 11 11 1021 389 10 1022 11 11 1023 13 13 1024 390 12 1025 13 13 1026 15 15 1027 391 14 1028 15 15 1029 17 17 1030 392 16 1031 17 17 1032 19 19 1033 393 18 1034 19 19 1035 21 21 1036 394 20 1037 21 21 1038 23 23 1039 395 22 1040 23 23 1041 25 25 1042 396 24 1043 25 25 1044 27 27 1045 397 26 1046 27 27 1047 29 29 1048 398 28 1049 29 29 1050 31 31 1051 399 30 1052 31 31 1053 33 33 1054 400 32 1055 33 33 1056 35 35 1057 401 34 1058 35 35 1059 37 445 1060 402 36 1061 430 37 1062 39 442 1063 403 38 1064 417 40 1065 41 43 1066 404 41 1067 41 43 1068 43 45 1069 405 44 1070 43 45 1071 45 47 1072 406 46 1073 45 47 1074 47 49 1075 407 48 1076 47 49 1077 49 51 1078 408 50 1079 49 51 1080 51 53 1081 409 52 1082 51 53 1083 53 55 1084 410 54 1085 53 55 1086 55 57 1087 411 56 1088 55 57 1089 57 59 1090 412 58 1091 57 59 1092 59 60 1093 413 60 1094 59 60 1095 61 63 1096 414 61 1097 5 62 1098 3 62 1099 1 62 1100 1 62 1101 63 62 1102 61 62 1103 61 62 1104 59 62 1105 57 62 1106 57 62 1107 55 62 1108 430 62 1109 55 62 1110 53 62 1111 430 62 1112 53 62 1113 51 62 1114 417 62 1115 51 451 1116 49 451 1117 417 451 1118 49 452 1119 47 452 1120 417 452 1121 47 453 1122 45 453 1123 417 453 1124 45 62 1125 43 62 1126 417 62 1127 43 454 1128 41 454 1129 417 454 1130 417 62 1131 39 62 1132 430 62 1133 53 455 1134 417 455 1135 430 455 1136 61 456 1137 57 456 1138 430 456 1139 5 62 1140 1 62 1141 430 62 1142 1 457 1143 61 457 1144 430 457 1145 9 62 1146 7 62 1147 5 62 1148 13 62 1149 11 62 1150 9 62 1151 17 458 1152 15 458 1153 13 458 1154 21 459 1155 19 459 1156 17 459 1157 25 62 1158 23 62 1159 430 62 1160 23 62 1161 21 62 1162 430 62 1163 29 460 1164 27 460 1165 430 460 1166 27 461 1167 25 461 1168 430 461 1169 33 62 1170 31 62 1171 430 62 1172 31 62 1173 29 62 1174 430 62 1175 37 62 1176 35 62 1177 422 62 1178 35 62 1179 33 62 1180 422 62 1181 430 62 1182 422 62 1183 33 62 1184 9 62 1185 5 62 1186 430 62 1187 17 62 1188 13 62 1189 430 62 1190 13 62 1191 9 62 1192 430 62 1193 61 63 1194 63 65 1195 415 64 1196 63 65 1197 1 0 1198 384 2 1199 62 462 1200 0 462 1201 2 462 1202 2 463 1203 4 463 1204 6 463 1205 6 462 1206 8 462 1207 10 462 1208 10 464 1209 12 464 1210 14 464 1211 14 462 1212 16 462 1213 18 462 1214 18 465 1215 20 465 1216 22 465 1217 22 466 1218 24 466 1219 426 466 1220 24 462 1221 26 462 1222 426 462 1223 26 462 1224 28 462 1225 426 462 1226 28 462 1227 30 462 1228 426 462 1229 30 462 1230 32 462 1231 426 462 1232 32 467 1233 34 467 1234 421 467 1235 34 462 1236 36 462 1237 421 462 1238 421 468 1239 426 468 1240 32 468 1241 426 469 1242 38 469 1243 416 469 1244 416 462 1245 40 462 1246 42 462 1247 426 462 1248 416 462 1249 10 462 1250 22 470 1251 426 470 1252 18 470 1253 14 471 1254 18 471 1255 426 471 1256 6 462 1257 10 462 1258 416 462 1259 10 462 1260 14 462 1261 426 462 1262 62 462 1263 2 462 1264 416 462 1265 2 462 1266 6 462 1267 416 462 1268 58 472 1269 60 472 1270 62 472 1271 54 462 1272 56 462 1273 58 462 1274 50 462 1275 52 462 1276 416 462 1277 52 462 1278 54 462 1279 416 462 1280 46 462 1281 48 462 1282 416 462 1283 48 462 1284 50 462 1285 416 462 1286 42 473 1287 44 473 1288 416 473 1289 44 474 1290 46 474 1291 416 474 1292 58 462 1293 62 462 1294 416 462 1295 65 67 1296 67 70 1297 66 68 1298 67 70 1299 69 72 1300 68 71 1301 69 72 1302 71 74 1303 70 73 1304 71 74 1305 73 76 1306 72 75 1307 73 76 1308 75 78 1309 74 77 1310 75 78 1311 77 80 1312 76 79 1313 77 80 1314 79 82 1315 78 81 1316 79 82 1317 81 84 1318 80 83 1319 81 84 1320 83 86 1321 82 85 1322 83 86 1323 85 88 1324 84 87 1325 85 88 1326 87 90 1327 86 89 1328 87 90 1329 89 92 1330 88 91 1331 89 92 1332 91 94 1333 90 93 1334 91 94 1335 93 96 1336 92 95 1337 93 96 1338 95 98 1339 94 97 1340 95 98 1341 97 99 1342 96 99 1343 97 99 1344 99 101 1345 98 100 1346 99 101 1347 101 103 1348 100 102 1349 101 103 1350 103 105 1351 102 104 1352 103 105 1353 105 107 1354 104 106 1355 105 107 1356 107 109 1357 106 108 1358 107 109 1359 109 111 1360 108 110 1361 109 111 1362 111 113 1363 110 112 1364 111 113 1365 113 115 1366 112 114 1367 113 115 1368 115 117 1369 114 116 1370 115 117 1371 117 119 1372 116 118 1373 117 119 1374 119 121 1375 118 120 1376 119 121 1377 121 123 1378 120 122 1379 121 123 1380 123 125 1381 122 124 1382 123 125 1383 125 128 1384 124 126 1385 77 195 1386 262 195 1387 263 195 1388 125 128 1389 127 130 1390 126 129 1391 127 130 1392 65 67 1393 64 69 1394 126 194 1395 64 194 1396 70 194 1397 64 194 1398 66 194 1399 70 194 1400 66 475 1401 68 475 1402 70 475 1403 70 194 1404 72 194 1405 74 194 1406 74 476 1407 76 476 1408 78 476 1409 78 194 1410 80 194 1411 86 194 1412 80 194 1413 82 194 1414 86 194 1415 82 477 1416 84 477 1417 86 477 1418 86 194 1419 88 194 1420 90 194 1421 90 478 1422 92 478 1423 94 478 1424 94 194 1425 96 194 1426 98 194 1427 98 194 1428 100 194 1429 94 194 1430 100 479 1431 102 479 1432 94 479 1433 102 480 1434 104 480 1435 106 480 1436 106 194 1437 108 194 1438 102 194 1439 108 194 1440 110 194 1441 102 194 1442 110 194 1443 112 194 1444 114 194 1445 114 194 1446 116 194 1447 118 194 1448 118 481 1449 120 481 1450 122 481 1451 122 194 1452 124 194 1453 118 194 1454 124 482 1455 126 482 1456 118 482 1457 70 483 1458 74 483 1459 78 483 1460 86 194 1461 90 194 1462 78 194 1463 90 194 1464 94 194 1465 78 194 1466 110 484 1467 114 484 1468 126 484 1469 114 194 1470 118 194 1471 126 194 1472 126 194 1473 70 194 1474 94 194 1475 70 194 1476 78 194 1477 94 194 1478 94 194 1479 102 194 1480 126 194 1481 129 132 1482 131 135 1483 130 133 1484 131 135 1485 133 137 1486 132 136 1487 133 137 1488 135 139 1489 134 138 1490 135 139 1491 137 141 1492 136 140 1493 137 141 1494 139 143 1495 138 142 1496 139 143 1497 141 145 1498 140 144 1499 141 145 1500 143 147 1501 142 146 1502 143 147 1503 145 84 1504 144 83 1505 145 84 1506 147 148 1507 146 148 1508 147 148 1509 149 150 1510 148 149 1511 149 150 1512 151 152 1513 150 151 1514 151 152 1515 153 154 1516 152 153 1517 153 154 1518 155 156 1519 154 155 1520 155 156 1521 157 158 1522 156 157 1523 157 158 1524 159 160 1525 158 159 1526 159 160 1527 161 162 1528 160 161 1529 161 162 1530 163 164 1531 162 163 1532 163 164 1533 165 166 1534 164 165 1535 165 166 1536 167 168 1537 166 167 1538 167 168 1539 169 170 1540 168 169 1541 169 170 1542 171 172 1543 170 171 1544 171 172 1545 173 174 1546 172 173 1547 173 174 1548 175 176 1549 174 175 1550 175 176 1551 177 178 1552 176 177 1553 177 178 1554 179 180 1555 178 179 1556 179 180 1557 181 182 1558 180 181 1559 181 182 1560 183 184 1561 182 183 1562 183 184 1563 185 186 1564 184 185 1565 185 186 1566 187 188 1567 186 187 1568 187 188 1569 189 191 1570 188 189 1571 133 485 1572 131 485 1573 192 485 1574 189 191 1575 191 193 1576 190 192 1577 191 193 1578 129 132 1579 128 134 1580 190 194 1581 128 194 1582 134 194 1583 128 194 1584 130 194 1585 134 194 1586 130 478 1587 132 478 1588 134 478 1589 134 194 1590 136 194 1591 138 194 1592 138 477 1593 140 477 1594 142 477 1595 142 194 1596 144 194 1597 150 194 1598 144 486 1599 146 486 1600 150 486 1601 146 476 1602 148 476 1603 150 476 1604 150 194 1605 152 194 1606 154 194 1607 154 194 1608 156 194 1609 158 194 1610 158 194 1611 160 194 1612 162 194 1613 162 194 1614 164 194 1615 158 194 1616 164 194 1617 166 194 1618 158 194 1619 166 194 1620 168 194 1621 170 194 1622 170 194 1623 172 194 1624 166 194 1625 172 194 1626 174 194 1627 166 194 1628 174 194 1629 176 194 1630 178 194 1631 178 487 1632 180 487 1633 182 487 1634 182 194 1635 184 194 1636 186 194 1637 186 194 1638 188 194 1639 182 194 1640 188 194 1641 190 194 1642 182 194 1643 134 194 1644 138 194 1645 142 194 1646 150 194 1647 154 194 1648 142 194 1649 154 194 1650 158 194 1651 142 194 1652 174 194 1653 178 194 1654 190 194 1655 178 488 1656 182 488 1657 190 488 1658 190 194 1659 134 194 1660 158 194 1661 134 489 1662 142 489 1663 158 489 1664 158 194 1665 166 194 1666 190 194 1667 149 490 1668 202 490 1669 203 490 1670 169 195 1671 167 195 1672 211 195 1673 185 195 1674 220 195 1675 221 195 1676 141 195 1677 198 195 1678 199 195 1679 159 491 1680 207 491 1681 208 491 1682 179 195 1683 177 195 1684 216 195 1685 133 492 1686 194 492 1687 195 492 1688 151 195 1689 203 195 1690 204 195 1691 171 195 1692 169 195 1693 212 195 1694 189 493 1695 187 493 1696 221 493 1697 145 205 1698 143 205 1699 199 205 1700 163 195 1701 161 195 1702 208 195 1703 179 195 1704 217 195 1705 218 195 1706 135 494 1707 195 494 1708 196 494 1709 155 195 1710 153 195 1711 204 195 1712 173 195 1713 171 195 1714 213 195 1715 189 495 1716 222 495 1717 223 495 1718 145 195 1719 200 195 1720 201 195 1721 165 496 1722 163 496 1723 209 496 1724 183 195 1725 181 195 1726 218 195 1727 139 497 1728 137 497 1729 196 497 1730 155 498 1731 205 498 1732 206 498 1733 173 195 1734 214 195 1735 215 195 1736 129 499 1737 193 499 1738 192 499 1739 191 500 1740 223 500 1741 193 500 1742 149 501 1743 147 501 1744 201 501 1745 165 502 1746 210 502 1747 211 502 1748 185 503 1749 183 503 1750 219 503 1751 139 504 1752 197 504 1753 198 504 1754 159 195 1755 157 195 1756 206 195 1757 175 195 1758 215 195 1759 216 195 1760 207 212 1761 240 222 1762 239 213 1763 220 215 1764 227 224 1765 226 216 1766 192 218 1767 255 226 1768 253 219 1769 206 221 1770 241 228 1771 240 222 1772 219 223 1773 228 230 1774 227 224 1775 193 225 1776 254 263 1777 255 226 1778 205 227 1779 242 232 1780 241 228 1781 218 229 1782 229 234 1783 228 230 1784 204 231 1785 243 236 1786 242 232 1787 217 233 1788 230 238 1789 229 234 1790 203 235 1791 244 240 1792 243 236 1793 216 237 1794 231 242 1795 230 238 1796 202 239 1797 245 244 1798 244 240 1799 215 241 1800 232 246 1801 231 242 1802 201 243 1803 246 248 1804 245 244 1805 214 245 1806 233 250 1807 232 246 1808 200 247 1809 247 252 1810 246 248 1811 213 249 1812 234 254 1813 233 250 1814 199 251 1815 248 256 1816 247 252 1817 212 253 1818 235 258 1819 234 254 1820 198 255 1821 249 255 1822 248 256 1823 211 257 1824 236 261 1825 235 258 1826 197 259 1827 250 265 1828 249 255 1829 210 260 1830 237 267 1831 236 261 1832 223 262 1833 224 269 1834 254 263 1835 196 264 1836 251 271 1837 250 265 1838 209 266 1839 238 272 1840 237 267 1841 222 268 1842 225 273 1843 224 269 1844 195 270 1845 252 274 1846 251 271 1847 208 214 1848 239 213 1849 238 272 1850 221 217 1851 226 216 1852 225 273 1853 194 220 1854 253 219 1855 252 274 1856 264 275 1857 296 353 1858 297 276 1859 97 195 1860 95 195 1861 271 195 1862 115 195 1863 113 195 1864 280 195 1865 71 195 1866 69 195 1867 258 195 1868 89 195 1869 87 195 1870 267 195 1871 107 195 1872 105 195 1873 276 195 1874 125 195 1875 123 195 1876 285 195 1877 81 505 1878 79 505 1879 263 505 1880 99 195 1881 97 195 1882 272 195 1883 115 195 1884 281 195 1885 282 195 1886 71 506 1887 259 506 1888 260 506 1889 91 507 1890 89 507 1891 268 507 1892 109 195 1893 107 195 1894 277 195 1895 125 508 1896 286 508 1897 287 508 1898 81 195 1899 264 195 1900 265 195 1901 101 195 1902 99 195 1903 273 195 1904 119 509 1905 117 509 1906 282 509 1907 75 195 1908 73 195 1909 260 195 1910 91 510 1911 269 510 1912 270 510 1913 109 195 1914 278 195 1915 279 195 1916 65 511 1917 257 511 1918 256 511 1919 127 512 1920 287 512 1921 257 512 1922 85 195 1923 83 195 1924 265 195 1925 101 513 1926 274 513 1927 275 513 1928 121 514 1929 119 514 1930 283 514 1931 75 515 1932 261 515 1933 262 515 1934 95 195 1935 93 195 1936 270 195 1937 113 195 1938 111 195 1939 279 195 1940 67 516 1941 256 516 1942 258 516 1943 87 517 1944 85 517 1945 266 517 1946 105 195 1947 103 195 1948 275 195 1949 121 518 1950 284 518 1951 285 518 1952 279 295 1953 278 354 1954 310 296 1955 265 277 1956 297 276 1957 298 298 1958 280 300 1959 279 295 1960 311 297 1961 266 299 1962 298 298 1963 299 302 1964 280 300 1965 312 301 1966 313 304 1967 267 303 1968 299 302 1969 300 306 1970 281 305 1971 313 304 1972 314 308 1973 268 307 1974 300 306 1975 301 310 1976 282 309 1977 314 308 1978 315 312 1979 269 311 1980 301 310 1981 302 314 1982 257 316 1983 289 342 1984 288 317 1985 283 313 1986 315 312 1987 316 319 1988 270 315 1989 302 314 1990 303 321 1991 256 318 1992 288 317 1993 290 323 1994 284 320 1995 316 319 1996 317 325 1997 272 327 1998 271 322 1999 303 321 2000 258 324 2001 290 323 2002 291 329 2003 285 326 2004 317 325 2005 318 330 2006 273 332 2007 272 327 2008 304 328 2009 259 329 2010 291 329 2011 292 334 2012 286 331 2013 318 330 2014 319 336 2015 274 338 2016 273 332 2017 305 333 2018 260 335 2019 292 334 2020 293 340 2021 287 337 2022 319 336 2023 289 342 2024 275 343 2025 274 338 2026 306 339 2027 261 341 2028 293 340 2029 294 345 2030 276 347 2031 275 343 2032 307 344 2033 262 346 2034 294 345 2035 295 349 2036 277 351 2037 276 347 2038 308 348 2039 263 350 2040 295 349 2041 296 353 2042 278 354 2043 277 351 2044 309 352 2045 351 355 2046 320 411 2047 383 356 2048 350 358 2049 351 355 2050 382 357 2051 349 360 2052 350 358 2053 381 359 2054 348 362 2055 349 360 2056 380 361 2057 347 56 2058 348 362 2059 379 59 2060 346 364 2061 347 56 2062 378 363 2063 345 366 2064 346 364 2065 377 365 2066 344 368 2067 345 366 2068 376 367 2069 343 370 2070 344 368 2071 375 369 2072 342 372 2073 343 370 2074 374 371 2075 341 374 2076 342 372 2077 373 373 2078 340 376 2079 341 374 2080 372 375 2081 418 378 2082 340 376 2083 371 377 2084 427 380 2085 339 440 2086 370 381 2087 337 383 2088 338 441 2089 369 384 2090 336 385 2091 337 383 2092 368 34 2093 335 31 2094 336 385 2095 367 386 2096 334 388 2097 335 31 2098 366 387 2099 333 389 2100 334 388 2101 365 388 2102 332 24 2103 333 389 2104 364 390 2105 331 392 2106 332 24 2107 363 391 2108 330 393 2109 331 392 2110 362 23 2111 329 395 2112 330 393 2113 361 394 2114 328 396 2115 329 395 2116 360 18 2117 327 398 2118 328 396 2119 359 397 2120 326 400 2121 327 398 2122 358 399 2123 325 402 2124 326 400 2125 357 401 2126 324 404 2127 325 402 2128 356 403 2129 323 405 2130 324 404 2131 355 9 2132 322 407 2133 323 405 2134 354 406 2135 321 409 2136 322 407 2137 353 408 2138 320 411 2139 321 409 2140 352 410 2141 383 356 2142 352 410 2143 2 410 2144 352 410 2145 353 408 2146 4 413 2147 353 408 2148 354 406 2149 6 414 2150 354 406 2151 355 9 2152 8 415 2153 355 9 2154 356 403 2155 10 416 2156 356 403 2157 357 401 2158 12 417 2159 357 401 2160 358 399 2161 14 418 2162 358 399 2163 359 397 2164 16 419 2165 359 397 2166 360 18 2167 18 420 2168 360 18 2169 361 394 2170 20 421 2171 361 394 2172 362 23 2173 22 422 2174 362 23 2175 363 391 2176 24 25 2177 363 391 2178 364 390 2179 26 27 2180 364 390 2181 365 388 2182 28 423 2183 365 388 2184 366 387 2185 30 424 2186 366 387 2187 367 386 2188 32 425 2189 367 386 2190 368 34 2191 34 34 2192 368 34 2193 369 384 2194 36 426 2195 428 382 2196 370 381 2197 38 427 2198 416 429 2199 419 379 2200 371 377 2201 371 377 2202 372 375 2203 42 430 2204 372 375 2205 373 373 2206 44 431 2207 373 373 2208 374 371 2209 46 432 2210 374 371 2211 375 369 2212 48 433 2213 375 369 2214 376 367 2215 50 434 2216 376 367 2217 377 365 2218 52 435 2219 377 365 2220 378 363 2221 54 436 2222 378 363 2223 379 59 2224 56 59 2225 379 59 2226 380 361 2227 58 437 2228 380 361 2229 381 359 2230 60 438 2231 381 359 2232 382 357 2233 62 439 2234 382 357 2235 383 356 2236 0 412 2237 415 64 2238 384 2 2239 320 411 2240 414 61 2241 415 64 2242 351 355 2243 413 60 2244 414 61 2245 350 358 2246 412 58 2247 413 60 2248 349 360 2249 411 56 2250 412 58 2251 348 362 2252 410 54 2253 411 56 2254 347 56 2255 409 52 2256 410 54 2257 346 364 2258 408 50 2259 409 52 2260 345 366 2261 407 48 2262 408 50 2263 344 368 2264 406 46 2265 407 48 2266 343 370 2267 405 44 2268 406 46 2269 342 372 2270 404 41 2271 405 44 2272 341 374 2273 420 42 2274 404 41 2275 340 376 2276 429 39 2277 403 38 2278 339 440 2279 401 34 2280 402 36 2281 338 441 2282 400 32 2283 401 34 2284 337 383 2285 399 30 2286 400 32 2287 336 385 2288 398 28 2289 399 30 2290 335 31 2291 397 26 2292 398 28 2293 334 388 2294 396 24 2295 397 26 2296 333 389 2297 395 22 2298 396 24 2299 332 24 2300 394 20 2301 395 22 2302 331 392 2303 393 18 2304 394 20 2305 330 393 2306 392 16 2307 393 18 2308 329 395 2309 391 14 2310 392 16 2311 328 396 2312 390 12 2313 391 14 2314 327 398 2315 389 10 2316 390 12 2317 326 400 2318 388 8 2319 389 10 2320 325 402 2321 387 6 2322 388 8 2323 324 404 2324 386 4 2325 387 6 2326 323 405 2327 385 1 2328 386 4 2329 322 407 2330 384 2 2331 385 1 2332 321 409 2333 403 38 2334 420 42 2335 418 378 2336 38 427 2337 370 381 2338 419 379 2339 339 440 2340 418 378 2341 419 379 2342 39 442 2343 417 40 2344 420 42 2345 402 36 2346 425 446 2347 423 443 2348 369 384 2349 424 443 2350 421 444 2351 338 441 2352 423 443 2353 424 443 2354 37 445 2355 422 519 2356 425 446 2357 425 520 2358 429 520 2359 431 520 2360 424 521 2361 428 521 2362 426 521 2363 424 522 2364 423 522 2365 432 522 2366 422 523 2367 430 523 2368 429 523 2369</p>
        </triangles>
        <triangles material="Material_002-material" count="30">
          <input semantic="VERTEX" source="#Cylinder_015-mesh-vertices" offset="0"/>
          <input semantic="NORMAL" source="#Cylinder_015-mesh-normals" offset="1"/>
          <input semantic="TEXCOORD" source="#Cylinder_015-mesh-map-0" offset="2" set="0"/>
          <p>242 524 2370 246 524 2371 255 524 2372 255 195 2373 254 195 2374 224 195 2375 224 195 2376 225 195 2377 255 195 2378 225 195 2379 226 195 2380 255 195 2381 226 195 2382 227 195 2383 230 195 2384 227 195 2385 228 195 2386 230 195 2387 228 195 2388 229 195 2389 230 195 2390 230 195 2391 231 195 2392 232 195 2393 232 195 2394 233 195 2395 234 195 2396 234 525 2397 235 525 2398 236 525 2399 236 526 2400 237 526 2401 234 526 2402 237 195 2403 238 195 2404 234 195 2405 238 195 2406 239 195 2407 240 195 2408 240 195 2409 241 195 2410 242 195 2411 242 527 2412 243 527 2413 244 527 2414 244 528 2415 245 528 2416 242 528 2417 245 195 2418 246 195 2419 242 195 2420 246 529 2421 247 529 2422 250 529 2423 247 195 2424 248 195 2425 250 195 2426 248 195 2427 249 195 2428 250 195 2429 250 195 2430 251 195 2431 252 195 2432 252 530 2433 253 530 2434 255 530 2435 230 195 2436 232 195 2437 238 195 2438 232 195 2439 234 195 2440 238 195 2441 238 195 2442 240 195 2443 242 195 2444 250 531 2445 252 531 2446 246 531 2447 252 532 2448 255 532 2449 246 532 2450 255 533 2451 226 533 2452 238 533 2453 226 195 2454 230 195 2455 238 195 2456 238 534 2457 242 534 2458 255 534 2459</p>
        </triangles>
        <triangles material="Material_006-material" count="30">
          <input semantic="VERTEX" source="#Cylinder_015-mesh-vertices" offset="0"/>
          <input semantic="NORMAL" source="#Cylinder_015-mesh-normals" offset="1"/>
          <input semantic="TEXCOORD" source="#Cylinder_015-mesh-map-0" offset="2" set="0"/>
          <p>306 195 2460 298 195 2461 290 195 2462 290 535 2463 288 535 2464 289 535 2465 289 195 2466 319 195 2467 318 195 2468 318 195 2469 317 195 2470 316 195 2471 316 195 2472 315 195 2473 314 195 2474 314 195 2475 313 195 2476 310 195 2477 313 195 2478 312 195 2479 310 195 2480 312 195 2481 311 195 2482 310 195 2483 310 536 2484 309 536 2485 308 536 2486 308 537 2487 307 537 2488 306 537 2489 306 538 2490 305 538 2491 304 538 2492 304 195 2493 303 195 2494 302 195 2495 302 195 2496 301 195 2497 300 195 2498 300 539 2499 299 540 2500 298 539 2501 298 195 2502 297 195 2503 296 195 2504 296 195 2505 295 195 2506 294 195 2507 294 195 2508 293 195 2509 292 195 2510 292 195 2511 291 195 2512 294 195 2513 291 195 2514 290 195 2515 294 195 2516 290 195 2517 289 195 2518 318 195 2519 318 195 2520 316 195 2521 314 195 2522 310 541 2523 308 541 2524 306 541 2525 306 195 2526 304 195 2527 302 195 2528 302 195 2529 300 195 2530 306 195 2531 300 542 2532 298 542 2533 306 542 2534 298 543 2535 296 543 2536 290 543 2537 296 544 2538 294 544 2539 290 544 2540 290 195 2541 318 195 2542 306 195 2543 318 545 2544 314 545 2545 306 545 2546 314 195 2547 310 195 2548 306 195 2549</p>
        </triangles>
      </mesh>
    </geometry>
  </library_geometries>
  <library_visual_scenes>
    <visual_scene id="Scene" name="Scene">
      <node id="Lidar_1" name="Lidar.1" type="NODE">
        <matrix sid="transform">1.25892e-7 -1.667486 0 0 1.667486 1.25892e-7 0 0 0 0 0.6865555 0 0 0 0 1</matrix>
        <instance_geometry url="#Cylinder_015-mesh" name="Lidar.1">
          <bind_material>
            <technique_common>
              <instance_material symbol="Plastic_002-material" target="#Plastic_002-material">
                <bind_vertex_input semantic="Cylinder_015-mesh-map-0" input_semantic="TEXCOORD" input_set="0"/>
              </instance_material>
              <instance_material symbol="Material_002-material" target="#Material_002-material">
                <bind_vertex_input semantic="Cylinder_015-mesh-map-0" input_semantic="TEXCOORD" input_set="0"/>
              </instance_material>
              <instance_material symbol="Material_006-material" target="#Material_006-material">
                <bind_vertex_input semantic="Cylinder_015-mesh-map-0" input_semantic="TEXCOORD" input_set="0"/>
              </instance_material>
            </technique_common>
          </bind_material>
        </instance_geometry>
      </node>
    </visual_scene>
  </library_visual_scenes>
  <scene>
    <instance_visual_scene url="#Scene"/>
  </scene>
</COLLADA>