<?xml version="1.0" encoding="utf-8"?>
<COLLADA xmlns="http://www.collada.org/2005/11/COLLADASchema" version="1.4.1" xmlns:xsi="http://www.w3.org/2001/XMLSchema-instance">
  <asset>
    <contributor>
      <author>Blender User</author>
      <authoring_tool>Blender 3.6.20 commit date:2025-01-20, commit time:15:08, hash:46254438b9dd</authoring_tool>
    </contributor>
    <created>2025-11-06T12:47:47</created>
    <modified>2025-11-06T12:47:47</modified>
    <unit name="meter" meter="1"/>
    <up_axis>Z_UP</up_axis>
  </asset>
  <library_effects>
    <effect id="Сam_001-effect">
      <profile_COMMON>
        <technique sid="common">
          <lambert>
            <emission>
              <color sid="emission">0 0 0 1</color>
            </emission>
            <diffuse>
              <color sid="diffuse">0 0 0 1</color>
            </diffuse>
            <reflectivity>
              <float sid="specular">0.5</float>
            </reflectivity>
            <index_of_refraction>
              <float sid="ior">1.45</float>
            </index_of_refraction>
          </lambert>
        </technique>
      </profile_COMMON>
    </effect>
    <effect id="LEDMat_g_001-effect">
      <profile_COMMON>
        <technique sid="common">
          <lambert>
            <emission>
              <color sid="emission">0 0 0 1</color>
            </emission>
            <diffuse>
              <color sid="diffuse">0.04740138 0.8000001 0 1</color>
            </diffuse>
            <reflectivity>
              <float sid="specular">0.5</float>
            </reflectivity>
            <index_of_refraction>
              <float sid="ior">1.45</float>
            </index_of_refraction>
          </lambert>
        </technique>
      </profile_COMMON>
    </effect>
    <effect id="LEDMat_red_001-effect">
      <profile_COMMON>
        <technique sid="common">
          <lambert>
            <emission>
              <color sid="emission">0 0 0 1</color>
            </emission>
            <diffuse>
              <color sid="diffuse">0.8000001 0 0.006579916 1</color>
            </diffuse>
            <reflectivity>
              <float sid="specular">0.5</float>
            </reflectivity>
            <index_of_refraction>
              <float sid="ior">1.45</float>
            </index_of_refraction>
          </lambert>
        </technique>
      </profile_COMMON>
    </effect>
    <effect id="LensMat_001-effect">
      <profile_COMMON>
        <technique sid="common">
          <lambert>
            <emission>
              <color sid="emission">0 0 0 1</color>
            </emission>
            <diffuse>
              <color sid="diffuse">0.1 0.1 0.1 1</color>
            </diffuse>
            <reflectivity>
              <float sid="specular">0.5</float>
            </reflectivity>
            <index_of_refraction>
              <float sid="ior">1.45</float>
            </index_of_refraction>
          </lambert>
        </technique>
      </profile_COMMON>
    </effect>
    <effect id="CameraRingMat_001-effect">
      <profile_COMMON>
        <technique sid="common">
          <lambert>
            <emission>
              <color sid="emission">0 0 0 1</color>
            </emission>
            <diffuse>
              <color sid="diffuse">0.2644144 0.273045 0.3 1</color>
            </diffuse>
            <reflectivity>
              <float sid="specular">0.5</float>
            </reflectivity>
            <index_of_refraction>
              <float sid="ior">1.45</float>
            </index_of_refraction>
          </lambert>
        </technique>
      </profile_COMMON>
    </effect>
    <effect id="LensDetailMat_001-effect">
      <profile_COMMON>
        <technique sid="common">
          <lambert>
            <emission>
              <color sid="emission">0 0 0 1</color>
            </emission>
            <diffuse>
              <color sid="diffuse">0.2000002 0.2000001 0.3 1</color>
            </diffuse>
            <reflectivity>
              <float sid="specular">0.5</float>
            </reflectivity>
            <index_of_refraction>
              <float sid="ior">1.45</float>
            </index_of_refraction>
          </lambert>
        </technique>
      </profile_COMMON>
    </effect>
  </library_effects>
  <library_images/>
  <library_materials>
    <material id="Сam_001-material" name="Сam.001">
      <instance_effect url="#Сam_001-effect"/>
    </material>
    <material id="LEDMat_g_001-material" name="LEDMat_g.001">
      <instance_effect url="#LEDMat_g_001-effect"/>
    </material>
    <material id="LEDMat_red_001-material" name="LEDMat_red.001">
      <instance_effect url="#LEDMat_red_001-effect"/>
    </material>
    <material id="LensMat_001-material" name="LensMat.001">
      <instance_effect url="#LensMat_001-effect"/>
    </material>
    <material id="CameraRingMat_001-material" name="CameraRingMat.001">
      <instance_effect url="#CameraRingMat_001-effect"/>
    </material>
    <material id="LensDetailMat_001-material" name="LensDetailMat.001">
      <instance_effect url="#LensDetailMat_001-effect"/>
    </material>
  </library_materials>
  <library_geometries>
    <geometry id="Cylinder_003-mesh" name="Cylinder.003">
      <mesh>
        <source id="Cylinder_003-mesh-positions">
          <float_array id="Cylinder_003-mesh-positions-array" count="810">-0.00121349 -0.09643566 -0.009167551 -0.001101255 -0.09529536 -0.01577877 -0.001163363 -0.09592682 -0.01361078 -0.001014888 -0.09441983 -0.01788324 -9.05514e-4 -0.09330868 -0.01990365 -7.73907e-4 -0.09197264 -0.02182078 -4.49538e-4 -0.08867919 -0.02527201 -2.59876e-4 -0.0867536 -0.02677297 -6.21438e-4 -0.09042447 -0.02361595 -5.43594e-5 -0.08466619 -0.02810442 1.65224e-4 -0.08243709 -0.02925348 0.001138985 -0.0725491 -0.03183305 8.85963e-4 -0.07511985 -0.03150504 6.3765e-4 -0.07764083 -0.03096199 3.96609e-4 -0.08008772 -0.03020906 -0.001200914 -0.09630817 -0.01139992 0.001394689 -0.06995344 -0.03194272 -0.00121349 -0.09643566 0.009167551 -0.001200914 -0.09630817 0.01139992 -0.001163363 -0.09592682 0.01361078 8.85963e-4 -0.07511985 0.03150504 6.3765e-4 -0.07764083 0.03096199 -0.001101255 -0.09529536 0.01577877 -0.001014888 -0.09441983 0.01788324 0.001394689 -0.06995344 0.03194272 0.001138985 -0.0725491 0.03183305 -7.73907e-4 -0.09197264 0.02182078 -9.05514e-4 -0.09330868 0.01990365 -4.49538e-4 -0.08867919 0.02527201 -6.21438e-4 -0.09042447 0.02361595 -5.43594e-5 -0.08466619 0.02810442 -2.59876e-4 -0.0867536 0.02677303 1.65224e-4 -0.08243709 0.02925348 3.96609e-4 -0.08008772 0.03020906 0.008284568 0 -0.03194272 0.008284568 0 0.03194272 0.001394689 0.06995338 0.03194272 -0.00121349 0.09643566 0.009167551 0.001138985 0.07254916 0.03183305 0.001394689 0.06995338 -0.03194272 -0.00121349 0.09643566 -0.009167551 0.001138985 0.07254916 -0.03183305 8.85963e-4 0.07511985 -0.03150504 6.3765e-4 0.07764083 -0.03096199 3.96609e-4 0.08008772 -0.03020906 1.65224e-4 0.08243703 -0.02925348 -5.43594e-5 0.08466619 -0.02810442 -2.59876e-4 0.0867536 -0.02677297 -4.49538e-4 0.08867919 -0.02527201 -6.21438e-4 0.09042447 -0.02361595 -7.73907e-4 0.09197258 -0.02182078 -9.05514e-4 0.09330868 -0.01990365 -0.001014888 0.09441983 -0.01788324 -0.001101255 0.09529536 -0.01577877 -0.001163363 0.09592682 -0.01361078 -0.001200914 0.09630817 -0.01139992 8.85963e-4 0.07511985 0.03150504 6.3765e-4 0.07764083 0.03096199 3.96609e-4 0.08008772 0.03020906 1.65224e-4 0.08243703 0.02925348 -5.43594e-5 0.08466619 0.02810442 -2.59876e-4 0.0867536 0.02677303 -4.49538e-4 0.08867919 0.02527201 -6.21438e-4 0.09042447 0.02361595 -7.73907e-4 0.09197258 0.02182078 -9.05514e-4 0.09330868 0.01990365 -0.001014888 0.09441983 0.01788324 -0.001101255 0.09529536 0.01577877 -0.001163363 0.09592682 0.01361078 -0.001200914 0.09630817 0.01139992 0.01044768 -0.06244826 -0.02228116 0.01140904 -0.06244826 -0.02228116 0.01044768 -0.0627588 -0.02322268 0.01140904 -0.0627588 -0.02322268 0.01044768 -0.06363683 -0.0240013 0.01140904 -0.06363683 -0.0240013 0.01044768 -0.06493049 -0.02448254 0.01140904 -0.06493049 -0.02448254 0.01044768 -0.06641608 -0.02458322 0.01140904 -0.06641608 -0.02458322 0.01044768 -0.06783676 -0.02428579 0.01140904 -0.06783676 -0.02428579 0.01044768 -0.06894683 -0.02364176 0.01140904 -0.06894683 -0.02364176 0.01044768 -0.06955444 -0.02276241 0.01140904 -0.06955444 -0.02276241 0.01044768 -0.06955444 -0.02179998 0.01140904 -0.06955444 -0.02179998 0.01044768 -0.06894683 -0.02092063 0.01140904 -0.06894683 -0.02092063 0.01044768 -0.06783676 -0.0202766 0.01140904 -0.06783676 -0.0202766 0.01044768 -0.06641608 -0.01997911 0.01140904 -0.06641608 -0.01997911 0.01044768 -0.06493049 -0.02007979 0.01140904 -0.06493049 -0.02007979 0.01044768 -0.06363683 -0.02056097 0.01140904 -0.06363683 -0.02056097 0.01044768 -0.0627588 -0.02133971 0.01140904 -0.0627588 -0.02133971 0.01044815 -0.05125468 -0.02228122 0.01140958 -0.05125468 -0.02228122 0.01044815 -0.05156522 -0.02322274 0.01140958 -0.05156522 -0.02322274 0.01044815 -0.05244326 -0.02400141 0.01140958 -0.05244326 -0.02400141 0.01044815 -0.05373698 -0.02448266 0.01140958 -0.05373698 -0.02448266 0.01044815 -0.05522257 -0.02458328 0.01140958 -0.05522257 -0.02458328 0.01044815 -0.05664318 -0.02428591 0.01140958 -0.05664318 -0.02428591 0.01044815 -0.05775332 -0.02364182 0.01140958 -0.05775332 -0.02364182 0.01044815 -0.05836093 -0.02276247 0.01140958 -0.05836093 -0.02276247 0.01044815 -0.05836093 -0.02180004 0.01140958 -0.05836093 -0.02180004 0.01044815 -0.05775332 -0.02092075 0.01140958 -0.05775332 -0.02092075 0.01044815 -0.05664318 -0.02027672 0.01140958 -0.05664318 -0.02027672 0.01044815 -0.05522257 -0.01997923 0.01140958 -0.05522257 -0.01997923 0.01044815 -0.05373698 -0.02007991 0.01140958 -0.05373698 -0.02007991 0.01044815 -0.05244326 -0.02056109 0.01140958 -0.05244326 -0.02056109 0.01044815 -0.05156522 -0.02133983 0.01140958 -0.05156522 -0.02133983 0.009786963 0.01277184 -8.04625e-5 0.01206976 0.01277184 -8.04626e-5 0.009786963 0.01241451 -0.001903057 0.01206976 0.01241451 -0.001903057 0.009786963 0.01136487 -0.003611147 0.01206976 0.01136487 -0.003611147 0.009786963 0.009689092 -0.00509727 0.01206976 0.009689092 -0.00509727 0.009786963 0.007492244 -0.006268382 0.01206976 0.007492244 -0.006268382 0.009786963 0.004912555 -0.007050514 0.01206976 0.004912555 -0.007050514 0.009786963 0.002111971 -0.00739479 0.01206976 0.002111971 -0.00739479 0.009786963 -7.33495e-4 -0.007279396 0.01206976 -7.33495e-4 -0.007279396 0.009786963 -0.003445029 -0.006711781 0.01206976 -0.003445029 -0.006711781 0.009786963 -0.005852282 -0.00572741 0.01206976 -0.005852282 -0.00572741 0.009786963 -0.007803916 -0.004388213 0.01206976 -0.007803916 -0.004388213 0.009786963 -0.009177505 -0.002778351 0.01206976 -0.009177505 -0.002778351 0.009786963 -0.009886562 -9.9901e-4 0.01206976 -0.009886562 -9.9901e-4 0.009786963 -0.009886562 8.3808e-4 0.01206976 -0.009886562 8.3808e-4 0.009786963 -0.009177505 0.002617359 0.01206976 -0.009177505 0.002617359 0.009786963 -0.007803916 0.00422728 0.01206976 -0.007803916 0.00422728 0.009786963 -0.005852282 0.005566418 0.01206976 -0.005852282 0.005566418 0.009786963 -0.003445029 0.006550848 0.01206976 -0.003445029 0.006550848 0.009786963 -7.33498e-4 0.007118523 0.01206976 -7.33498e-4 0.007118523 0.009786963 0.002111971 0.007233858 0.01206976 0.002111971 0.007233858 0.009786963 0.004912555 0.006889641 0.01206976 0.004912555 0.006889641 0.009786963 0.007492244 0.006107389 0.01206976 0.007492244 0.006107389 0.009786963 0.009689092 0.004936397 0.01206976 0.009689092 0.004936397 0.009786963 0.01136487 0.003450155 0.01206976 0.01136487 0.003450155 0.009786963 0.01241451 0.001742064 0.01206976 0.01241451 0.001742064 0.008930861 0.01656311 -8.04621e-5 0.01178443 0.01656311 -8.04622e-5 0.008930861 0.01608669 -0.002510488 0.01178443 0.01608669 -0.002510488 0.008930861 0.01468724 -0.004788041 0.01178443 0.01468724 -0.004788041 0.008930861 0.0124529 -0.006769657 0.01178443 0.0124529 -0.006769657 0.008930861 0.009523808 -0.008331 0.01178443 0.009523808 -0.008331 0.008930861 0.006084144 -0.009373962 0.01178443 0.006084144 -0.009373962 0.008930861 0.002350032 -0.009832918 0.01178443 0.002350032 -0.009832918 0.008930861 -0.001443862 -0.009679138 0.01178443 -0.001443862 -0.009679138 0.008930861 -0.005059242 -0.008922219 0.01178443 -0.005059242 -0.008922219 0.008930861 -0.008268952 -0.007609665 0.01178443 -0.008268952 -0.007609665 0.008930861 -0.01087129 -0.005824089 0.01178443 -0.01087129 -0.005824089 0.008930861 -0.01270264 -0.003677666 0.01178443 -0.01270264 -0.003677666 0.008930861 -0.01364803 -0.001305103 0.01178443 -0.01364803 -0.001305103 0.008930861 -0.01364803 0.00114423 0.01178443 -0.01364803 0.00114423 0.008930861 -0.01270264 0.003516674 0.01178443 -0.01270264 0.003516674 0.008930861 -0.01087129 0.005663216 0.01178443 -0.01087129 0.005663216 0.008930861 -0.008269011 0.007448792 0.01178443 -0.008269011 0.007448792 0.008930861 -0.005059242 0.008761286 0.01178443 -0.005059242 0.008761286 0.008930861 -0.001443862 0.009518206 0.01178443 -0.001443862 0.009518206 0.008930861 0.002350032 0.009671986 0.01178443 0.002350032 0.009671986 0.008930861 0.006084144 0.00921303 0.01178443 0.006084144 0.00921303 0.008930861 0.009523808 0.008170068 0.01178443 0.009523808 0.008170068 0.008930861 0.0124529 0.006608664 0.01178443 0.0124529 0.006608664 0.008930861 0.01468724 0.004627048 0.01178443 0.01468724 0.004627048 0.008930861 0.01608669 0.002349615 0.01178443 0.01608669 0.002349615 0.01149898 0.009928286 -8.04629e-5 0.01225996 0.009928286 -8.04629e-5 0.01149898 0.009510815 -0.00177896 0.01225996 0.009510815 -0.00177896 0.01149898 0.008299112 -0.003311276 0.01225996 0.008299112 -0.003311276 0.01149898 0.00641191 -0.004527211 0.01225996 0.00641191 -0.004527211 0.01149898 0.004033863 -0.005308032 0.01225996 0.004033863 -0.005308032 0.01149898 0.001397728 -0.005576968 0.01225996 0.001397728 -0.005576968 0.01149898 -0.001238226 -0.005308032 0.01225996 -0.001238226 -0.005308032 0.01149898 -0.003616333 -0.004527211 0.01225996 -0.003616333 -0.004527211 0.01149898 -0.005503535 -0.003311276 0.01225996 -0.005503535 -0.003311276 0.01149898 -0.006715238 -0.00177896 0.01225996 -0.006715238 -0.00177896 0.01149898 -0.007132709 -8.04646e-5 0.01225996 -0.007132709 -8.04647e-5 0.01149898 -0.006715238 0.001617968 0.01225996 -0.006715238 0.001617968 0.01149898 -0.005503535 0.003150284 0.01225996 -0.005503535 0.003150284 0.01149898 -0.003616333 0.004366338 0.01225996 -0.003616333 0.004366338 0.01149898 -0.001238226 0.005147099 0.01225996 -0.001238226 0.005147099 0.01149898 0.001397728 0.005416095 0.01225996 0.001397728 0.005416095 0.01149898 0.004033863 0.005147099 0.01225996 0.004033863 0.005147099 0.01149898 0.00641191 0.004366338 0.01225996 0.00641191 0.004366338 0.01149898 0.008299112 0.003150284 0.01225996 0.008299112 0.003150284 0.01149898 0.009510815 0.001617968 0.01225996 0.009510815 0.001617968</float_array>
          <technique_common>
            <accessor source="#Cylinder_003-mesh-positions-array" count="270" stride="3">
              <param name="X" type="float"/>
              <param name="Y" type="float"/>
              <param name="Z" type="float"/>
            </accessor>
          </technique_common>
        </source>
        <source id="Cylinder_003-mesh-normals">
          <float_array id="Cylinder_003-mesh-normals-array" count="1020">0.9952017 -0.09784579 4.68915e-5 0.9951696 -0.09817111 -2.88458e-5 0.9951688 -0.09817916 -3.06288e-5 0.9951595 -0.09827405 -4.18975e-5 0.9952803 -0.09704136 5.05027e-5 0.9952181 -0.09767782 5.40425e-5 0.9949811 -0.100063 5.4151e-5 0.9952648 -0.09720075 5.09247e-5 0.9951878 -0.09798699 1.38715e-5 0.9951837 -0.09802812 1.7345e-6 0.9951872 -0.09799236 1.50104e-5 0.995185 -0.09801471 4.98174e-6 0.9951846 -0.0980187 3.5516e-6 0.9951518 -0.09835106 3.62709e-5 0.9951906 -0.0979585 3.70265e-5 0.9951825 -0.09804064 -1.41343e-5 0.9951853 -0.09801131 4.28297e-6 0.9951826 -0.09803885 -2.47323e-5 0.9951899 -0.09796571 5.45578e-5 0.995184 -0.09802508 -4.53197e-6 0.9951826 -0.09803962 -1.62648e-5 0.9951847 -0.0980181 0 0.9950622 -0.09925287 -5.55305e-5 0.995218 -0.0976786 -5.40425e-5 0.9952508 -0.09734463 -5.18609e-5 0.9951827 -0.09803849 2.44793e-6 0.9951308 -0.09856349 3.36774e-5 0.9952617 -0.09723192 -5.1111e-5 0.9951899 -0.09796571 -5.46296e-5 0.995184 -0.09802508 4.37012e-6 0.9951826 -0.09803968 1.64497e-5 0.9951696 -0.09817111 2.88458e-5 0.9952016 -0.09784573 -4.67696e-5 0.9951224 -0.09864813 2.43241e-5 0.9951878 -0.09798699 -1.38715e-5 0.9951847 -0.0980181 0 0.9951826 -0.09803879 2.44747e-5 0.9951872 -0.09799236 -1.50104e-5 0.9951837 -0.09802806 -1.51769e-6 0.9951846 -0.09801858 -3.55168e-6 0.995185 -0.09801471 -4.98174e-6 0.9951825 -0.09804069 1.40081e-5 0.9951905 -0.09795862 -3.6722e-5 0.9951853 -0.09801143 -4.71128e-6 0.9951848 -0.09801721 0 1 0 0 0.9951847 -0.09801721 0 1 0 0 0.9951847 0.09801733 0 0.9951847 0.09801793 0 0.9951831 0.09803414 1.90636e-5 0.9951831 0.09803414 -1.90636e-5 0.9951896 0.09796828 5.2262e-5 0.995184 0.09802508 -4.53197e-6 0.9951826 0.09803962 -1.62648e-5 0.995185 0.09801501 2.56988e-6 0.9952318 0.09753793 -1.36903e-6 0.9952297 0.0975598 -1.73194e-6 0.9951828 0.09803682 -1.26194e-5 0.9951906 0.0979585 3.70265e-5 0.9951846 0.09801864 3.73852e-6 0.995185 0.09801471 4.74452e-6 0.9951865 0.09799951 1.18841e-5 0.9951844 0.09802067 3.90233e-6 0.9951878 0.09798699 1.35489e-5 0.9951696 0.09817111 -2.88458e-5 0.9952016 0.09784579 4.70137e-5 0.9951827 0.09803849 -2.57372e-6 0.9952151 0.09770905 5.26328e-5 0.9952617 0.09723198 5.10241e-5 0.9948943 0.1009223 5.09546e-5 0.995218 0.0976786 5.40425e-5 0.9952508 0.09734463 5.17972e-5 0.9951896 0.09796828 -5.2262e-5 0.995184 0.09802508 4.53197e-6 0.9951826 0.09803962 1.62648e-5 0.995185 0.09801501 -2.56988e-6 0.9951828 0.09803682 1.26194e-5 0.9951905 0.09795856 -3.70255e-5 0.9951846 0.09801864 -3.73861e-6 0.995185 0.09801477 -4.74452e-6 0.9951865 0.09799963 -1.18841e-5 0.9951844 0.09802067 -3.90233e-6 0.9951878 0.09798699 -1.35489e-5 0.9952017 0.09784585 -4.70746e-5 0.9951696 0.09817111 2.88458e-5 0.9951224 0.09864819 2.68354e-5 0.9951118 0.09875506 3.74332e-5 0.9951687 0.09817987 2.62323e-5 0.9953036 0.09680283 -5.10635e-5 0.9952181 0.09767782 -5.40425e-5 0.9949859 0.1000153 -5.18148e-5 0.9952834 0.09700989 -5.15904e-5 0 0.9496691 -0.3132551 0 0.6635022 -0.7481744 0 0.3486604 -0.9372492 0 0.06757599 -0.9977142 0 -0.2049135 -0.9787802 0 -0.5018273 -0.864968 0 -0.8226878 -0.5684936 0 -1 0 0 -0.8227061 0.5684671 0 -0.5018273 0.864968 0 -0.2049156 0.9787797 0 0.06757664 0.9977141 0 0.3486585 0.9372499 1 0 0 0 0.6635113 0.7481663 0 0.9496765 0.3132323 -1 0 0 0 0.9496715 -0.3132476 0 0.6635087 -0.7481687 0 0.3486645 -0.9372476 0 0.06757682 -0.9977141 0 -0.2049153 -0.9787798 0 -0.5018278 -0.8649677 0 -0.8227055 0.5684679 0 -0.5018278 0.8649677 0 -0.2049132 0.9787802 0 0.06757616 0.9977141 0 0.3486543 0.9372515 1 -1.1124e-6 0 1 1.27743e-6 0 1 -1.63487e-6 0 0 0.6635058 0.7481712 0 0.9496744 0.3132392 -1 -3.11074e-6 0 -1 1.63483e-6 0 -1 -1.20437e-6 0 -1 2.20032e-6 0 -1 -1.1124e-6 0 0 0.9496726 -0.3132442 0 0.6635306 -0.7481492 0 0.3486621 -0.9372485 0 0.06756961 -0.9977146 0 -0.2049093 -0.978781 0 -0.501863 -0.8649472 0 -0.8226873 -0.5684943 0 -0.8226873 0.5684943 0 -0.5018246 0.8649694 0 -0.2049155 0.9787797 0 0.06757611 0.9977142 0 0.3486549 0.9372512 0 0.6635071 0.74817 0 0.9496693 0.3132545 0 0.9496701 -0.3132517 0 0.06756979 -0.9977146 0 -0.2049089 -0.9787811 0 -0.5018593 -0.8649493 0 -0.501826 0.8649685 0 -0.2049149 0.9787798 0 0.06757575 0.9977142 1 1.20433e-6 0 1 3.11034e-6 0 1 -2.40877e-6 0 0 0.9496714 0.3132482 -1 -1.06378e-6 0 -1 1.11239e-6 0 -1 1.20439e-6 0 -1 -3.11034e-6 0 -1 -1.27744e-6 0 -1 1.27744e-6 0 0 0.981318 -0.1923927 0 0.8520035 -0.5235361 0 0.6635023 -0.7481743 0 0.4704107 -0.8824477 0 0.29016 -0.9569782 0 0.121991 -0.9925312 0 -0.04049974 -0.9991796 0 -0.2049126 -0.9787803 0 -0.3784963 -0.9256029 0 -0.5657846 -0.8245531 0 -0.7607378 -0.6490595 0 -0.9289584 -0.3701843 0 -0.9289579 0.3701856 0 -0.7607378 0.6490595 0 -0.5657848 0.824553 0 -0.3784964 0.9256028 0 -0.2049133 0.9787802 0 -0.04049956 0.9991796 0 0.1219909 0.9925313 0 0.2901603 0.9569782 0 0.4703917 0.8824577 0 0.6635172 0.748161 0 0.8520039 0.5235355 0 0.9813179 0.1923937 0 0.981318 -0.1923927 0 0.8520039 -0.5235355 0 0.4704109 -0.8824476 0 0.29016 -0.9569782 0 0.1219911 -0.9925312 0 -0.0404998 -0.9991796 0 -0.2049129 -0.9787803 0 -0.3784967 -0.9256027 0 -0.5657855 -0.8245526 0 -0.760738 -0.6490591 0 -0.9289582 -0.3701847 0 -0.9289583 0.3701846 0 -0.760738 0.6490591 0 -0.5657846 0.8245531 0 -0.3784965 0.9256028 0 -0.2049133 0.9787802 0 -0.04049962 0.9991796 0 0.121991 0.9925312 0 0.2901605 0.9569781 0 0.4703919 0.8824576 0 0.6635174 0.7481608 1 2.79301e-6 0 1 -1.90176e-6 0 1 -8.09289e-7 0 1 1.96349e-6 0 1 2.79286e-6 0 1 8.09292e-7 0 1 -6.99186e-7 0 1 7.10391e-7 0 0 0.8520035 0.5235361 0 0.9813179 0.1923935 -1 1.96343e-6 0 -1 5.35251e-7 0 -1 -8.09292e-7 0 -1 4.55794e-7 0 -1 -6.60184e-7 0 -1 5.35248e-7 0 -1 7.45477e-7 0 0 0.9813188 -0.1923884 0 0.8520043 -0.523535 0 0.6635201 -0.7481585 0 0.4703915 -0.8824579 0 0.2901705 -0.9569751 0 0.1219909 -0.9925312 0 -0.04049962 -0.9991796 0 -0.2049182 -0.9787791 0 -0.3784984 -0.925602 0 -0.5657684 -0.8245643 0 -0.7607415 -0.6490551 0 -0.9289638 -0.3701704 0 -0.9289631 0.3701723 0 -0.7607419 0.6490546 0 -0.5657775 0.824558 0 -0.3784922 0.9256045 0 -0.2049185 0.9787791 0 0.1219909 0.9925312 0 0.2901706 0.9569749 0 0.4703913 0.8824579 0 0.6635201 0.7481585 1 -6.91726e-7 0 0 0.8519985 0.5235443 0 0.9813197 0.1923846 -1 1.06973e-6 0 0 0.9813191 -0.1923875 0 0.8520048 -0.5235341 0 0.6635205 -0.7481582 0 0.4703913 -0.8824579 0 0.2901702 -0.9569751 0 -0.2049181 -0.9787791 0 -0.5657686 -0.8245641 0 -0.7607417 -0.6490548 0 -0.9289631 -0.3701723 0 -0.9289639 0.3701706 0 -0.7607417 0.6490548 0 -0.5657775 0.8245581 0 -0.3784921 0.9256045 0 -0.2049183 0.9787791 0 0.2901706 0.956975 0 0.4703917 0.8824579 0 0.6635205 0.7481582 1 1.06973e-6 0 1 -1.57114e-6 0 1 -1.10442e-6 0 1 7.427e-7 0 1 4.55224e-7 0 1 -4.19329e-7 0 1 -6.02146e-7 0 1 -1.57105e-6 0 1 -9.73567e-7 0 1 3.99594e-7 0 0 0.8519983 0.5235448 0 0.9813199 0.1923835 -1 -6.02151e-7 0 -1 -4.55227e-7 0 -1 4.19329e-7 0 -1 3.99592e-7 0 0 0.9710974 -0.2386839 0 0.7843894 -0.6202689 0 0.5416368 -0.8406126 0 0.3119384 -0.9501023 0 0.1015164 -0.9948339 0 -0.1015165 -0.9948339 0 -0.3119384 -0.9501023 0 -0.5416367 -0.8406127 0 -0.7843896 -0.6202685 0 -0.9710969 -0.2386858 0 -0.9710969 0.2386858 0 -0.7843894 0.6202689 0 -0.5416375 0.8406122 0 -0.3119384 0.9501024 0 -0.1015167 0.9948339 0 0.1015167 0.9948339 0 0.3119384 0.9501024 0 0.5416376 0.8406122 1 5.85289e-7 0 0 0.7843891 0.6202692 0 0.9710971 0.2386852 -1 8.6701e-7 0 0 0.9710972 -0.2386845 0 0.7843891 -0.6202692 0 0.5416383 -0.8406116 0 0.3119384 -0.9501024 0 0.1015167 -0.9948339 0 -0.1015167 -0.9948339 0 -0.3119384 -0.9501024 0 -0.5416382 -0.8406117 0 -0.7843894 -0.6202689 0 -0.9710973 -0.2386841 0 -0.9710969 0.2386858 0 -0.7843896 0.6202685 0 -0.5416382 0.8406117 0 -0.3119384 0.9501023 0 -0.1015169 0.9948339 0 0.1015169 0.9948339 0 0.3119384 0.9501023 0 0.5416383 0.8406116 1 2.56531e-6 0 1 -1.19333e-6 0 1 1.056e-6 0 1 -2.00864e-6 0 1 1.19333e-6 0 1 -2.56531e-6 0 1 1.056e-6 0 0 0.7843894 0.6202689 0 0.9710971 0.2386852 -1 -1.76766e-6 0 -1 -5.85289e-7 0 -1 1.00432e-6 0 -1 -1.00432e-6 0 -1 5.85289e-7 0 -1 1.76767e-6 0 -1 -8.6701e-7 0 -1 6.88053e-7 0 -1 -6.88053e-7 0</float_array>
          <technique_common>
            <accessor source="#Cylinder_003-mesh-normals-array" count="340" stride="3">
              <param name="X" type="float"/>
              <param name="Y" type="float"/>
              <param name="Z" type="float"/>
            </accessor>
          </technique_common>
        </source>
        <source id="Cylinder_003-mesh-map-0">
          <float_array id="Cylinder_003-mesh-map-0-array" count="2688">0 0 0 0 0 0 0 0 0 0 0 0 0 0 0 0 0 0 0 0 0 0 0 0 0 0 0 0 0 0 0 0 0 0 0 0 0 0 0 0 0 0 0 0 0 0 0 0 0 0 0 0 0 0 0 0 0 0 0 0 0 0 0 0 0 0 0 0 0 0 0 0 0 0 0 0 0 0 0 0 0 0 0 0 0 0 0 0 0 0 0 0 0 0 0 0 0 0 0 0 0 0 0 0 0 0 0 0 0 0 0 0 0 0 0 0 0 0 0 0 0 0 0 0 0 0 0 0 0 0 0 0 0 0 0 0 0 0 0 0 0 0 0 0 0 0 0 0 0 0 0 0 0 0 0 0 0 0 0 0 0 0 0 0 0 0 0 0 0 0 0 0 0 0 0 0 0 0 0 0 0 0 0 0 0 0 0 0 0 0 0 0 0 0 0 0 0 0 0 0 0 0 0 0 0 0 0 0 0 0 0 0 0 0 0 0 0 0 0 0 0 0 0 0 0 0 0 0 0 0 0 0 0 0 0 0 0 0 0 0 0 0 0 0 0 0 0 0 0 0 0 0 0 0 0 0 0 0 0 0 0 0 0 0 0 0 0 0 0 0 0 0 0 0 0 0 0 0 0 0 0 0 0 0 0 0 0 0 0 0 0 0 0 0 0 0 0 0 0 0 0 0 0 0 0 0 0 0 0 0 0 0 0 0 0 0 0 0 0 0 0 0 0 0 0 0 0 0 0 0 0 0 0 0 0 0 0 0 0 0 0 0 0 0 0 0 0 0 0 0 0 0 0 0 0 0 0 0 0 0 0 0 0 0 0 0 0 0 0 0 0 0 0 0 0 0 0 0 0 0 0 0 0 0 0 0 0 0 0 0 0 0 0 0 0 0 0 0 0 0 0 0 0 0 0 0 0 0 1 1 0.9333333 0.5 1 0.5 0.9333333 1 0.8666667 0.5 0.9333333 0.5 0.8666667 0.5 0.8 1 0.8 0.5 0.8 1 0.7333334 0.5 0.8 0.5 0.7333334 1 0.6666667 0.5 0.7333334 0.5 0.6666667 1 0.6 0.5 0.6666667 0.5 0.6 1 0.5333334 0.5 0.6 0.5 0.5333334 1 0.4666667 0.5 0.5333334 0.5 0.4666667 1 0.4 0.5 0.4666667 0.5 0.4 1 0.3333334 0.5 0.4 0.5 0.3333334 1 0.2666667 0.5 0.3333334 0.5 0.2666667 1 0.2 0.5 0.2666667 0.5 0.2 0.5 0.1333333 1 0.1333333 0.5 0.4782536 0.3241641 0.4283547 0.4105914 0.0716452 0.4105914 0.1333333 1 0.06666672 0.5 0.1333333 0.5 0.06666672 1 0 0.5 0.06666672 0.5 0.5716453 0.4105914 0.6523832 0.4692509 0.8476168 0.4692509 1 1 0.9333333 1 0.9333333 0.5 0.9333333 1 0.8666667 1 0.8666667 0.5 0.8666667 0.5 0.8666667 1 0.8 1 0.8 1 0.7333334 1 0.7333334 0.5 0.7333334 1 0.6666667 1 0.6666667 0.5 0.6666667 1 0.6 1 0.6 0.5 0.6 1 0.5333334 1 0.5333334 0.5 0.5333334 1 0.4666667 1 0.4666667 0.5 0.4666667 1 0.4 1 0.4 0.5 0.4 1 0.3333334 1 0.3333334 0.5 0.3333334 1 0.2666667 1 0.2666667 0.5 0.2666667 1 0.2 1 0.2 0.5 0.2 0.5 0.2 1 0.1333333 1 0.4283547 0.4105914 0.3476168 0.4692509 0.0716452 0.4105914 0.3476168 0.4692509 0.25 0.49 0.1523832 0.4692509 0.0716452 0.4105914 0.3476168 0.4692509 0.1523832 0.4692509 0.0716452 0.4105914 0.02174633 0.3241641 0.4782536 0.3241641 0.02174633 0.3241641 0.01131469 0.2249131 0.4782536 0.3241641 0.01131469 0.2249131 0.04215389 0.1299999 0.4578461 0.1299999 0.04215389 0.1299999 0.1089315 0.0558359 0.4578461 0.1299999 0.1089315 0.0558359 0.2001011 0.01524454 0.2998988 0.01524454 0.2998988 0.01524454 0.3910685 0.0558359 0.1089315 0.0558359 0.3910685 0.0558359 0.4578461 0.1299999 0.1089315 0.0558359 0.4578461 0.1299999 0.4886853 0.2249131 0.01131469 0.2249131 0.4886853 0.2249131 0.4782536 0.3241641 0.01131469 0.2249131 0.1333333 1 0.06666672 1 0.06666672 0.5 0.06666672 1 0 1 0 0.5 0.6523832 0.4692509 0.75 0.49 0.8476168 0.4692509 0.8476168 0.4692509 0.9283547 0.4105914 0.5716453 0.4105914 0.9283547 0.4105914 0.9782536 0.3241641 0.5716453 0.4105914 0.9782536 0.3241641 0.9886853 0.2249131 0.5113148 0.2249131 0.9886853 0.2249131 0.9578461 0.1299999 0.5113148 0.2249131 0.9578461 0.1299999 0.8910685 0.0558359 0.6089316 0.0558359 0.8910685 0.0558359 0.7998988 0.01524454 0.6089316 0.0558359 0.7998988 0.01524454 0.7001012 0.01524454 0.6089316 0.0558359 0.6089316 0.0558359 0.5421539 0.1299999 0.9578461 0.1299999 0.5421539 0.1299999 0.5113148 0.2249131 0.9578461 0.1299999 0.5113148 0.2249131 0.5217464 0.3241641 0.9782536 0.3241641 0.5217464 0.3241641 0.5716453 0.4105914 0.9782536 0.3241641 1 1 0.9333333 0.5 1 0.5 0.9333333 1 0.8666667 0.5 0.9333333 0.5 0.8666667 0.5 0.8 1 0.8 0.5 0.8 1 0.7333334 0.5 0.8 0.5 0.7333334 1 0.6666667 0.5 0.7333334 0.5 0.6666667 1 0.6 0.5 0.6666667 0.5 0.6 1 0.5333334 0.5 0.6 0.5 0.5333334 1 0.4666667 0.5 0.5333334 0.5 0.4666667 1 0.4 0.5 0.4666667 0.5 0.4 1 0.3333334 0.5 0.4 0.5 0.3333334 1 0.2666667 0.5 0.3333334 0.5 0.2666667 1 0.2 0.5 0.2666667 0.5 0.2 0.5 0.1333333 1 0.1333333 0.5 0.4782536 0.3241641 0.4283547 0.4105914 0.0716452 0.4105914 0.1333333 1 0.06666672 0.5 0.1333333 0.5 0.06666672 1 0 0.5 0.06666672 0.5 0.5716453 0.4105914 0.6523832 0.4692509 0.8476168 0.4692509 1 1 0.9333333 1 0.9333333 0.5 0.9333333 1 0.8666667 1 0.8666667 0.5 0.8666667 0.5 0.8666667 1 0.8 1 0.8 1 0.7333334 1 0.7333334 0.5 0.7333334 1 0.6666667 1 0.6666667 0.5 0.6666667 1 0.6 1 0.6 0.5 0.6 1 0.5333334 1 0.5333334 0.5 0.5333334 1 0.4666667 1 0.4666667 0.5 0.4666667 1 0.4 1 0.4 0.5 0.4 1 0.3333334 1 0.3333334 0.5 0.3333334 1 0.2666667 1 0.2666667 0.5 0.2666667 1 0.2 1 0.2 0.5 0.2 0.5 0.2 1 0.1333333 1 0.4283547 0.4105914 0.3476168 0.4692509 0.0716452 0.4105914 0.3476168 0.4692509 0.25 0.49 0.1523832 0.4692509 0.0716452 0.4105914 0.3476168 0.4692509 0.1523832 0.4692509 0.0716452 0.4105914 0.02174633 0.3241641 0.4782536 0.3241641 0.02174633 0.3241641 0.01131469 0.2249131 0.4782536 0.3241641 0.01131469 0.2249131 0.04215389 0.1299999 0.4578461 0.1299999 0.04215389 0.1299999 0.1089315 0.0558359 0.4578461 0.1299999 0.1089315 0.0558359 0.2001011 0.01524454 0.2998988 0.01524454 0.2998988 0.01524454 0.3910685 0.0558359 0.1089315 0.0558359 0.3910685 0.0558359 0.4578461 0.1299999 0.1089315 0.0558359 0.4578461 0.1299999 0.4886853 0.2249131 0.01131469 0.2249131 0.4886853 0.2249131 0.4782536 0.3241641 0.01131469 0.2249131 0.1333333 1 0.06666672 1 0.06666672 0.5 0.06666672 1 0 1 0 0.5 0.6523832 0.4692509 0.75 0.49 0.8476168 0.4692509 0.8476168 0.4692509 0.9283547 0.4105914 0.5716453 0.4105914 0.9283547 0.4105914 0.9782536 0.3241641 0.5716453 0.4105914 0.9782536 0.3241641 0.9886853 0.2249131 0.5113148 0.2249131 0.9886853 0.2249131 0.9578461 0.1299999 0.5113148 0.2249131 0.9578461 0.1299999 0.8910685 0.0558359 0.6089316 0.0558359 0.8910685 0.0558359 0.7998988 0.01524454 0.6089316 0.0558359 0.7998988 0.01524454 0.7001012 0.01524454 0.6089316 0.0558359 0.6089316 0.0558359 0.5421539 0.1299999 0.9578461 0.1299999 0.5421539 0.1299999 0.5113148 0.2249131 0.9578461 0.1299999 0.5113148 0.2249131 0.5217464 0.3241641 0.9782536 0.3241641 0.5217464 0.3241641 0.5716453 0.4105914 0.9782536 0.3241641 1 1 0.96 0.5 1 0.5 0.96 0.5 0.92 1 0.92 0.5 0.92 1 0.8799999 0.5 0.92 0.5 0.8799999 1 0.8399999 0.5 0.8799999 0.5 0.8399999 1 0.7999999 0.5 0.8399999 0.5 0.7999999 1 0.7599999 0.5 0.7999999 0.5 0.7599999 1 0.7199999 0.5 0.7599999 0.5 0.7199999 1 0.6799998 0.5 0.7199999 0.5 0.6799998 1 0.6399998 0.5 0.6799998 0.5 0.6399998 1 0.5999998 0.5 0.6399998 0.5 0.5999998 1 0.5599998 0.5 0.5999998 0.5 0.5599998 1 0.5199998 0.5 0.5599998 0.5 0.5199998 0.5 0.4799997 1 0.4799997 0.5 0.4799997 1 0.4399998 0.5 0.4799997 0.5 0.4399998 1 0.3999997 0.5 0.4399998 0.5 0.3999997 1 0.3599998 0.5 0.3999997 0.5 0.3599998 1 0.3199998 0.5 0.3599998 0.5 0.3199998 1 0.2799998 0.5 0.3199998 0.5 0.2799998 1 0.2399998 0.5 0.2799998 0.5 0.2399998 1 0.1999998 0.5 0.2399998 0.5 0.1999998 1 0.1599998 0.5 0.1999998 0.5 0.1599998 1 0.1199998 0.5 0.1599998 0.5 0.1199998 1 0.0799998 0.5 0.1199998 0.5 0.4142913 0.4249525 0.3656209 0.4603136 0.1343791 0.4603136 0.0799998 0.5 0.03999978 1 0.03999978 0.5 0.03999978 1 -1.78814e-7 0.5 0.03999978 0.5 0.6343791 0.4603136 0.6903144 0.48246 0.8096856 0.48246 1 1 0.96 1 0.96 0.5 0.96 0.5 0.96 1 0.92 1 0.92 1 0.8799999 1 0.8799999 0.5 0.8799999 1 0.8399999 1 0.8399999 0.5 0.8399999 1 0.7999999 1 0.7999999 0.5 0.7999999 1 0.7599999 1 0.7599999 0.5 0.7599999 1 0.7199999 1 0.7199999 0.5 0.7199999 1 0.6799998 1 0.6799998 0.5 0.6799998 1 0.6399998 1 0.6399998 0.5 0.6399998 1 0.5999998 1 0.5999998 0.5 0.5999998 1 0.5599998 1 0.5599998 0.5 0.5599998 1 0.5199998 1 0.5199998 0.5 0.5199998 0.5 0.5199998 1 0.4799997 1 0.4799997 1 0.4399998 1 0.4399998 0.5 0.4399998 1 0.3999997 1 0.3999997 0.5 0.3999997 1 0.3599998 1 0.3599998 0.5 0.3599998 1 0.3199998 1 0.3199998 0.5 0.3199998 1 0.2799998 1 0.2799998 0.5 0.2799998 1 0.2399998 1 0.2399998 0.5 0.2399998 1 0.1999998 1 0.1999998 0.5 0.1999998 1 0.1599998 1 0.1599998 0.5 0.1599998 1 0.1199998 1 0.1199998 0.5 0.1199998 1 0.0799998 1 0.0799998 0.5 0.3656209 0.4603136 0.3096856 0.48246 0.1343791 0.4603136 0.3096856 0.48246 0.25 0.49 0.1903144 0.48246 0.1343791 0.4603136 0.3096856 0.48246 0.1903144 0.48246 0.1343791 0.4603136 0.08570867 0.4249525 0.4142913 0.4249525 0.08570867 0.4249525 0.04736125 0.3785985 0.4142913 0.4249525 0.04736125 0.3785985 0.02174633 0.3241641 0.4782536 0.3241641 0.02174633 0.3241641 0.01047348 0.2650697 0.4782536 0.3241641 0.01047348 0.2650697 0.01425105 0.2050285 0.485749 0.2050285 0.01425105 0.2050285 0.0328415 0.147813 0.485749 0.2050285 0.0328415 0.147813 0.06507682 0.09701818 0.4349232 0.09701818 0.06507682 0.09701818 0.1089315 0.0558359 0.4349232 0.09701818 0.1089315 0.0558359 0.1616501 0.02685362 0.3383499 0.02685362 0.1616501 0.02685362 0.21992 0.01189237 0.3383499 0.02685362 0.21992 0.01189237 0.28008 0.01189237 0.3383499 0.02685362 0.3383499 0.02685362 0.3910685 0.0558359 0.1089315 0.0558359 0.3910685 0.0558359 0.4349232 0.09701818 0.1089315 0.0558359 0.4349232 0.09701818 0.4671585 0.147813 0.0328415 0.147813 0.4671585 0.147813 0.485749 0.2050285 0.0328415 0.147813 0.485749 0.2050285 0.4895264 0.2650697 0.01047348 0.2650697 0.4895264 0.2650697 0.4782536 0.3241641 0.01047348 0.2650697 0.4782536 0.3241641 0.4526387 0.3785985 0.04736125 0.3785985 0.4526387 0.3785985 0.4142913 0.4249525 0.04736125 0.3785985 0.0799998 0.5 0.0799998 1 0.03999978 1 0.03999978 1 -1.78814e-7 1 -1.78814e-7 0.5 0.6903144 0.48246 0.75 0.49 0.8096856 0.48246 0.8096856 0.48246 0.8656209 0.4603136 0.6343791 0.4603136 0.8656209 0.4603136 0.9142913 0.4249525 0.6343791 0.4603136 0.9142913 0.4249525 0.9526387 0.3785985 0.5473613 0.3785985 0.9526387 0.3785985 0.9782536 0.3241641 0.5473613 0.3785985 0.9782536 0.3241641 0.9895264 0.2650697 0.5104736 0.2650697 0.9895264 0.2650697 0.985749 0.2050285 0.5104736 0.2650697 0.985749 0.2050285 0.9671585 0.147813 0.5328415 0.147813 0.9671585 0.147813 0.9349232 0.09701818 0.5328415 0.147813 0.9349232 0.09701818 0.8910685 0.0558359 0.6089316 0.0558359 0.8910685 0.0558359 0.8383499 0.02685362 0.6089316 0.0558359 0.8383499 0.02685362 0.78008 0.01189237 0.71992 0.01189237 0.71992 0.01189237 0.6616501 0.02685362 0.8383499 0.02685362 0.6616501 0.02685362 0.6089316 0.0558359 0.8383499 0.02685362 0.6089316 0.0558359 0.5650768 0.09701818 0.9349232 0.09701818 0.5650768 0.09701818 0.5328415 0.147813 0.9349232 0.09701818 0.5328415 0.147813 0.5142511 0.2050285 0.985749 0.2050285 0.5142511 0.2050285 0.5104736 0.2650697 0.985749 0.2050285 0.5104736 0.2650697 0.5217464 0.3241641 0.9782536 0.3241641 0.5217464 0.3241641 0.5473613 0.3785985 0.9782536 0.3241641 0.5473613 0.3785985 0.5857087 0.4249525 0.9142913 0.4249525 0.5857087 0.4249525 0.6343791 0.4603136 0.9142913 0.4249525 1 1 0.96 0.5 1 0.5 0.96 1 0.92 0.5 0.96 0.5 0.92 1 0.8799999 0.5 0.92 0.5 0.8799999 1 0.8399999 0.5 0.8799999 0.5 0.8399999 0.5 0.7999999 1 0.7999999 0.5 0.7999999 1 0.7599999 0.5 0.7999999 0.5 0.7599999 1 0.7199999 0.5 0.7599999 0.5 0.7199999 1 0.6799998 0.5 0.7199999 0.5 0.6799998 1 0.6399998 0.5 0.6799998 0.5 0.6399998 1 0.5999998 0.5 0.6399998 0.5 0.5999998 1 0.5599998 0.5 0.5999998 0.5 0.5599998 1 0.5199998 0.5 0.5599998 0.5 0.5199998 1 0.4799997 0.5 0.5199998 0.5 0.4799997 1 0.4399998 0.5 0.4799997 0.5 0.4399998 1 0.3999997 0.5 0.4399998 0.5 0.3999997 1 0.3599998 0.5 0.3999997 0.5 0.3599998 1 0.3199998 0.5 0.3599998 0.5 0.3199998 1 0.2799998 0.5 0.3199998 0.5 0.2799998 1 0.2399998 0.5 0.2799998 0.5 0.2399998 1 0.1999998 0.5 0.2399998 0.5 0.1999998 1 0.1599998 0.5 0.1999998 0.5 0.1599998 1 0.1199998 0.5 0.1599998 0.5 0.1199998 0.5 0.0799998 1 0.0799998 0.5 0.4142913 0.4249525 0.3656209 0.4603136 0.1343791 0.4603136 0.0799998 1 0.03999978 0.5 0.0799998 0.5 0.03999978 0.5 -1.78814e-7 1 -1.78814e-7 0.5 0.6343791 0.4603136 0.6903144 0.48246 0.8096856 0.48246 1 1 0.96 1 0.96 0.5 0.96 1 0.92 1 0.92 0.5 0.92 1 0.8799999 1 0.8799999 0.5 0.8799999 1 0.8399999 1 0.8399999 0.5 0.8399999 0.5 0.8399999 1 0.7999999 1 0.7999999 1 0.7599999 1 0.7599999 0.5 0.7599999 1 0.7199999 1 0.7199999 0.5 0.7199999 1 0.6799998 1 0.6799998 0.5 0.6799998 1 0.6399998 1 0.6399998 0.5 0.6399998 1 0.5999998 1 0.5999998 0.5 0.5999998 1 0.5599998 1 0.5599998 0.5 0.5599998 1 0.5199998 1 0.5199998 0.5 0.5199998 1 0.4799997 1 0.4799997 0.5 0.4799997 1 0.4399998 1 0.4399998 0.5 0.4399998 1 0.3999997 1 0.3999997 0.5 0.3999997 1 0.3599998 1 0.3599998 0.5 0.3599998 1 0.3199998 1 0.3199998 0.5 0.3199998 1 0.2799998 1 0.2799998 0.5 0.2799998 1 0.2399998 1 0.2399998 0.5 0.2399998 1 0.1999998 1 0.1999998 0.5 0.1999998 1 0.1599998 1 0.1599998 0.5 0.1599998 1 0.1199998 1 0.1199998 0.5 0.1199998 0.5 0.1199998 1 0.0799998 1 0.3656209 0.4603136 0.3096856 0.48246 0.1903144 0.48246 0.3096856 0.48246 0.25 0.49 0.1903144 0.48246 0.1903144 0.48246 0.1343791 0.4603136 0.3656209 0.4603136 0.1343791 0.4603136 0.08570867 0.4249525 0.4142913 0.4249525 0.08570867 0.4249525 0.04736125 0.3785985 0.4142913 0.4249525 0.04736125 0.3785985 0.02174633 0.3241641 0.4782536 0.3241641 0.02174633 0.3241641 0.01047348 0.2650697 0.4782536 0.3241641 0.01047348 0.2650697 0.01425105 0.2050285 0.485749 0.2050285 0.01425105 0.2050285 0.0328415 0.147813 0.485749 0.2050285 0.0328415 0.147813 0.06507682 0.09701818 0.4349232 0.09701818 0.06507682 0.09701818 0.1089315 0.0558359 0.4349232 0.09701818 0.1089315 0.0558359 0.1616501 0.02685362 0.3383499 0.02685362 0.1616501 0.02685362 0.21992 0.01189237 0.3383499 0.02685362 0.21992 0.01189237 0.28008 0.01189237 0.3383499 0.02685362 0.3383499 0.02685362 0.3910685 0.0558359 0.1089315 0.0558359 0.3910685 0.0558359 0.4349232 0.09701818 0.1089315 0.0558359 0.4349232 0.09701818 0.4671585 0.147813 0.0328415 0.147813 0.4671585 0.147813 0.485749 0.2050285 0.0328415 0.147813 0.485749 0.2050285 0.4895264 0.2650697 0.01047348 0.2650697 0.4895264 0.2650697 0.4782536 0.3241641 0.01047348 0.2650697 0.4782536 0.3241641 0.4526387 0.3785985 0.04736125 0.3785985 0.4526387 0.3785985 0.4142913 0.4249525 0.04736125 0.3785985 0.0799998 1 0.03999978 1 0.03999978 0.5 0.03999978 0.5 0.03999978 1 -1.78814e-7 1 0.6903144 0.48246 0.75 0.49 0.8096856 0.48246 0.8096856 0.48246 0.8656209 0.4603136 0.6343791 0.4603136 0.8656209 0.4603136 0.9142913 0.4249525 0.6343791 0.4603136 0.9142913 0.4249525 0.9526387 0.3785985 0.5473613 0.3785985 0.9526387 0.3785985 0.9782536 0.3241641 0.5473613 0.3785985 0.9782536 0.3241641 0.9895264 0.2650697 0.5104736 0.2650697 0.9895264 0.2650697 0.985749 0.2050285 0.5104736 0.2650697 0.985749 0.2050285 0.9671585 0.147813 0.5328415 0.147813 0.9671585 0.147813 0.9349232 0.09701818 0.5328415 0.147813 0.9349232 0.09701818 0.8910685 0.0558359 0.6089316 0.0558359 0.8910685 0.0558359 0.8383499 0.02685362 0.6089316 0.0558359 0.8383499 0.02685362 0.78008 0.01189237 0.71992 0.01189237 0.71992 0.01189237 0.6616501 0.02685362 0.8383499 0.02685362 0.6616501 0.02685362 0.6089316 0.0558359 0.8383499 0.02685362 0.6089316 0.0558359 0.5650768 0.09701818 0.9349232 0.09701818 0.5650768 0.09701818 0.5328415 0.147813 0.9349232 0.09701818 0.5328415 0.147813 0.5142511 0.2050285 0.985749 0.2050285 0.5142511 0.2050285 0.5104736 0.2650697 0.985749 0.2050285 0.5104736 0.2650697 0.5217465 0.3241641 0.9782536 0.3241641 0.5217465 0.3241641 0.5473613 0.3785985 0.9782536 0.3241641 0.5473613 0.3785985 0.5857087 0.4249525 0.9142913 0.4249525 0.5857087 0.4249525 0.6343791 0.4603136 0.9142913 0.4249525 1 1 0.95 0.5 1 0.5 0.95 1 0.9 0.5 0.95 0.5 0.9 0.5 0.85 1 0.85 0.5 0.85 1 0.8 0.5 0.85 0.5 0.8 1 0.75 0.5 0.8 0.5 0.75 1 0.6999999 0.5 0.75 0.5 0.6999999 1 0.6499999 0.5 0.6999999 0.5 0.6499999 1 0.5999999 0.5 0.6499999 0.5 0.5999999 1 0.5499999 0.5 0.5999999 0.5 0.5499999 1 0.4999999 0.5 0.5499999 0.5 0.4999999 1 0.4499999 0.5 0.4999999 0.5 0.4499999 1 0.3999999 0.5 0.4499999 0.5 0.3999999 1 0.3499999 0.5 0.3999999 0.5 0.3499999 1 0.2999998 0.5 0.3499999 0.5 0.2999998 1 0.2499998 0.5 0.2999998 0.5 0.2499998 1 0.1999998 0.5 0.2499998 0.5 0.1999998 1 0.1499997 0.5 0.1999998 0.5 0.1499997 1 0.09999984 0.5 0.1499997 0.5 0.4782536 0.3241641 0.4441641 0.3910685 0.02174633 0.3241641 0.09999984 1 0.04999983 0.5 0.09999984 0.5 0.04999983 0.5 -1.56462e-7 1 -1.56462e-7 0.5 0.5558359 0.3910685 0.6089316 0.4441641 0.9441641 0.3910685 1 1 0.95 1 0.95 0.5 0.95 1 0.9 1 0.9 0.5 0.9 0.5 0.9 1 0.85 1 0.85 1 0.8 1 0.8 0.5 0.8 1 0.75 1 0.75 0.5 0.75 1 0.6999999 1 0.6999999 0.5 0.6999999 1 0.6499999 1 0.6499999 0.5 0.6499999 1 0.5999999 1 0.5999999 0.5 0.5999999 1 0.5499999 1 0.5499999 0.5 0.5499999 1 0.4999999 1 0.4999999 0.5 0.4999999 1 0.4499999 1 0.4499999 0.5 0.4499999 1 0.3999999 1 0.3999999 0.5 0.3999999 1 0.3499999 1 0.3499999 0.5 0.3499999 1 0.2999998 1 0.2999998 0.5 0.2999998 1 0.2499998 1 0.2499998 0.5 0.2499998 1 0.1999998 1 0.1999998 0.5 0.1999998 1 0.1499997 1 0.1499997 0.5 0.1499997 1 0.09999984 1 0.09999984 0.5 0.3910685 0.4441641 0.3241641 0.4782536 0.1089315 0.4441641 0.3241641 0.4782536 0.25 0.49 0.1758359 0.4782536 0.1089315 0.4441641 0.3241641 0.4782536 0.1758359 0.4782536 0.1089315 0.4441641 0.0558359 0.3910685 0.3910685 0.4441641 0.0558359 0.3910685 0.02174633 0.3241641 0.4441641 0.3910685 0.3910685 0.4441641 0.0558359 0.3910685 0.4441641 0.3910685 0.02174633 0.3241641 0.00999999 0.25 0.4782536 0.3241641 0.00999999 0.25 0.02174633 0.1758359 0.49 0.25 0.4782536 0.3241641 0.00999999 0.25 0.49 0.25 0.02174633 0.1758359 0.0558359 0.1089315 0.4441641 0.1089315 0.0558359 0.1089315 0.1089315 0.0558359 0.3910685 0.0558359 0.1089315 0.0558359 0.1758359 0.02174633 0.3910685 0.0558359 0.1758359 0.02174633 0.25 0.00999999 0.3241641 0.02174633 0.3910685 0.0558359 0.1758359 0.02174633 0.3241641 0.02174633 0.3910685 0.0558359 0.4441641 0.1089315 0.0558359 0.1089315 0.4441641 0.1089315 0.4782536 0.1758359 0.02174633 0.1758359 0.4782536 0.1758359 0.49 0.25 0.02174633 0.1758359 0.09999984 1 0.04999983 1 0.04999983 0.5 0.04999983 0.5 0.04999983 1 -1.56462e-7 1 0.6758359 0.4782536 0.75 0.49 0.8241641 0.4782536 0.8241641 0.4782536 0.8910685 0.4441641 0.6758359 0.4782536 0.8910685 0.4441641 0.9441641 0.3910685 0.6089316 0.4441641 0.6758359 0.4782536 0.8910685 0.4441641 0.6089316 0.4441641 0.9441641 0.3910685 0.9782536 0.3241641 0.5217464 0.3241641 0.9782536 0.3241641 0.99 0.25 0.51 0.25 0.99 0.25 0.9782536 0.1758359 0.51 0.25 0.9782536 0.1758359 0.9441641 0.1089315 0.5217464 0.1758359 0.51 0.25 0.9782536 0.1758359 0.5217464 0.1758359 0.9441641 0.1089315 0.8910685 0.0558359 0.6089316 0.0558359 0.8910685 0.0558359 0.8241641 0.02174633 0.6758359 0.02174633 0.8241641 0.02174633 0.75 0.00999999 0.6758359 0.02174633 0.6758359 0.02174633 0.6089316 0.0558359 0.8910685 0.0558359 0.6089316 0.0558359 0.5558359 0.1089315 0.9441641 0.1089315 0.5558359 0.1089315 0.5217464 0.1758359 0.9441641 0.1089315 0.51 0.25 0.5217464 0.3241641 0.9782536 0.3241641 0.5217464 0.3241641 0.5558359 0.3910685 0.9441641 0.3910685</float_array>
          <technique_common>
            <accessor source="#Cylinder_003-mesh-map-0-array" count="1344" stride="2">
              <param name="S" type="float"/>
              <param name="T" type="float"/>
            </accessor>
          </technique_common>
        </source>
        <vertices id="Cylinder_003-mesh-vertices">
          <input semantic="POSITION" source="#Cylinder_003-mesh-positions"/>
        </vertices>
        <triangles material="Сam_001-material" count="68">
          <input semantic="VERTEX" source="#Cylinder_003-mesh-vertices" offset="0"/>
          <input semantic="NORMAL" source="#Cylinder_003-mesh-normals" offset="1"/>
          <input semantic="TEXCOORD" source="#Cylinder_003-mesh-map-0" offset="2" set="0"/>
          <p>3 0 0 0 1 1 1 1 2 1 2 3 0 3 4 2 4 5 0 5 6 15 6 7 2 7 8 0 8 9 3 8 10 4 8 11 4 9 12 5 9 13 0 9 14 0 10 15 5 10 16 8 10 17 0 11 18 8 11 19 6 11 20 0 12 21 6 12 22 7 13 23 7 14 24 9 14 25 0 14 26 9 15 27 10 15 28 0 15 29 10 16 30 14 16 31 0 16 32 11 17 33 16 17 34 0 17 35 12 18 36 11 18 37 0 18 38 13 19 39 12 19 40 0 19 41 14 20 42 13 20 43 0 20 44 16 21 45 17 21 46 0 21 47 18 22 48 17 23 49 19 24 50 17 25 51 22 26 52 19 27 53 17 28 54 25 28 55 20 28 56 17 29 57 20 29 58 21 29 59 17 30 60 21 30 61 33 30 62 17 31 63 23 32 64 22 33 65 17 34 66 27 34 67 23 34 68 17 35 69 16 35 70 24 35 71 17 36 72 24 36 73 25 36 74 17 37 75 29 37 76 26 37 77 17 38 78 26 38 79 27 38 80 17 39 81 31 39 82 28 39 83 17 40 84 28 40 85 29 40 86 17 41 87 32 41 88 30 41 89 17 42 90 30 42 91 31 42 92 17 43 93 33 43 94 32 43 95 16 44 96 34 45 97 24 46 98 35 47 99 24 46 100 34 45 101 34 45 102 36 48 103 35 47 104 39 49 105 37 49 106 36 49 107 36 50 108 37 50 109 38 50 110 34 45 111 39 48 112 36 48 113 37 49 114 39 49 115 40 49 116 39 51 117 41 51 118 40 51 119 41 52 120 42 52 121 40 52 122 42 53 123 43 53 124 40 53 125 43 54 126 44 54 127 40 54 128 44 55 129 45 56 130 40 55 131 45 57 132 46 58 133 40 58 134 46 59 135 47 59 136 40 59 137 48 60 138 40 60 139 47 60 140 49 61 141 40 61 142 48 61 143 50 62 144 40 62 145 49 62 146 50 63 147 51 63 148 40 63 149 51 64 150 52 64 151 40 64 152 40 65 153 52 66 154 53 65 155 40 67 156 53 68 157 54 69 158 55 70 159 40 71 160 54 72 161 38 73 162 37 73 163 56 73 164 56 74 165 37 74 166 57 74 167 57 75 168 37 75 169 58 75 170 58 76 171 37 76 172 59 76 173 59 77 174 37 77 175 60 77 176 60 78 177 37 78 178 61 78 179 61 79 180 37 79 181 62 79 182 62 80 183 37 80 184 63 80 185 63 81 186 37 81 187 64 81 188 64 82 189 37 82 190 65 82 191 65 83 192 37 83 193 66 83 194 66 84 195 37 85 196 67 86 197 67 87 198 37 88 199 68 89 200 37 90 201 69 91 202 68 92 203</p>
        </triangles>
        <triangles material="LEDMat_g_001-material" count="56">
          <input semantic="VERTEX" source="#Cylinder_003-mesh-vertices" offset="0"/>
          <input semantic="NORMAL" source="#Cylinder_003-mesh-normals" offset="1"/>
          <input semantic="TEXCOORD" source="#Cylinder_003-mesh-map-0" offset="2" set="0"/>
          <p>71 93 204 72 93 205 70 93 206 73 94 207 74 94 208 72 94 209 74 95 210 77 95 211 76 95 212 77 96 213 78 96 214 76 96 215 79 97 216 80 97 217 78 97 218 81 98 219 82 98 220 80 98 221 83 99 222 84 99 223 82 99 224 85 100 225 86 100 226 84 100 227 87 101 228 88 101 229 86 101 230 89 102 231 90 102 232 88 102 233 91 103 234 92 103 235 90 103 236 93 104 237 94 104 238 92 104 239 94 105 240 97 105 241 96 105 242 77 106 243 75 106 244 97 106 245 97 107 246 98 107 247 96 107 248 99 108 249 70 108 250 98 108 251 96 109 252 98 109 253 72 109 254 71 110 255 73 110 256 72 110 257 73 111 258 75 111 259 74 111 260 74 112 261 75 112 262 77 112 263 77 113 264 79 113 265 78 113 266 79 114 267 81 114 268 80 114 269 81 115 270 83 115 271 82 115 272 83 99 273 85 99 274 84 99 275 85 100 276 87 100 277 86 100 278 87 116 279 89 116 280 88 116 281 89 117 282 91 117 283 90 117 284 91 118 285 93 118 286 92 118 287 93 119 288 95 119 289 94 119 290 94 120 291 95 120 292 97 120 293 75 106 294 73 106 295 97 106 296 73 106 297 71 106 298 99 106 299 97 106 300 73 106 301 99 106 302 97 106 303 95 106 304 77 106 305 95 121 306 93 121 307 77 121 308 93 122 309 91 122 310 81 122 311 91 123 312 89 123 313 81 123 314 89 106 315 87 106 316 85 106 317 85 106 318 83 106 319 89 106 320 83 106 321 81 106 322 89 106 323 81 106 324 79 106 325 93 106 326 79 106 327 77 106 328 93 106 329 97 124 330 99 124 331 98 124 332 99 125 333 71 125 334 70 125 335 98 126 336 70 126 337 72 126 338 72 109 339 74 109 340 96 109 341 74 127 342 76 127 343 96 127 344 76 109 345 78 109 346 92 109 347 78 109 348 80 109 349 92 109 350 80 128 351 82 128 352 88 128 353 82 129 354 84 129 355 88 129 356 84 109 357 86 109 358 88 109 359 88 109 360 90 109 361 80 109 362 90 109 363 92 109 364 80 109 365 92 130 366 94 130 367 76 130 368 94 109 369 96 109 370 76 109 371</p>
        </triangles>
        <triangles material="LEDMat_red_001-material" count="56">
          <input semantic="VERTEX" source="#Cylinder_003-mesh-vertices" offset="0"/>
          <input semantic="NORMAL" source="#Cylinder_003-mesh-normals" offset="1"/>
          <input semantic="TEXCOORD" source="#Cylinder_003-mesh-map-0" offset="2" set="0"/>
          <p>101 131 372 102 131 373 100 131 374 103 132 375 104 132 376 102 132 377 104 133 378 107 133 379 106 133 380 107 134 381 108 134 382 106 134 383 109 135 384 110 135 385 108 135 386 111 136 387 112 136 388 110 136 389 113 137 390 114 137 391 112 137 392 115 100 393 116 100 394 114 100 395 117 138 396 118 138 397 116 138 398 119 139 399 120 139 400 118 139 401 121 140 402 122 140 403 120 140 404 123 141 405 124 141 406 122 141 407 124 142 408 127 142 409 126 142 410 107 106 411 105 106 412 127 106 413 127 143 414 128 143 415 126 143 416 129 144 417 100 144 418 128 144 419 126 109 420 128 109 421 102 109 422 101 145 423 103 145 424 102 145 425 103 132 426 105 132 427 104 132 428 104 133 429 105 133 430 107 133 431 107 146 432 109 146 433 108 146 434 109 147 435 111 147 436 110 147 437 111 148 438 113 148 439 112 148 440 113 137 441 115 137 442 114 137 443 115 100 444 117 100 445 116 100 446 117 138 447 119 138 448 118 138 449 119 149 450 121 149 451 120 149 452 121 150 453 123 150 454 122 150 455 123 151 456 125 151 457 124 151 458 124 142 459 125 142 460 127 142 461 105 152 462 103 152 463 127 152 464 103 106 465 101 106 466 129 106 467 127 106 468 103 106 469 129 106 470 127 106 471 125 106 472 107 106 473 125 106 474 123 106 475 107 106 476 123 106 477 121 106 478 111 106 479 121 106 480 119 106 481 111 106 482 119 153 483 117 153 484 115 153 485 115 106 486 113 106 487 119 106 488 113 154 489 111 154 490 119 154 491 111 106 492 109 106 493 123 106 494 109 106 495 107 106 496 123 106 497 127 143 498 129 143 499 128 143 500 129 155 501 101 155 502 100 155 503 128 109 504 100 109 505 102 109 506 102 109 507 104 109 508 126 109 509 104 109 510 106 109 511 126 109 512 106 156 513 108 156 514 122 156 515 108 157 516 110 157 517 122 157 518 110 158 519 112 158 520 118 158 521 112 109 522 114 109 523 118 109 524 114 159 525 116 159 526 118 159 527 118 109 528 120 109 529 110 109 530 120 160 531 122 160 532 110 160 533 122 109 534 124 109 535 106 109 536 124 161 537 126 161 538 106 161 539</p>
        </triangles>
        <triangles material="LensMat_001-material" count="96">
          <input semantic="VERTEX" source="#Cylinder_003-mesh-vertices" offset="0"/>
          <input semantic="NORMAL" source="#Cylinder_003-mesh-normals" offset="1"/>
          <input semantic="TEXCOORD" source="#Cylinder_003-mesh-map-0" offset="2" set="0"/>
          <p>131 162 540 132 162 541 130 162 542 132 163 543 135 163 544 134 163 545 135 164 546 136 164 547 134 164 548 137 165 549 138 165 550 136 165 551 139 166 552 140 166 553 138 166 554 141 167 555 142 167 556 140 167 557 143 168 558 144 168 559 142 168 560 145 169 561 146 169 562 144 169 563 147 170 564 148 170 565 146 170 566 149 171 567 150 171 568 148 171 569 151 172 570 152 172 571 150 172 572 153 173 573 154 173 574 152 173 575 154 100 576 157 100 577 156 100 578 157 174 579 158 174 580 156 174 581 159 175 582 160 175 583 158 175 584 161 176 585 162 176 586 160 176 587 163 177 588 164 177 589 162 177 590 165 178 591 166 178 592 164 178 593 167 179 594 168 179 595 166 179 596 169 180 597 170 180 598 168 180 599 171 181 600 172 181 601 170 181 602 173 182 603 174 182 604 172 182 605 175 183 606 176 183 607 174 183 608 137 106 609 135 106 610 177 106 611 176 184 612 179 184 613 178 184 614 179 185 615 130 185 616 178 185 617 176 109 618 178 109 619 132 109 620 131 186 621 133 186 622 132 186 623 132 187 624 133 187 625 135 187 626 135 164 627 137 164 628 136 164 629 137 188 630 139 188 631 138 188 632 139 189 633 141 189 634 140 189 635 141 190 636 143 190 637 142 190 638 143 191 639 145 191 640 144 191 641 145 192 642 147 192 643 146 192 644 147 193 645 149 193 646 148 193 647 149 194 648 151 194 649 150 194 650 151 195 651 153 195 652 152 195 653 153 196 654 155 196 655 154 196 656 154 100 657 155 100 658 157 100 659 157 197 660 159 197 661 158 197 662 159 198 663 161 198 664 160 198 665 161 199 666 163 199 667 162 199 668 163 200 669 165 200 670 164 200 671 165 201 672 167 201 673 166 201 674 167 202 675 169 202 676 168 202 677 169 203 678 171 203 679 170 203 680 171 204 681 173 204 682 172 204 683 173 205 684 175 205 685 174 205 686 175 206 687 177 206 688 176 206 689 135 106 690 133 106 691 177 106 692 133 207 693 131 207 694 179 207 695 177 208 696 133 208 697 179 208 698 177 106 699 175 106 700 137 106 701 175 106 702 173 106 703 137 106 704 173 209 705 171 209 706 141 209 707 171 106 708 169 106 709 141 106 710 169 106 711 167 106 712 145 106 713 167 106 714 165 106 715 145 106 716 165 106 717 163 106 718 149 106 719 163 106 720 161 106 721 149 106 722 161 210 723 159 210 724 153 210 725 159 106 726 157 106 727 153 106 728 157 211 729 155 211 730 153 211 731 153 106 732 151 106 733 161 106 734 151 106 735 149 106 736 161 106 737 149 106 738 147 106 739 165 106 740 147 212 741 145 212 742 165 212 743 145 213 744 143 213 745 169 213 746 143 214 747 141 214 748 169 214 749 141 106 750 139 106 751 173 106 752 139 106 753 137 106 754 173 106 755 176 215 756 177 215 757 179 215 758 179 216 759 131 216 760 130 216 761 178 109 762 130 109 763 132 109 764 132 217 765 134 217 766 176 217 767 134 109 768 136 109 769 176 109 770 136 218 771 138 218 772 172 218 773 138 109 774 140 109 775 172 109 776 140 109 777 142 109 778 168 109 779 142 109 780 144 109 781 168 109 782 144 219 783 146 219 784 164 219 785 146 220 786 148 220 787 164 220 788 148 109 789 150 109 790 160 109 791 150 109 792 152 109 793 160 109 794 152 109 795 154 109 796 156 109 797 156 109 798 158 109 799 152 109 800 158 109 801 160 109 802 152 109 803 160 221 804 162 221 805 148 221 806 162 222 807 164 222 808 148 222 809 164 223 810 166 223 811 144 223 812 166 109 813 168 109 814 144 109 815 168 109 816 170 109 817 140 109 818 170 109 819 172 109 820 140 109 821 172 109 822 174 109 823 136 109 824 174 109 825 176 109 826 136 109 827</p>
        </triangles>
        <triangles material="CameraRingMat_001-material" count="96">
          <input semantic="VERTEX" source="#Cylinder_003-mesh-vertices" offset="0"/>
          <input semantic="NORMAL" source="#Cylinder_003-mesh-normals" offset="1"/>
          <input semantic="TEXCOORD" source="#Cylinder_003-mesh-map-0" offset="2" set="0"/>
          <p>181 224 828 182 224 829 180 224 830 183 225 831 184 225 832 182 225 833 185 226 834 186 226 835 184 226 836 187 227 837 188 227 838 186 227 839 188 228 840 191 228 841 190 228 842 191 229 843 192 229 844 190 229 845 193 230 846 194 230 847 192 230 848 195 231 849 196 231 850 194 231 851 197 232 852 198 232 853 196 232 854 199 233 855 200 233 856 198 233 857 201 234 858 202 234 859 200 234 860 203 235 861 204 235 862 202 235 863 205 100 864 206 100 865 204 100 866 207 236 867 208 236 868 206 236 869 209 237 870 210 237 871 208 237 872 211 238 873 212 238 874 210 238 875 213 239 876 214 239 877 212 239 878 215 240 879 216 240 880 214 240 881 217 202 882 218 202 883 216 202 884 219 241 885 220 241 886 218 241 887 221 242 888 222 242 889 220 242 890 223 243 891 224 243 892 222 243 893 224 244 894 227 244 895 226 244 896 187 245 897 185 245 898 227 245 899 227 246 900 228 246 901 226 246 902 228 247 903 181 247 904 180 247 905 226 248 906 228 248 907 182 248 908 181 249 909 183 249 910 182 249 911 183 250 912 185 250 913 184 250 914 185 251 915 187 251 916 186 251 917 187 252 918 189 252 919 188 252 920 188 253 921 189 253 922 191 253 923 191 229 924 193 229 925 192 229 926 193 230 927 195 230 928 194 230 929 195 254 930 197 254 931 196 254 932 197 232 933 199 232 934 198 232 935 199 255 936 201 255 937 200 255 938 201 256 939 203 256 940 202 256 941 203 257 942 205 257 943 204 257 944 205 100 945 207 100 946 206 100 947 207 258 948 209 258 949 208 258 950 209 259 951 211 259 952 210 259 953 211 260 954 213 260 955 212 260 956 213 261 957 215 261 958 214 261 959 215 262 960 217 262 961 216 262 962 217 202 963 219 202 964 218 202 965 219 241 966 221 241 967 220 241 968 221 263 969 223 263 970 222 263 971 223 264 972 225 264 973 224 264 974 224 265 975 225 265 976 227 265 977 185 266 978 183 266 979 229 266 980 183 267 981 181 267 982 229 267 983 229 268 984 227 268 985 185 268 986 227 106 987 225 106 988 187 106 989 225 269 990 223 269 991 187 269 992 223 270 993 221 270 994 191 270 995 221 106 996 219 106 997 191 106 998 219 106 999 217 106 1000 195 106 1001 217 271 1002 215 271 1003 195 271 1004 215 272 1005 213 272 1006 199 272 1007 213 106 1008 211 106 1009 199 106 1010 211 106 1011 209 106 1012 203 106 1013 209 106 1014 207 106 1015 203 106 1016 207 273 1017 205 273 1018 203 273 1019 203 106 1020 201 106 1021 211 106 1022 201 274 1023 199 274 1024 211 274 1025 199 106 1026 197 106 1027 215 106 1028 197 106 1029 195 106 1030 215 106 1031 195 106 1032 193 106 1033 219 106 1034 193 275 1035 191 275 1036 219 275 1037 191 106 1038 189 106 1039 223 106 1040 189 106 1041 187 106 1042 223 106 1043 227 276 1044 229 276 1045 228 276 1046 228 277 1047 229 277 1048 181 277 1049 228 109 1050 180 109 1051 182 109 1052 182 109 1053 184 109 1054 226 109 1055 184 109 1056 186 109 1057 226 109 1058 186 278 1059 188 278 1060 222 278 1061 188 109 1062 190 109 1063 222 109 1064 190 109 1065 192 109 1066 218 109 1067 192 109 1068 194 109 1069 218 109 1070 194 279 1071 196 279 1072 214 279 1073 196 109 1074 198 109 1075 214 109 1076 198 109 1077 200 109 1078 210 109 1079 200 109 1080 202 109 1081 210 109 1082 202 109 1083 204 109 1084 206 109 1085 206 109 1086 208 109 1087 202 109 1088 208 109 1089 210 109 1090 202 109 1091 210 109 1092 212 109 1093 198 109 1094 212 109 1095 214 109 1096 198 109 1097 214 280 1098 216 280 1099 194 280 1100 216 281 1101 218 281 1102 194 281 1103 218 109 1104 220 109 1105 190 109 1106 220 109 1107 222 109 1108 190 109 1109 222 109 1110 224 109 1111 186 109 1112 224 109 1113 226 109 1114 186 109 1115</p>
        </triangles>
        <triangles material="LensDetailMat_001-material" count="76">
          <input semantic="VERTEX" source="#Cylinder_003-mesh-vertices" offset="0"/>
          <input semantic="NORMAL" source="#Cylinder_003-mesh-normals" offset="1"/>
          <input semantic="TEXCOORD" source="#Cylinder_003-mesh-map-0" offset="2" set="0"/>
          <p>231 282 1116 232 282 1117 230 282 1118 233 283 1119 234 283 1120 232 283 1121 234 284 1122 237 284 1123 236 284 1124 237 285 1125 238 285 1126 236 285 1127 239 286 1128 240 286 1129 238 286 1130 241 287 1131 242 287 1132 240 287 1133 243 288 1134 244 288 1135 242 288 1136 245 289 1137 246 289 1138 244 289 1139 247 290 1140 248 290 1141 246 290 1142 249 291 1143 250 291 1144 248 291 1145 251 292 1146 252 292 1147 250 292 1148 253 293 1149 254 293 1150 252 293 1151 255 294 1152 256 294 1153 254 294 1154 257 295 1155 258 295 1156 256 295 1157 259 296 1158 260 296 1159 258 296 1160 261 297 1161 262 297 1162 260 297 1163 263 298 1164 264 298 1165 262 298 1166 265 299 1167 266 299 1168 264 299 1169 239 300 1170 237 300 1171 263 300 1172 267 301 1173 268 301 1174 266 301 1175 268 302 1176 231 302 1177 230 302 1178 264 303 1179 266 303 1180 236 303 1181 231 304 1182 233 304 1183 232 304 1184 233 305 1185 235 305 1186 234 305 1187 234 306 1188 235 306 1189 237 306 1190 237 307 1191 239 307 1192 238 307 1193 239 308 1194 241 308 1195 240 308 1196 241 309 1197 243 309 1198 242 309 1199 243 310 1200 245 310 1201 244 310 1202 245 311 1203 247 311 1204 246 311 1205 247 312 1206 249 312 1207 248 312 1208 249 313 1209 251 313 1210 250 313 1211 251 314 1212 253 314 1213 252 314 1214 253 315 1215 255 315 1216 254 315 1217 255 316 1218 257 316 1219 256 316 1220 257 317 1221 259 317 1222 258 317 1223 259 318 1224 261 318 1225 260 318 1226 261 319 1227 263 319 1228 262 319 1229 263 320 1230 265 320 1231 264 320 1232 265 321 1233 267 321 1234 266 321 1235 235 106 1236 233 106 1237 267 106 1238 233 322 1239 231 322 1240 269 322 1241 267 106 1242 233 106 1243 269 106 1244 267 323 1245 265 323 1246 235 323 1247 265 106 1248 263 106 1249 237 106 1250 235 106 1251 265 106 1252 237 106 1253 263 324 1254 261 324 1255 239 324 1256 261 106 1257 259 106 1258 241 106 1259 239 325 1260 261 325 1261 241 325 1262 259 106 1263 257 106 1264 245 106 1265 257 326 1266 255 326 1267 247 326 1268 255 106 1269 253 106 1270 247 106 1271 253 327 1272 251 327 1273 249 327 1274 247 106 1275 253 106 1276 249 106 1277 247 106 1278 245 106 1279 257 106 1280 245 106 1281 243 106 1282 259 106 1283 243 328 1284 241 328 1285 259 328 1286 267 329 1287 269 329 1288 268 329 1289 268 330 1290 269 330 1291 231 330 1292 268 109 1293 230 109 1294 232 109 1295 232 331 1296 234 331 1297 268 331 1298 234 109 1299 236 109 1300 266 109 1301 268 109 1302 234 109 1303 266 109 1304 236 332 1305 238 332 1306 262 332 1307 238 333 1308 240 333 1309 260 333 1310 240 334 1311 242 334 1312 260 334 1313 242 335 1314 244 335 1315 258 335 1316 260 109 1317 242 109 1318 258 109 1319 244 109 1320 246 109 1321 254 109 1322 246 336 1323 248 336 1324 252 336 1325 248 109 1326 250 109 1327 252 109 1328 252 109 1329 254 109 1330 246 109 1331 254 337 1332 256 337 1333 244 337 1334 256 338 1335 258 338 1336 244 338 1337 260 109 1338 262 109 1339 238 109 1340 262 339 1341 264 339 1342 236 339 1343</p>
        </triangles>
      </mesh>
    </geometry>
  </library_geometries>
  <library_visual_scenes>
    <visual_scene id="Scene" name="Scene">
      <node id="cam" name="cam" type="NODE">
        <matrix sid="transform">0.3408768 0 0 0 0 0.341233 8.62797e-8 0 0 -5.55939e-8 0.5295811 0 0 0 0 1</matrix>
        <instance_geometry url="#Cylinder_003-mesh" name="cam">
          <bind_material>
            <technique_common>
              <instance_material symbol="Сam_001-material" target="#Сam_001-material">
                <bind_vertex_input semantic="Cylinder_003-mesh-map-0" input_semantic="TEXCOORD" input_set="0"/>
              </instance_material>
              <instance_material symbol="LEDMat_g_001-material" target="#LEDMat_g_001-material">
                <bind_vertex_input semantic="Cylinder_003-mesh-map-0" input_semantic="TEXCOORD" input_set="0"/>
              </instance_material>
              <instance_material symbol="LEDMat_red_001-material" target="#LEDMat_red_001-material">
                <bind_vertex_input semantic="Cylinder_003-mesh-map-0" input_semantic="TEXCOORD" input_set="0"/>
              </instance_material>
              <instance_material symbol="LensMat_001-material" target="#LensMat_001-material">
                <bind_vertex_input semantic="Cylinder_003-mesh-map-0" input_semantic="TEXCOORD" input_set="0"/>
              </instance_material>
              <instance_material symbol="CameraRingMat_001-material" target="#CameraRingMat_001-material">
                <bind_vertex_input semantic="Cylinder_003-mesh-map-0" input_semantic="TEXCOORD" input_set="0"/>
              </instance_material>
              <instance_material symbol="LensDetailMat_001-material" target="#LensDetailMat_001-material">
                <bind_vertex_input semantic="Cylinder_003-mesh-map-0" input_semantic="TEXCOORD" input_set="0"/>
              </instance_material>
            </technique_common>
          </bind_material>
        </instance_geometry>
      </node>
    </visual_scene>
  </library_visual_scenes>
  <scene>
    <instance_visual_scene url="#Scene"/>
  </scene>
</COLLADA>